<svg width="350" height="225" viewBox="0 0 350 225" fill="none" xmlns="http://www.w3.org/2000/svg">
<rect width="350" height="225" rx="25" fill="white"/>
<path d="M228.128 37.2727H229.063L229.068 36.1541C231.171 36 232.374 34.7969 232.374 33.1861C232.374 31.3516 230.738 30.6406 229.445 30.3224L229.082 30.228L229.092 27.0362C230.022 27.1605 230.658 27.6776 230.753 28.4929H232.234C232.195 26.9766 230.942 25.843 229.097 25.6939L229.102 24.5455H228.168L228.163 25.7038C226.378 25.8828 225.07 26.9964 225.07 28.6023C225.07 30.0192 226.085 30.8494 227.72 31.2919L228.148 31.4062L228.138 34.7919C227.168 34.6726 226.418 34.1456 226.338 33.1861H224.797C224.891 34.9013 226.129 36.005 228.133 36.1541L228.128 37.2727ZM229.073 34.7919L229.082 31.6648C230.092 31.9432 230.852 32.3111 230.852 33.1712C230.852 34.0412 230.127 34.6527 229.073 34.7919ZM228.153 29.9794C227.412 29.7607 226.597 29.3679 226.602 28.5128C226.602 27.767 227.193 27.1854 228.158 27.0412L228.153 29.9794ZM237.933 25.8182H236.437L233.896 27.4787V28.9503L236.332 27.3594H236.392V36H237.933V25.8182ZM240.687 36H247.389V34.6825H242.805V34.608L244.829 32.4901C246.693 30.6058 247.225 29.706 247.225 28.5675C247.225 26.9318 245.893 25.679 243.974 25.679C242.07 25.679 240.677 26.9119 240.677 28.7713H242.144C242.139 27.6776 242.845 26.9616 243.944 26.9616C244.978 26.9616 245.763 27.598 245.763 28.6122C245.763 29.5121 245.226 30.1584 244.133 31.3168L240.687 34.8864V36ZM251.227 34.608H249.795L249.746 35.1648C249.631 36.5121 249.313 37.8693 249.179 38.4858H250.233C250.472 37.8345 250.998 36.343 251.153 35.1499L251.227 34.608ZM256.503 36.1392C258.552 36.1392 260.013 34.6925 260.008 32.7088C260.013 30.7401 258.641 29.3082 256.787 29.3082C256.031 29.3082 255.33 29.5966 254.932 29.9844H254.873L255.196 27.1357H259.516V25.8182H253.918L253.346 30.9489L254.753 31.1577C255.136 30.8146 255.822 30.581 256.439 30.581C257.647 30.5909 258.522 31.4957 258.522 32.7386C258.522 33.9616 257.672 34.8466 256.503 34.8466C255.519 34.8466 254.738 34.2202 254.659 33.3452H253.167C253.227 34.9659 254.634 36.1392 256.503 36.1392ZM265.369 36.169C267.72 36.169 269.098 34.25 269.098 30.9141C269.098 27.603 267.701 25.679 265.369 25.679C263.032 25.679 261.64 27.598 261.635 30.9141C261.635 34.245 263.012 36.1641 265.369 36.169ZM265.369 34.8416C263.992 34.8416 263.161 33.4595 263.161 30.9141C263.166 28.3786 263.997 26.9815 265.369 26.9815C266.736 26.9815 267.571 28.3786 267.571 30.9141C267.571 33.4595 266.741 34.8416 265.369 34.8416ZM274.406 36.169C276.758 36.169 278.135 34.25 278.135 30.9141C278.135 27.603 276.738 25.679 274.406 25.679C272.069 25.679 270.677 27.598 270.672 30.9141C270.672 34.245 272.049 36.1641 274.406 36.169ZM274.406 34.8416C273.029 34.8416 272.199 33.4595 272.199 30.9141C272.204 28.3786 273.034 26.9815 274.406 26.9815C275.773 26.9815 276.608 28.3786 276.608 30.9141C276.608 33.4595 275.778 34.8416 274.406 34.8416Z" fill="#343C6A"/>
<path d="M32.9023 197L33.8533 194.322H37.6757L38.6267 197H39.827L36.3554 187.545H35.1736L31.702 197H32.9023ZM34.2134 193.307L35.7276 189.041H35.8014L37.3157 193.307H34.2134ZM45.6207 194.101C45.6207 195.43 44.6051 196.04 43.7926 196.04C42.8877 196.04 42.2414 195.375 42.2414 194.341V189.909H41.1519V194.415C41.1519 196.224 42.1122 197.092 43.4417 197.092C44.5127 197.092 45.2144 196.52 45.5468 195.8H45.6207V197H46.7102V189.909H45.6207V194.101ZM51.5679 199.807C53.2667 199.807 54.6332 199.031 54.6332 197.203V189.909H53.5807V191.036H53.4699C53.2298 190.666 52.7866 189.817 51.4017 189.817C49.6105 189.817 48.3733 191.239 48.3733 193.418C48.3733 195.634 49.6659 196.889 51.3832 196.889C52.7682 196.889 53.2113 196.077 53.4514 195.689H53.5437V197.129C53.5437 198.311 52.7128 198.847 51.5679 198.847C50.2799 198.847 49.8275 198.168 49.5366 197.776L48.6687 198.385C49.1119 199.128 49.9844 199.807 51.5679 199.807ZM51.5309 195.911C50.1645 195.911 49.4628 194.876 49.4628 193.399C49.4628 191.959 50.146 190.795 51.5309 190.795C52.8605 190.795 53.5622 191.866 53.5622 193.399C53.5622 194.969 52.842 195.911 51.5309 195.911Z" fill="#718EBF"/>
<path d="M90.4262 189.909H91.5341C91.4834 188.483 90.1677 187.416 88.3395 187.416C86.5299 187.416 85.108 188.469 85.108 190.057C85.108 191.331 86.0313 192.088 87.5086 192.513L88.6719 192.845C89.6691 193.122 90.5554 193.473 90.5554 194.415C90.5554 195.449 89.5583 196.132 88.2472 196.132C87.1208 196.132 86.1236 195.634 86.0313 194.562H84.8495C84.9603 196.114 86.216 197.166 88.2472 197.166C90.4262 197.166 91.6634 195.966 91.6634 194.433C91.6634 192.661 89.983 192.088 89.0043 191.83L88.0441 191.571C87.3424 191.386 86.216 191.017 86.216 190.001C86.216 189.097 87.0469 188.432 88.3026 188.432C89.4475 188.432 90.3154 188.977 90.4262 189.909ZM96.371 197.148C97.8114 197.148 98.8639 196.428 99.1963 195.357L98.1438 195.061C97.8668 195.8 97.2251 196.169 96.371 196.169C95.0923 196.169 94.2105 195.343 94.1598 193.824H99.3071V193.362C99.3071 190.722 97.7375 189.817 96.2603 189.817C94.3398 189.817 93.0657 191.331 93.0657 193.51C93.0657 195.689 94.3213 197.148 96.371 197.148ZM94.1598 192.882C94.2336 191.779 95.0138 190.795 96.2603 190.795C97.4421 190.795 98.1992 191.682 98.1992 192.882H94.1598ZM100.964 199.659H102.054V195.911H102.146C102.386 196.298 102.848 197.148 104.214 197.148C105.987 197.148 107.224 195.726 107.224 193.473C107.224 191.239 105.987 189.817 104.196 189.817C102.811 189.817 102.386 190.666 102.146 191.036H102.017V189.909H100.964V199.659ZM102.035 193.455C102.035 191.866 102.737 190.795 104.067 190.795C105.452 190.795 106.135 191.959 106.135 193.455C106.135 194.969 105.433 196.169 104.067 196.169C102.756 196.169 102.035 195.061 102.035 193.455Z" fill="#718EBF"/>
<path d="M146.179 192.273C146.179 189.281 144.425 187.416 142.006 187.416C139.586 187.416 137.832 189.281 137.832 192.273C137.832 195.264 139.586 197.129 142.006 197.129C144.425 197.129 146.179 195.264 146.179 192.273ZM145.071 192.273C145.071 194.729 143.723 196.058 142.006 196.058C140.288 196.058 138.94 194.729 138.94 192.273C138.94 189.817 140.288 188.487 142.006 188.487C143.723 188.487 145.071 189.817 145.071 192.273ZM150.837 197.148C152.406 197.148 153.441 196.188 153.625 194.932H152.536C152.333 195.707 151.686 196.169 150.837 196.169C149.544 196.169 148.713 195.098 148.713 193.455C148.713 191.848 149.563 190.795 150.837 190.795C151.797 190.795 152.369 191.386 152.536 192.033H153.625C153.441 190.703 152.314 189.817 150.818 189.817C148.898 189.817 147.624 191.331 147.624 193.491C147.624 195.615 148.843 197.148 150.837 197.148ZM158.302 189.909H156.787V188.21H155.698V189.909H154.627V190.832H155.698V195.264C155.698 196.501 156.695 197.092 157.618 197.092C158.025 197.092 158.283 197.018 158.431 196.963L158.209 195.984C158.117 196.003 157.969 196.04 157.729 196.04C157.249 196.04 156.787 195.892 156.787 194.969V190.832H158.302V189.909Z" fill="#718EBF"/>
<path d="M195.878 187.545H194.752V194.987H194.66L189.489 187.545H188.381V197H189.526V189.577H189.618L194.77 197H195.878V187.545ZM200.902 197.148C202.823 197.148 204.115 195.689 204.115 193.491C204.115 191.276 202.823 189.817 200.902 189.817C198.982 189.817 197.689 191.276 197.689 193.491C197.689 195.689 198.982 197.148 200.902 197.148ZM200.902 196.169C199.443 196.169 198.779 194.913 198.779 193.491C198.779 192.07 199.443 190.795 200.902 190.795C202.361 190.795 203.026 192.07 203.026 193.491C203.026 194.913 202.361 196.169 200.902 196.169ZM211.323 189.909H210.141L208.184 195.56H208.11L206.152 189.909H204.971L207.593 197H208.701L211.323 189.909Z" fill="#718EBF"/>
<path d="M243.477 197C246.357 197 247.982 195.209 247.982 192.254C247.982 189.318 246.357 187.545 243.606 187.545H240.559V197H243.477ZM241.704 195.984V188.561H243.532C245.748 188.561 246.874 189.964 246.874 192.254C246.874 194.562 245.748 195.984 243.403 195.984H241.704ZM252.728 197.148C254.168 197.148 255.221 196.428 255.553 195.357L254.501 195.061C254.224 195.8 253.582 196.169 252.728 196.169C251.449 196.169 250.567 195.343 250.517 193.824H255.664V193.362C255.664 190.722 254.094 189.817 252.617 189.817C250.697 189.817 249.423 191.331 249.423 193.51C249.423 195.689 250.678 197.148 252.728 197.148ZM250.517 192.882C250.591 191.779 251.371 190.795 252.617 190.795C253.799 190.795 254.556 191.682 254.556 192.882H250.517ZM260.202 197.148C261.772 197.148 262.806 196.188 262.99 194.932H261.901C261.698 195.707 261.051 196.169 260.202 196.169C258.909 196.169 258.078 195.098 258.078 193.455C258.078 191.848 258.928 190.795 260.202 190.795C261.162 190.795 261.735 191.386 261.901 192.033H262.99C262.806 190.703 261.679 189.817 260.184 189.817C258.263 189.817 256.989 191.331 256.989 193.491C256.989 195.615 258.208 197.148 260.202 197.148Z" fill="#718EBF"/>
<path d="M297.77 187.545V194.304C297.77 195.481 297.207 196.114 296.219 196.114C295.319 196.114 294.668 195.587 294.668 194.784H293.541C293.541 196.238 294.668 197.129 296.219 197.129C297.862 197.129 298.915 196.118 298.915 194.304V187.545H297.77ZM303.148 197.166C304.385 197.166 305.032 196.501 305.253 196.04H305.309V197H306.398V192.328C306.398 190.075 304.681 189.817 303.776 189.817C302.705 189.817 301.486 190.186 300.932 191.479L301.966 191.848C302.206 191.331 302.774 190.777 303.813 190.777C304.815 190.777 305.309 191.308 305.309 192.217V192.254C305.309 192.781 304.773 192.734 303.481 192.901C302.165 193.071 300.729 193.362 300.729 194.987C300.729 196.372 301.8 197.166 303.148 197.166ZM303.314 196.188C302.447 196.188 301.819 195.8 301.819 195.043C301.819 194.212 302.576 193.953 303.425 193.842C303.887 193.787 305.124 193.658 305.309 193.436V194.433C305.309 195.32 304.607 196.188 303.314 196.188ZM309.476 192.734C309.476 191.497 310.243 190.795 311.286 190.795C312.297 190.795 312.911 191.456 312.911 192.568V197H314V192.494C314 190.685 313.036 189.817 311.6 189.817C310.529 189.817 309.864 190.297 309.532 191.017H309.439V189.909H308.387V197H309.476V192.734Z" fill="#718EBF"/>
<rect x="25" y="82" width="37" height="93" rx="10" fill="#EDF0F7"/>
<rect x="77" y="33" width="37" height="142" rx="10" fill="#EDF0F7"/>
<rect x="129" y="79" width="37" height="96" rx="10" fill="#EDF0F7"/>
<rect x="181" y="126" width="37" height="49" rx="10" fill="#EDF0F7"/>
<g filter="url(#filter0_d_105_364)">
<rect x="233" y="46" width="37" height="129" rx="10" fill="#16DBCC"/>
</g>
<rect x="285" y="87" width="37" height="88" rx="10" fill="#EDF0F7"/>
<defs>
<filter id="filter0_d_105_364" x="198" y="11" width="107" height="199" filterUnits="userSpaceOnUse" color-interpolation-filters="sRGB">
<feFlood flood-opacity="0" result="BackgroundImageFix"/>
<feColorMatrix in="SourceAlpha" type="matrix" values="0 0 0 0 0 0 0 0 0 0 0 0 0 0 0 0 0 0 127 0" result="hardAlpha"/>
<feOffset/>
<feGaussianBlur stdDeviation="17.5"/>
<feColorMatrix type="matrix" values="0 0 0 0 0.0705882 0 0 0 0 0.533333 0 0 0 0 0.494771 0 0 0 0.2 0"/>
<feBlend mode="normal" in2="BackgroundImageFix" result="effect1_dropShadow_105_364"/>
<feBlend mode="normal" in="SourceGraphic" in2="effect1_dropShadow_105_364" result="shape"/>
</filter>
</defs>
</svg>
