<svg width="20" height="20" viewBox="0 0 20 20" fill="none" xmlns="http://www.w3.org/2000/svg">
<path d="M17.6621 5.51034V5.23675C17.6621 3.97905 16.6389 2.95581 15.3812 2.95581H2.28094C1.0232 2.95585 0 3.97905 0 5.23675V5.51034H17.6621Z" fill="#1814F3"/>
<path d="M10.4347 12.8476C10.4347 11.6644 10.8152 10.5398 11.5178 9.61304H0V12.7948C0 14.0525 1.0232 15.0757 2.28094 15.0757H10.9162C10.601 14.3852 10.4347 13.6292 10.4347 12.8476ZM8.83109 12.1562H6.8625V10.9844H8.83109V12.1562ZM2.62727 10.9844H5.69062V12.1562H2.62727V10.9844Z" fill="#1814F3"/>
<path d="M12.7344 8.44124C13.6281 7.81597 14.6898 7.47909 15.8033 7.47909C16.4478 7.47909 17.0748 7.59226 17.6621 7.80855V6.68237H0V8.44124H12.7344Z" fill="#1814F3"/>
<path d="M19.9999 12.8476C19.9999 10.5298 18.1209 8.65088 15.8032 8.65088C13.4854 8.65088 11.6064 10.5298 11.6064 12.8476C11.6064 15.1653 13.4854 17.0442 15.8032 17.0442C18.1209 17.0442 19.9999 15.1653 19.9999 12.8476ZM16.3689 15.0896V15.5665H15.7829V15.5665V15.5665H15.197V15.0931C14.8427 14.9731 14.5529 14.7621 14.2698 14.5551L14.9616 13.6092C15.3419 13.8873 15.5365 14.021 15.8032 14.021C15.9539 14.021 16.076 13.9492 16.1218 13.8337C16.1772 13.6938 16.0989 13.565 15.9123 13.489C15.9123 13.489 15.0747 13.2097 14.6875 12.8149C14.3626 12.4837 14.2593 12.0169 14.3627 11.5729C14.4668 11.1258 14.7687 10.7763 15.197 10.6017V10.1286H16.3689V10.5821C16.6665 10.6647 16.9184 10.7869 17.0632 10.8655L16.5041 11.8954C16.1334 11.6942 15.7924 11.6338 15.6597 11.6792C15.5309 11.7232 15.5113 11.8072 15.5039 11.8388C15.4935 11.8836 15.4879 11.9524 15.5596 12.0322C15.6285 12.109 16.3541 12.4037 16.3541 12.4037C17.137 12.7224 17.5054 13.5228 17.2112 14.2654C17.0584 14.6514 16.7507 14.9437 16.3689 15.0896Z" fill="#1814F3"/>
</svg>
