<svg width="20" height="20" viewBox="0 0 20 20" fill="none" xmlns="http://www.w3.org/2000/svg">
<g clip-path="url(#clip0_203_371)">
<path d="M11.5941 12.2698C14.95 12.2698 17.6803 9.51765 17.6803 6.1349C17.6803 2.75215 14.95 0 11.5941 0C8.2381 0 5.50781 2.75211 5.50781 6.13486C5.50781 9.51761 8.2381 12.2698 11.5941 12.2698ZM9.63836 8.04927C9.8154 7.77865 10.1784 7.70268 10.449 7.8798C10.8433 8.13773 10.9921 8.16151 11.5124 8.15788C12.0203 8.15452 12.315 7.77595 12.3739 7.42562C12.4026 7.25521 12.4135 6.83909 11.8978 6.65678C11.2929 6.44292 10.6738 6.1985 10.2432 5.86069C9.81248 5.52288 9.61525 4.93971 9.7285 4.33886C9.85128 3.68749 10.3057 3.16897 10.9144 2.98564C10.9199 2.984 10.9253 2.98268 10.9308 2.98104V2.75906C10.9308 2.43566 11.1929 2.17347 11.5163 2.17347C11.8397 2.17347 12.1019 2.43566 12.1019 2.75906V2.94414C12.4997 3.03909 12.7774 3.22105 12.8902 3.30534C13.1492 3.49901 13.2023 3.86594 13.0086 4.125C12.815 4.38407 12.4481 4.43708 12.189 4.24337C12.069 4.15366 11.7373 3.9608 11.2521 4.10701C10.9687 4.19242 10.8952 4.4721 10.8794 4.55576C10.8484 4.72016 10.8832 4.87425 10.9659 4.93913C11.2645 5.17329 11.8019 5.38062 12.2881 5.55251C13.1848 5.86947 13.6835 6.70023 13.5289 7.61976C13.453 8.07094 13.2261 8.48951 12.8897 8.79851C12.6607 9.00901 12.394 9.15908 12.1019 9.24477V9.51066C12.1019 9.83406 11.8397 10.0963 11.5163 10.0963C11.1929 10.0963 10.9308 9.83406 10.9308 9.51066V9.30317C10.5521 9.25726 10.2343 9.13885 9.80779 8.85988C9.53721 8.68284 9.46132 8.31989 9.63836 8.04927Z" fill="#1814F3"/>
<path d="M2.21964 14.2373H0.884417C0.561016 14.2373 0.298828 14.4995 0.298828 14.8229V19.4135C0.298828 19.7369 0.561016 19.9991 0.884417 19.9991H2.21968V14.2373H2.21964Z" fill="#1814F3"/>
<path d="M19.5295 14.1965C18.4319 13.0989 16.646 13.0989 15.5485 14.1965L13.7943 15.9507L13.0753 16.6697C12.7847 16.9602 12.3906 17.1235 11.9797 17.1235H8.48353C8.16778 17.1235 7.89607 16.8808 7.88119 16.5654C7.86534 16.2287 8.13366 15.9507 8.46694 15.9507H12.0205C12.735 15.9507 13.3547 15.442 13.4776 14.7382C13.5058 14.5765 13.5205 14.4104 13.5205 14.2408C13.5205 13.9168 13.258 13.6539 12.9341 13.6539H10.9869C10.3506 13.6539 9.7395 13.3652 9.0925 13.0596C8.41389 12.739 7.71219 12.4075 6.89171 12.3529C6.17409 12.3051 5.45483 12.3837 4.7538 12.5861C4.00319 12.8029 3.46363 13.4697 3.3982 14.2397C3.3957 14.2395 3.39316 14.2394 3.39062 14.2393V19.9972L13.4794 20C14.1731 20 14.8253 19.7298 15.3158 19.2393L19.5293 15.0258C19.7585 14.7969 19.7585 14.4255 19.5295 14.1965Z" fill="#1814F3"/>
</g>
<defs>
<clipPath id="clip0_203_371">
<rect width="20" height="20" fill="white"/>
</clipPath>
</defs>
</svg>
