<svg width="487" height="270" viewBox="0 0 487 270" fill="none" xmlns="http://www.w3.org/2000/svg">
<rect width="487" height="270" rx="20" fill="white"/>
<path d="M21.4773 31.0909H22.1761V30.1406C23.9659 30.017 24.9716 28.9602 24.9716 27.6307C24.9716 25.9943 23.4205 25.4659 22.517 25.2273L22.1761 25.1335V22.1037C23.0795 22.1932 23.7358 22.679 23.8295 23.4545H24.8523C24.8097 22.2102 23.7188 21.2642 22.1761 21.1619V20.1818H21.4773V21.1747C20.0156 21.3239 18.9205 22.2528 18.9205 23.5909C18.9205 24.767 19.7727 25.4659 21.1364 25.858L21.4773 25.956V29.1818C20.5824 29.0881 19.8494 28.6278 19.7727 27.75H18.6818C18.7798 29.0923 19.8026 30.0298 21.4773 30.1406V31.0909ZM22.1761 29.1818V26.1562L22.2102 26.1648C23.1307 26.4205 23.9489 26.7443 23.9489 27.6136C23.9489 28.4702 23.2074 29.0668 22.1761 29.1818ZM21.4773 24.946C20.8295 24.7628 19.9432 24.4048 19.9432 23.5398C19.9432 22.8026 20.5398 22.2401 21.4773 22.1165V24.946ZM26.8285 30H27.9364L31.8228 22.2614V21.2727H26.2319V22.2102H30.7319V22.2784L26.8285 30ZM33.4283 28.8068H32.3374L32.2862 29.2841C32.1626 30.4389 31.9197 31.5895 31.8089 32.1307H32.576C32.7805 31.5511 33.2152 30.2386 33.3601 29.267L33.4283 28.8068ZM37.826 30.1193C39.4879 30.1193 40.7067 28.892 40.7067 27.2216C40.7067 25.5298 39.5305 24.2898 37.9283 24.2898C37.3402 24.2898 36.7692 24.4986 36.4112 24.7841H36.3601L36.6669 22.2102H40.3146V21.2727H35.7805L35.2521 25.5682L36.2408 25.6875C36.603 25.4276 37.2209 25.2401 37.7578 25.2443C38.87 25.2528 39.6839 26.0966 39.6839 27.2386C39.6839 28.3594 38.8999 29.1818 37.826 29.1818C36.9311 29.1818 36.2195 28.6065 36.1385 27.8182H35.1158C35.1797 29.1477 36.326 30.1193 37.826 30.1193ZM45.2972 30.1193C47.0614 30.1406 48.212 28.8111 48.212 27.1875C48.212 25.5 46.9634 24.2898 45.4677 24.2898C44.5685 24.2898 43.7972 24.7287 43.32 25.4489H43.2518C43.256 23.3224 44.0827 22.0909 45.4336 22.0909C46.354 22.0909 46.908 22.6705 47.104 23.4545H48.1438C47.9308 22.0994 46.8995 21.1534 45.4336 21.1534C43.4691 21.1534 42.2631 22.892 42.2631 25.9773C42.2631 29.2031 43.8654 30.1023 45.2972 30.1193ZM45.2972 29.1818C44.2021 29.1818 43.4009 28.2486 43.4052 27.2045C43.4094 26.1605 44.2489 25.2273 45.3313 25.2273C46.4009 25.2273 47.1893 26.1051 47.1893 27.1875C47.1893 28.2955 46.3668 29.1818 45.2972 29.1818ZM52.7344 30.1193C54.6605 30.1193 55.7685 28.4872 55.7685 25.6364C55.7685 22.8068 54.6435 21.1534 52.7344 21.1534C50.8253 21.1534 49.7003 22.8068 49.7003 25.6364C49.7003 28.4872 50.8082 30.1193 52.7344 30.1193ZM52.7344 29.1818C51.4645 29.1818 50.723 27.9077 50.723 25.6364C50.723 23.3693 51.473 22.0739 52.7344 22.0739C53.9957 22.0739 54.7457 23.3693 54.7457 25.6364C54.7457 27.9077 54.0043 29.1818 52.7344 29.1818ZM122.399 31.0909H123.098V30.1406C124.888 30.017 125.893 28.9602 125.893 27.6307C125.893 25.9943 124.342 25.4659 123.439 25.2273L123.098 25.1335V22.1037C124.001 22.1932 124.658 22.679 124.751 23.4545H125.774C125.732 22.2102 124.641 21.2642 123.098 21.1619V20.1818H122.399V21.1747C120.938 21.3239 119.842 22.2528 119.842 23.5909C119.842 24.767 120.695 25.4659 122.058 25.858L122.399 25.956V29.1818C121.504 29.0881 120.771 28.6278 120.695 27.75H119.604C119.702 29.0923 120.724 30.0298 122.399 30.1406V31.0909ZM123.098 29.1818V26.1562L123.132 26.1648C124.053 26.4205 124.871 26.7443 124.871 27.6136C124.871 28.4702 124.129 29.0668 123.098 29.1818ZM122.399 24.946C121.751 24.7628 120.865 24.4048 120.865 23.5398C120.865 22.8026 121.462 22.2401 122.399 22.1165V24.946ZM130.205 30.1193C131.867 30.1193 133.086 28.892 133.086 27.2216C133.086 25.5298 131.909 24.2898 130.307 24.2898C129.719 24.2898 129.148 24.4986 128.79 24.7841H128.739L129.046 22.2102H132.694V21.2727H128.159L127.631 25.5682L128.62 25.6875C128.982 25.4276 129.6 25.2401 130.137 25.2443C131.249 25.2528 132.063 26.0966 132.063 27.2386C132.063 28.3594 131.279 29.1818 130.205 29.1818C129.31 29.1818 128.598 28.6065 128.517 27.8182H127.495C127.559 29.1477 128.705 30.1193 130.205 30.1193ZM135.967 28.8068H134.876L134.825 29.2841C134.702 30.4389 134.459 31.5895 134.348 32.1307H135.115C135.32 31.5511 135.754 30.2386 135.899 29.267L135.967 28.8068ZM137.609 28.2102H141.717V30H142.723V28.2102H143.916V27.2727H142.723V21.2727H141.444L137.609 27.3409V28.2102ZM141.717 27.2727H138.751V27.2045L141.649 22.6193H141.717V27.2727ZM145.513 30H151.018V29.0625H146.962V28.9943L148.922 26.8977C150.422 25.2912 150.865 24.5412 150.865 23.5739C150.865 22.2273 149.774 21.1534 148.24 21.1534C146.71 21.1534 145.547 22.1932 145.547 23.7273H146.553C146.553 22.7344 147.196 22.0739 148.206 22.0739C149.152 22.0739 149.876 22.6534 149.876 23.5739C149.876 24.3793 149.403 24.9759 148.393 26.0795L145.513 29.233V30ZM155.625 30.1193C157.551 30.1193 158.659 28.4872 158.659 25.6364C158.659 22.8068 157.534 21.1534 155.625 21.1534C153.716 21.1534 152.591 22.8068 152.591 25.6364C152.591 28.4872 153.699 30.1193 155.625 30.1193ZM155.625 29.1818C154.355 29.1818 153.614 27.9077 153.614 25.6364C153.614 23.3693 154.364 22.0739 155.625 22.0739C156.886 22.0739 157.636 23.3693 157.636 25.6364C157.636 27.9077 156.895 29.1818 155.625 29.1818Z" fill="#333B69"/>
<path d="M63.6094 30C66.2685 30 67.7685 28.3466 67.7685 25.6193C67.7685 22.9091 66.2685 21.2727 63.7287 21.2727H60.9162V30H63.6094ZM61.973 29.0625V22.2102H63.6605C65.706 22.2102 66.7457 23.5057 66.7457 25.6193C66.7457 27.75 65.706 29.0625 63.5412 29.0625H61.973ZM72.1491 30.1364C73.4787 30.1364 74.4503 29.4716 74.7571 28.483L73.7855 28.2102C73.5298 28.892 72.9375 29.233 72.1491 29.233C70.9688 29.233 70.1548 28.4702 70.108 27.0682H74.8594V26.642C74.8594 24.2045 73.4105 23.3693 72.0469 23.3693C70.2741 23.3693 69.098 24.767 69.098 26.7784C69.098 28.7898 70.2571 30.1364 72.1491 30.1364ZM70.108 26.1989C70.1761 25.1804 70.8963 24.2727 72.0469 24.2727C73.1378 24.2727 73.8366 25.0909 73.8366 26.1989H70.108ZM76.5256 30H77.4972V28.9943H77.6165C77.8381 29.3523 78.2642 30.1364 79.5256 30.1364C81.1619 30.1364 82.304 28.8239 82.304 26.7443C82.304 24.6818 81.1619 23.3693 79.5085 23.3693C78.2301 23.3693 77.8381 24.1534 77.6165 24.4943H77.5312V21.2727H76.5256V30ZM77.5142 26.7273C77.5142 25.2614 78.1619 24.2727 79.3892 24.2727C80.6676 24.2727 81.2983 25.3466 81.2983 26.7273C81.2983 28.125 80.6506 29.233 79.3892 29.233C78.179 29.233 77.5142 28.2102 77.5142 26.7273ZM83.8423 30H84.848V23.4545H83.8423V30ZM84.3537 22.3636C84.7457 22.3636 85.0696 22.0568 85.0696 21.6818C85.0696 21.3068 84.7457 21 84.3537 21C83.9616 21 83.6378 21.3068 83.6378 21.6818C83.6378 22.0568 83.9616 22.3636 84.3537 22.3636ZM89.5366 23.4545H88.1388V21.8864H87.1332V23.4545H86.1445V24.3068H87.1332V28.3977C87.1332 29.5398 88.0536 30.0852 88.9059 30.0852C89.2809 30.0852 89.5195 30.017 89.6559 29.9659L89.4513 29.0625C89.3661 29.0795 89.2298 29.1136 89.0082 29.1136C88.565 29.1136 88.1388 28.9773 88.1388 28.125V24.3068H89.5366V23.4545ZM93.7234 30.1364C95.0529 30.1364 96.0245 29.4716 96.3313 28.483L95.3597 28.2102C95.104 28.892 94.5117 29.233 93.7234 29.233C92.543 29.233 91.729 28.4702 91.6822 27.0682H96.4336V26.642C96.4336 24.2045 94.9847 23.3693 93.6211 23.3693C91.8484 23.3693 90.6722 24.767 90.6722 26.7784C90.6722 28.7898 91.8313 30.1364 93.7234 30.1364ZM91.6822 26.1989C91.7504 25.1804 92.4705 24.2727 93.6211 24.2727C94.712 24.2727 95.4109 25.0909 95.4109 26.1989H91.6822ZM100.435 30.1364C101.696 30.1364 102.123 29.3523 102.344 28.9943H102.463V30H103.435V21.2727H102.429V24.4943H102.344C102.123 24.1534 101.73 23.3693 100.452 23.3693C98.7987 23.3693 97.6566 24.6818 97.6566 26.7443C97.6566 28.8239 98.7987 30.1364 100.435 30.1364ZM100.571 29.233C99.31 29.233 98.6623 28.125 98.6623 26.7273C98.6623 25.3466 99.293 24.2727 100.571 24.2727C101.799 24.2727 102.446 25.2614 102.446 26.7273C102.446 28.2102 101.782 29.233 100.571 29.233ZM111.263 30.1193C112.064 30.1193 112.959 29.8381 113.526 29.2585L114.144 30H115.354L114.148 28.5298C114.476 28.108 114.843 27.4006 114.843 26.1818H113.871C113.871 26.7784 113.735 27.3068 113.509 27.7457L111.613 25.4318L112.252 24.9545C112.968 24.4261 113.411 23.8466 113.411 23.0114C113.411 22.0398 112.61 21.1875 111.297 21.1875C110.019 21.1875 109.184 21.9886 109.184 23.1648C109.184 23.9403 109.605 24.5369 110.206 25.2614C109.188 25.9688 108.485 26.625 108.485 27.6818C108.485 29.0966 109.542 30.1193 111.263 30.1193ZM112.925 28.5298C112.444 28.9815 111.834 29.233 111.229 29.233C110.189 29.233 109.507 28.5 109.507 27.6818C109.507 27.4432 109.729 26.8295 110.513 26.25L110.837 26.0114L112.925 28.5298ZM110.995 24.6818C110.569 24.1619 110.206 23.6676 110.206 23.1818C110.206 22.6364 110.667 22.0568 111.331 22.0568C111.962 22.0568 112.388 22.5682 112.388 23.0114C112.388 23.608 112.064 23.9318 111.57 24.2557L110.995 24.6818ZM170.83 24C170.506 22.2102 169.074 21.1534 167.318 21.1534C165.085 21.1534 163.466 22.875 163.466 25.6364C163.466 28.3977 165.085 30.1193 167.318 30.1193C169.074 30.1193 170.506 29.0625 170.83 27.2727H169.773C169.517 28.483 168.477 29.1307 167.318 29.1307C165.733 29.1307 164.489 27.9034 164.489 25.6364C164.489 23.3693 165.733 22.142 167.318 22.142C168.477 22.142 169.517 22.7898 169.773 24H170.83ZM172.401 30H173.407V25.858C173.407 24.9716 174.105 24.3239 175.06 24.3239C175.328 24.3239 175.605 24.375 175.674 24.392V23.3693C175.559 23.3608 175.294 23.3523 175.145 23.3523C174.361 23.3523 173.679 23.7955 173.441 24.4432H173.373V23.4545H172.401V30ZM179.411 30.1364C180.74 30.1364 181.712 29.4716 182.019 28.483L181.047 28.2102C180.792 28.892 180.199 29.233 179.411 29.233C178.23 29.233 177.417 28.4702 177.37 27.0682H182.121V26.642C182.121 24.2045 180.672 23.3693 179.309 23.3693C177.536 23.3693 176.36 24.767 176.36 26.7784C176.36 28.7898 177.519 30.1364 179.411 30.1364ZM177.37 26.1989C177.438 25.1804 178.158 24.2727 179.309 24.2727C180.4 24.2727 181.098 25.0909 181.098 26.1989H177.37ZM186.123 30.1364C187.384 30.1364 187.81 29.3523 188.032 28.9943H188.151V30H189.123V21.2727H188.117V24.4943H188.032C187.81 24.1534 187.418 23.3693 186.14 23.3693C184.486 23.3693 183.344 24.6818 183.344 26.7443C183.344 28.8239 184.486 30.1364 186.123 30.1364ZM186.259 29.233C184.998 29.233 184.35 28.125 184.35 26.7273C184.35 25.3466 184.98 24.2727 186.259 24.2727C187.486 24.2727 188.134 25.2614 188.134 26.7273C188.134 28.2102 187.469 29.233 186.259 29.233ZM191.104 30H192.11V23.4545H191.104V30ZM191.615 22.3636C192.007 22.3636 192.331 22.0568 192.331 21.6818C192.331 21.3068 192.007 21 191.615 21C191.223 21 190.9 21.3068 190.9 21.6818C190.9 22.0568 191.223 22.3636 191.615 22.3636ZM196.798 23.4545H195.401V21.8864H194.395V23.4545H193.406V24.3068H194.395V28.3977C194.395 29.5398 195.315 30.0852 196.168 30.0852C196.543 30.0852 196.781 30.017 196.918 29.9659L196.713 29.0625C196.628 29.0795 196.491 29.1136 196.27 29.1136C195.827 29.1136 195.401 28.9773 195.401 28.125V24.3068H196.798V23.4545ZM200.985 30.1364C202.315 30.1364 203.286 29.4716 203.593 28.483L202.621 28.2102C202.366 28.892 201.773 29.233 200.985 29.233C199.805 29.233 198.991 28.4702 198.944 27.0682H203.695V26.642C203.695 24.2045 202.246 23.3693 200.883 23.3693C199.11 23.3693 197.934 24.767 197.934 26.7784C197.934 28.7898 199.093 30.1364 200.985 30.1364ZM198.944 26.1989C199.012 25.1804 199.732 24.2727 200.883 24.2727C201.974 24.2727 202.673 25.0909 202.673 26.1989H198.944ZM207.697 30.1364C208.958 30.1364 209.384 29.3523 209.606 28.9943H209.725V30H210.697V21.2727H209.691V24.4943H209.606C209.384 24.1534 208.992 23.3693 207.714 23.3693C206.06 23.3693 204.918 24.6818 204.918 26.7443C204.918 28.8239 206.06 30.1364 207.697 30.1364ZM207.833 29.233C206.572 29.233 205.924 28.125 205.924 26.7273C205.924 25.3466 206.555 24.2727 207.833 24.2727C209.06 24.2727 209.708 25.2614 209.708 26.7273C209.708 28.2102 209.043 29.233 207.833 29.233ZM216.053 30H217.059V23.4545H216.053V30ZM216.565 22.3636C216.957 22.3636 217.281 22.0568 217.281 21.6818C217.281 21.3068 216.957 21 216.565 21C216.173 21 215.849 21.3068 215.849 21.6818C215.849 22.0568 216.173 22.3636 216.565 22.3636ZM219.907 26.0625C219.907 24.9205 220.614 24.2727 221.577 24.2727C222.51 24.2727 223.077 24.8821 223.077 25.9091V30H224.083V25.8409C224.083 24.1705 223.192 23.3693 221.867 23.3693C220.878 23.3693 220.265 23.8125 219.958 24.4773H219.873V23.4545H218.901V30H219.907V26.0625ZM232.142 23.4545H230.744V21.8864H229.739V23.4545H228.75V24.3068H229.739V28.3977C229.739 29.5398 230.659 30.0852 231.511 30.0852C231.886 30.0852 232.125 30.017 232.261 29.9659L232.057 29.0625C231.972 29.0795 231.835 29.1136 231.614 29.1136C231.17 29.1136 230.744 28.9773 230.744 28.125V24.3068H232.142V23.4545ZM234.801 26.0625C234.801 24.9205 235.53 24.2727 236.523 24.2727C237.469 24.2727 238.04 24.8693 238.04 25.9091V30H239.045V25.8409C239.045 24.1577 238.151 23.3693 236.812 23.3693C235.781 23.3693 235.193 23.7997 234.886 24.4773H234.801V21.2727H233.795V30H234.801V26.0625ZM240.885 30H241.891V23.4545H240.885V30ZM241.397 22.3636C241.789 22.3636 242.113 22.0568 242.113 21.6818C242.113 21.3068 241.789 21 241.397 21C241.005 21 240.681 21.3068 240.681 21.6818C240.681 22.0568 241.005 22.3636 241.397 22.3636ZM248.369 24.9205C248.054 23.9915 247.347 23.3693 246.051 23.3693C244.67 23.3693 243.648 24.1534 243.648 25.2614C243.648 26.1648 244.185 26.7699 245.386 27.0511L246.477 27.3068C247.138 27.4602 247.449 27.7756 247.449 28.2273C247.449 28.7898 246.852 29.25 245.915 29.25C245.092 29.25 244.577 28.8963 244.398 28.1932L243.443 28.4318C243.678 29.544 244.594 30.1364 245.932 30.1364C247.453 30.1364 248.489 29.3054 248.489 28.1761C248.489 27.2642 247.918 26.6889 246.75 26.4034L245.778 26.1648C245.003 25.973 244.653 25.7131 244.653 25.2102C244.653 24.6477 245.25 24.2386 246.051 24.2386C246.929 24.2386 247.291 24.7244 247.466 25.1761L248.369 24.9205ZM255.099 30H256.19L258.116 23.0455H258.184L260.11 30H261.201L263.588 21.2727H262.514L260.69 28.3807H260.605L258.747 21.2727H257.554L255.696 28.3807H255.61L253.787 21.2727H252.713L255.099 30ZM266.903 30.1364C268.233 30.1364 269.204 29.4716 269.511 28.483L268.539 28.2102C268.284 28.892 267.691 29.233 266.903 29.233C265.723 29.233 264.909 28.4702 264.862 27.0682H269.613V26.642C269.613 24.2045 268.164 23.3693 266.801 23.3693C265.028 23.3693 263.852 24.767 263.852 26.7784C263.852 28.7898 265.011 30.1364 266.903 30.1364ZM264.862 26.1989C264.93 25.1804 265.65 24.2727 266.801 24.2727C267.892 24.2727 268.591 25.0909 268.591 26.1989H264.862ZM273.887 30.1364C275.217 30.1364 276.189 29.4716 276.495 28.483L275.524 28.2102C275.268 28.892 274.676 29.233 273.887 29.233C272.707 29.233 271.893 28.4702 271.846 27.0682H276.598V26.642C276.598 24.2045 275.149 23.3693 273.785 23.3693C272.012 23.3693 270.836 24.767 270.836 26.7784C270.836 28.7898 271.995 30.1364 273.887 30.1364ZM271.846 26.1989C271.914 25.1804 272.635 24.2727 273.785 24.2727C274.876 24.2727 275.575 25.0909 275.575 26.1989H271.846ZM278.127 30H279.133V27.5497L279.836 26.8977L282.287 30H283.565L280.595 26.25L283.36 23.4545H282.116L279.252 26.3693H279.133V21.2727H278.127V30Z" fill="#718EBF"/>
<g filter="url(#filter0_i_152_1131)">
<rect x="339" y="20" width="12" height="12" rx="4" fill="#4C78FF"/>
</g>
<path d="M364.75 30C367.409 30 368.909 28.3466 368.909 25.6193C368.909 22.9091 367.409 21.2727 364.869 21.2727H362.057V30H364.75ZM363.114 29.0625V22.2102H364.801C366.847 22.2102 367.886 23.5057 367.886 25.6193C367.886 27.75 366.847 29.0625 364.682 29.0625H363.114ZM373.29 30.1364C374.619 30.1364 375.591 29.4716 375.898 28.483L374.926 28.2102C374.67 28.892 374.078 29.233 373.29 29.233C372.109 29.233 371.295 28.4702 371.249 27.0682H376V26.642C376 24.2045 374.551 23.3693 373.188 23.3693C371.415 23.3693 370.239 24.767 370.239 26.7784C370.239 28.7898 371.398 30.1364 373.29 30.1364ZM371.249 26.1989C371.317 25.1804 372.037 24.2727 373.188 24.2727C374.278 24.2727 374.977 25.0909 374.977 26.1989H371.249ZM377.666 30H378.638V28.9943H378.757C378.979 29.3523 379.405 30.1364 380.666 30.1364C382.303 30.1364 383.445 28.8239 383.445 26.7443C383.445 24.6818 382.303 23.3693 380.649 23.3693C379.371 23.3693 378.979 24.1534 378.757 24.4943H378.672V21.2727H377.666V30ZM378.655 26.7273C378.655 25.2614 379.303 24.2727 380.53 24.2727C381.808 24.2727 382.439 25.3466 382.439 26.7273C382.439 28.125 381.791 29.233 380.53 29.233C379.32 29.233 378.655 28.2102 378.655 26.7273ZM384.983 30H385.989V23.4545H384.983V30ZM385.494 22.3636C385.886 22.3636 386.21 22.0568 386.21 21.6818C386.21 21.3068 385.886 21 385.494 21C385.102 21 384.778 21.3068 384.778 21.6818C384.778 22.0568 385.102 22.3636 385.494 22.3636ZM390.677 23.4545H389.279V21.8864H388.274V23.4545H387.285V24.3068H388.274V28.3977C388.274 29.5398 389.194 30.0852 390.047 30.0852C390.422 30.0852 390.66 30.017 390.797 29.9659L390.592 29.0625C390.507 29.0795 390.37 29.1136 390.149 29.1136C389.706 29.1136 389.279 28.9773 389.279 28.125V24.3068H390.677V23.4545Z" fill="#718EBF"/>
<g filter="url(#filter1_i_152_1131)">
<rect x="412" y="20" width="12" height="12" rx="4" fill="#FF82AC"/>
</g>
<path d="M442.08 24C441.756 22.2102 440.324 21.1534 438.568 21.1534C436.335 21.1534 434.716 22.875 434.716 25.6364C434.716 28.3977 436.335 30.1193 438.568 30.1193C440.324 30.1193 441.756 29.0625 442.08 27.2727H441.023C440.767 28.483 439.727 29.1307 438.568 29.1307C436.983 29.1307 435.739 27.9034 435.739 25.6364C435.739 23.3693 436.983 22.142 438.568 22.142C439.727 22.142 440.767 22.7898 441.023 24H442.08ZM443.651 30H444.657V25.858C444.657 24.9716 445.355 24.3239 446.31 24.3239C446.578 24.3239 446.855 24.375 446.924 24.392V23.3693C446.809 23.3608 446.544 23.3523 446.395 23.3523C445.611 23.3523 444.929 23.7955 444.691 24.4432H444.623V23.4545H443.651V30ZM450.661 30.1364C451.99 30.1364 452.962 29.4716 453.269 28.483L452.297 28.2102C452.042 28.892 451.449 29.233 450.661 29.233C449.48 29.233 448.667 28.4702 448.62 27.0682H453.371V26.642C453.371 24.2045 451.922 23.3693 450.559 23.3693C448.786 23.3693 447.61 24.767 447.61 26.7784C447.61 28.7898 448.769 30.1364 450.661 30.1364ZM448.62 26.1989C448.688 25.1804 449.408 24.2727 450.559 24.2727C451.65 24.2727 452.348 25.0909 452.348 26.1989H448.62ZM457.373 30.1364C458.634 30.1364 459.06 29.3523 459.282 28.9943H459.401V30H460.373V21.2727H459.367V24.4943H459.282C459.06 24.1534 458.668 23.3693 457.39 23.3693C455.736 23.3693 454.594 24.6818 454.594 26.7443C454.594 28.8239 455.736 30.1364 457.373 30.1364ZM457.509 29.233C456.248 29.233 455.6 28.125 455.6 26.7273C455.6 25.3466 456.23 24.2727 457.509 24.2727C458.736 24.2727 459.384 25.2614 459.384 26.7273C459.384 28.2102 458.719 29.233 457.509 29.233ZM462.354 30H463.36V23.4545H462.354V30ZM462.865 22.3636C463.257 22.3636 463.581 22.0568 463.581 21.6818C463.581 21.3068 463.257 21 462.865 21C462.473 21 462.15 21.3068 462.15 21.6818C462.15 22.0568 462.473 22.3636 462.865 22.3636ZM468.048 23.4545H466.651V21.8864H465.645V23.4545H464.656V24.3068H465.645V28.3977C465.645 29.5398 466.565 30.0852 467.418 30.0852C467.793 30.0852 468.031 30.017 468.168 29.9659L467.963 29.0625C467.878 29.0795 467.741 29.1136 467.52 29.1136C467.077 29.1136 466.651 28.9773 466.651 28.125V24.3068H468.048V23.4545Z" fill="#718EBF"/>
<rect x="18" y="143" width="20" height="85" rx="7" fill="#1A16F3"/>
<rect x="46" y="49" width="20" height="179" rx="7" fill="#FCAA0B"/>
<rect x="85" y="172" width="20" height="56" rx="7" fill="#1A16F3"/>
<rect x="113" y="92" width="20" height="136" rx="7" fill="#FCAA0B"/>
<rect x="152" y="176" width="20" height="52" rx="7" fill="#1A16F3"/>
<rect x="180" y="139" width="20" height="89" rx="7" fill="#FCAA0B"/>
<rect x="219" y="66" width="20" height="162" rx="7" fill="#1A16F3"/>
<rect x="247" y="155" width="20" height="73" rx="7" fill="#FCAA0B"/>
<rect x="286" y="128" width="20" height="100" rx="7" fill="#1A16F3"/>
<rect x="314" y="64" width="20" height="164" rx="7" fill="#FCAA0B"/>
<rect x="353" y="120" width="20" height="108" rx="7" fill="#1A16F3"/>
<rect x="381" y="173" width="20" height="55" rx="7" fill="#FCAA0B"/>
<rect x="420" y="99" width="20" height="129" rx="7" fill="#1A16F3"/>
<rect x="448" y="62" width="20" height="166" rx="7" fill="#FCAA0B"/>
<path d="M38.9428 243.455H39.9656C39.9187 242.138 38.7042 241.153 37.0167 241.153C35.3462 241.153 34.0337 242.125 34.0337 243.591C34.0337 244.767 34.886 245.466 36.2496 245.858L37.3235 246.165C38.244 246.42 39.0621 246.744 39.0621 247.614C39.0621 248.568 38.1417 249.199 36.9315 249.199C35.8917 249.199 34.9712 248.739 34.886 247.75H33.7951C33.8974 249.182 35.0565 250.153 36.9315 250.153C38.9428 250.153 40.0849 249.045 40.0849 247.631C40.0849 245.994 38.5337 245.466 37.6303 245.227L36.744 244.989C36.0962 244.818 35.0565 244.477 35.0565 243.54C35.0565 242.705 35.8235 242.091 36.9826 242.091C38.0394 242.091 38.8406 242.594 38.9428 243.455ZM43.6122 250.153C44.7543 250.153 45.3509 249.54 45.5554 249.114H45.6065V250H46.6122V245.688C46.6122 243.608 45.027 243.369 44.1918 243.369C43.2031 243.369 42.0781 243.71 41.5668 244.903L42.5213 245.244C42.7429 244.767 43.267 244.256 44.2259 244.256C45.1506 244.256 45.6065 244.746 45.6065 245.585V245.619C45.6065 246.105 45.1122 246.062 43.919 246.216C42.7045 246.374 41.3793 246.642 41.3793 248.142C41.3793 249.42 42.3679 250.153 43.6122 250.153ZM43.7656 249.25C42.9645 249.25 42.3849 248.892 42.3849 248.193C42.3849 247.426 43.0838 247.188 43.8679 247.085C44.294 247.034 45.4361 246.915 45.6065 246.71V247.631C45.6065 248.449 44.9588 249.25 43.7656 249.25ZM51.2944 243.455H49.8967V241.886H48.891V243.455H47.9023V244.307H48.891V248.398C48.891 249.54 49.8114 250.085 50.6637 250.085C51.0387 250.085 51.2773 250.017 51.4137 249.966L51.2092 249.062C51.1239 249.08 50.9876 249.114 50.766 249.114C50.3228 249.114 49.8967 248.977 49.8967 248.125V244.307H51.2944V243.455Z" fill="#718EBF"/>
<path d="M104.007 243.455H105.03C104.983 242.138 103.769 241.153 102.081 241.153C100.411 241.153 99.0982 242.125 99.0982 243.591C99.0982 244.767 99.9505 245.466 101.314 245.858L102.388 246.165C103.308 246.42 104.127 246.744 104.127 247.614C104.127 248.568 103.206 249.199 101.996 249.199C100.956 249.199 100.036 248.739 99.9505 247.75H98.8596C98.9618 249.182 100.121 250.153 101.996 250.153C104.007 250.153 105.149 249.045 105.149 247.631C105.149 245.994 103.598 245.466 102.695 245.227L101.808 244.989C101.161 244.818 100.121 244.477 100.121 243.54C100.121 242.705 100.888 242.091 102.047 242.091C103.104 242.091 103.905 242.594 104.007 243.455ZM110.876 247.324C110.876 248.551 109.938 249.114 109.188 249.114C108.353 249.114 107.756 248.5 107.756 247.545V243.455H106.751V247.614C106.751 249.284 107.637 250.085 108.864 250.085C109.853 250.085 110.501 249.557 110.807 248.892H110.876V250H111.881V243.455H110.876V247.324ZM114.729 246.062C114.729 244.92 115.436 244.273 116.399 244.273C117.333 244.273 117.899 244.882 117.899 245.909V250H118.905V245.841C118.905 244.17 118.014 243.369 116.689 243.369C115.7 243.369 115.087 243.812 114.78 244.477H114.695V243.455H113.723V250H114.729V246.062Z" fill="#718EBF"/>
<path d="M165.129 241.273V250H166.118V243.369H166.203L168.93 250H169.885L172.612 243.369H172.697V250H173.686V241.273H172.425L169.459 248.517H169.356L166.39 241.273H165.129ZM178.328 250.136C180.1 250.136 181.294 248.79 181.294 246.761C181.294 244.716 180.1 243.369 178.328 243.369C176.555 243.369 175.362 244.716 175.362 246.761C175.362 248.79 176.555 250.136 178.328 250.136ZM178.328 249.233C176.981 249.233 176.367 248.074 176.367 246.761C176.367 245.449 176.981 244.273 178.328 244.273C179.674 244.273 180.288 245.449 180.288 246.761C180.288 248.074 179.674 249.233 178.328 249.233ZM183.834 246.062C183.834 244.92 184.542 244.273 185.505 244.273C186.438 244.273 187.005 244.882 187.005 245.909V250H188.01V245.841C188.01 244.17 187.12 243.369 185.795 243.369C184.806 243.369 184.192 243.812 183.885 244.477H183.8V243.455H182.829V250H183.834V246.062Z" fill="#718EBF"/>
<path d="M233.697 242.21H236.441V250H237.498V242.21H240.242V241.273H233.697V242.21ZM244.971 247.324C244.971 248.551 244.034 249.114 243.284 249.114C242.449 249.114 241.852 248.5 241.852 247.545V243.455H240.846V247.614C240.846 249.284 241.733 250.085 242.96 250.085C243.949 250.085 244.596 249.557 244.903 248.892H244.971V250H245.977V243.455H244.971V247.324ZM250.563 250.136C251.893 250.136 252.864 249.472 253.171 248.483L252.2 248.21C251.944 248.892 251.352 249.233 250.563 249.233C249.383 249.233 248.569 248.47 248.522 247.068H253.273V246.642C253.273 244.205 251.825 243.369 250.461 243.369C248.688 243.369 247.512 244.767 247.512 246.778C247.512 248.79 248.671 250.136 250.563 250.136ZM248.522 246.199C248.59 245.18 249.31 244.273 250.461 244.273C251.552 244.273 252.251 245.091 252.251 246.199H248.522Z" fill="#718EBF"/>
<path d="M366.699 242.21H369.443V250H370.5V242.21H373.244V241.273H366.699V242.21ZM375.744 246.062C375.744 244.92 376.473 244.273 377.466 244.273C378.412 244.273 378.983 244.869 378.983 245.909V250H379.989V245.841C379.989 244.158 379.094 243.369 377.756 243.369C376.725 243.369 376.137 243.8 375.83 244.477H375.744V241.273H374.739V250H375.744V246.062ZM385.954 247.324C385.954 248.551 385.016 249.114 384.266 249.114C383.431 249.114 382.834 248.5 382.834 247.545V243.455H381.829V247.614C381.829 249.284 382.715 250.085 383.942 250.085C384.931 250.085 385.579 249.557 385.885 248.892H385.954V250H386.959V243.455H385.954V247.324Z" fill="#718EBF"/>
<path d="M438.414 250H439.471V246.097H443.255V245.159H439.471V242.21H443.647V241.273H438.414V250ZM445.251 250H446.256V245.858C446.256 244.972 446.955 244.324 447.91 244.324C448.178 244.324 448.455 244.375 448.523 244.392V243.369C448.408 243.361 448.144 243.352 447.995 243.352C447.211 243.352 446.529 243.795 446.29 244.443H446.222V243.455H445.251V250ZM449.715 250H450.721V243.455H449.715V250ZM450.227 242.364C450.619 242.364 450.943 242.057 450.943 241.682C450.943 241.307 450.619 241 450.227 241C449.835 241 449.511 241.307 449.511 241.682C449.511 242.057 449.835 242.364 450.227 242.364Z" fill="#718EBF"/>
<path d="M300.033 250H301.124L303.05 243.045H303.118L305.044 250H306.135L308.521 241.273H307.447L305.624 248.381H305.538L303.68 241.273H302.487L300.629 248.381H300.544L298.72 241.273H297.646L300.033 250ZM311.837 250.136C313.166 250.136 314.138 249.472 314.445 248.483L313.473 248.21C313.217 248.892 312.625 249.233 311.837 249.233C310.656 249.233 309.842 248.47 309.795 247.068H314.547V246.642C314.547 244.205 313.098 243.369 311.734 243.369C309.962 243.369 308.786 244.767 308.786 246.778C308.786 248.79 309.945 250.136 311.837 250.136ZM309.795 246.199C309.864 245.18 310.584 244.273 311.734 244.273C312.825 244.273 313.524 245.091 313.524 246.199H309.795ZM318.548 250.136C319.81 250.136 320.236 249.352 320.457 248.994H320.577V250H321.548V241.273H320.543V244.494H320.457C320.236 244.153 319.844 243.369 318.565 243.369C316.912 243.369 315.77 244.682 315.77 246.744C315.77 248.824 316.912 250.136 318.548 250.136ZM318.685 249.233C317.423 249.233 316.776 248.125 316.776 246.727C316.776 245.347 317.406 244.273 318.685 244.273C319.912 244.273 320.56 245.261 320.56 246.727C320.56 248.21 319.895 249.233 318.685 249.233Z" fill="#718EBF"/>
<defs>
<filter id="filter0_i_152_1131" x="339" y="20" width="12" height="12" filterUnits="userSpaceOnUse" color-interpolation-filters="sRGB">
<feFlood flood-opacity="0" result="BackgroundImageFix"/>
<feBlend mode="normal" in="SourceGraphic" in2="BackgroundImageFix" result="shape"/>
<feColorMatrix in="SourceAlpha" type="matrix" values="0 0 0 0 0 0 0 0 0 0 0 0 0 0 0 0 0 0 127 0" result="hardAlpha"/>
<feOffset/>
<feGaussianBlur stdDeviation="7.5"/>
<feComposite in2="hardAlpha" operator="arithmetic" k2="-1" k3="1"/>
<feColorMatrix type="matrix" values="0 0 0 0 0.0672743 0 0 0 0 0.203342 0 0 0 0 0.520833 0 0 0 0.5 0"/>
<feBlend mode="normal" in2="shape" result="effect1_innerShadow_152_1131"/>
</filter>
<filter id="filter1_i_152_1131" x="412" y="20" width="12" height="12" filterUnits="userSpaceOnUse" color-interpolation-filters="sRGB">
<feFlood flood-opacity="0" result="BackgroundImageFix"/>
<feBlend mode="normal" in="SourceGraphic" in2="BackgroundImageFix" result="shape"/>
<feColorMatrix in="SourceAlpha" type="matrix" values="0 0 0 0 0 0 0 0 0 0 0 0 0 0 0 0 0 0 127 0" result="hardAlpha"/>
<feOffset/>
<feGaussianBlur stdDeviation="7.5"/>
<feComposite in2="hardAlpha" operator="arithmetic" k2="-1" k3="1"/>
<feColorMatrix type="matrix" values="0 0 0 0 0.675 0 0 0 0 0.050625 0 0 0 0 0.42301 0 0 0 0.5 0"/>
<feBlend mode="normal" in2="shape" result="effect1_innerShadow_152_1131"/>
</filter>
</defs>
</svg>
