<svg width="730" height="364" viewBox="0 0 730 364" fill="none" xmlns="http://www.w3.org/2000/svg">
<rect width="730" height="364" rx="25" fill="white"/>
<path d="M34.6364 44.4545H35.5682V43.1875C37.9545 43.0227 39.2955 41.6136 39.2955 39.8409C39.2955 37.6591 37.2273 36.9545 36.0227 36.6364L35.5682 36.5114V32.4716C36.7727 32.5909 37.6477 33.2386 37.7727 34.2727H39.1364C39.0795 32.6136 37.625 31.3523 35.5682 31.2159V29.9091H34.6364V31.233C32.6875 31.4318 31.2273 32.6705 31.2273 34.4545C31.2273 36.0227 32.3636 36.9545 34.1818 37.4773L34.6364 37.608V41.9091C33.4432 41.7841 32.4659 41.1705 32.3636 40H30.9091C31.0398 41.7898 32.4034 43.0398 34.6364 43.1875V44.4545ZM35.5682 41.9091V37.875L35.6136 37.8864C36.8409 38.2273 37.9318 38.6591 37.9318 39.8182C37.9318 40.9602 36.9432 41.7557 35.5682 41.9091ZM34.6364 36.2614C33.7727 36.017 32.5909 35.5398 32.5909 34.3864C32.5909 33.4034 33.3864 32.6534 34.6364 32.4886V36.2614ZM41.7713 43H43.2486L48.4304 32.6818V31.3636H40.9759V32.6136H46.9759V32.7045L41.7713 43ZM50.571 41.4091H49.1165L49.0483 42.0455C48.8835 43.5852 48.5597 45.1193 48.4119 45.8409H49.4347C49.7074 45.0682 50.2869 43.3182 50.4801 42.0227L50.571 41.4091ZM56.4347 43.1591C58.6506 43.1591 60.2756 41.5227 60.2756 39.2955C60.2756 37.0398 58.7074 35.3864 56.571 35.3864C55.7869 35.3864 55.0256 35.6648 54.5483 36.0455H54.4801L54.8892 32.6136H59.7528V31.3636H53.7074L53.0028 37.0909L54.321 37.25C54.804 36.9034 55.6278 36.6534 56.3438 36.6591C57.8267 36.6705 58.9119 37.7955 58.9119 39.3182C58.9119 40.8125 57.8665 41.9091 56.4347 41.9091C55.2415 41.9091 54.2926 41.142 54.1847 40.0909H52.821C52.9062 41.8636 54.4347 43.1591 56.4347 43.1591ZM66.3963 43.1591C68.7486 43.1875 70.2827 41.4148 70.2827 39.25C70.2827 37 68.6179 35.3864 66.6236 35.3864C65.4247 35.3864 64.3963 35.9716 63.7599 36.9318H63.669C63.6747 34.0966 64.777 32.4545 66.5781 32.4545C67.8054 32.4545 68.544 33.2273 68.8054 34.2727H70.1918C69.9077 32.4659 68.5327 31.2045 66.5781 31.2045C63.9588 31.2045 62.3509 33.5227 62.3509 37.6364C62.3509 41.9375 64.4872 43.1364 66.3963 43.1591ZM66.3963 41.9091C64.9361 41.9091 63.8679 40.6648 63.8736 39.2727C63.8793 37.8807 64.9986 36.6364 66.4418 36.6364C67.8679 36.6364 68.919 37.8068 68.919 39.25C68.919 40.7273 67.8224 41.9091 66.3963 41.9091ZM76.3125 43.1591C78.8807 43.1591 80.358 40.983 80.358 37.1818C80.358 33.4091 78.858 31.2045 76.3125 31.2045C73.767 31.2045 72.267 33.4091 72.267 37.1818C72.267 40.983 73.7443 43.1591 76.3125 43.1591ZM76.3125 41.9091C74.6193 41.9091 73.6307 40.2102 73.6307 37.1818C73.6307 34.1591 74.6307 32.4318 76.3125 32.4318C77.9943 32.4318 78.9943 34.1591 78.9943 37.1818C78.9943 40.2102 78.0057 41.9091 76.3125 41.9091ZM169.199 44.4545H170.131V43.1875C172.517 43.0227 173.858 41.6136 173.858 39.8409C173.858 37.6591 171.79 36.9545 170.585 36.6364L170.131 36.5114V32.4716C171.335 32.5909 172.21 33.2386 172.335 34.2727H173.699C173.642 32.6136 172.188 31.3523 170.131 31.2159V29.9091H169.199V31.233C167.25 31.4318 165.79 32.6705 165.79 34.4545C165.79 36.0227 166.926 36.9545 168.744 37.4773L169.199 37.608V41.9091C168.006 41.7841 167.028 41.1705 166.926 40H165.472C165.602 41.7898 166.966 43.0398 169.199 43.1875V44.4545ZM170.131 41.9091V37.875L170.176 37.8864C171.403 38.2273 172.494 38.6591 172.494 39.8182C172.494 40.9602 171.506 41.7557 170.131 41.9091ZM169.199 36.2614C168.335 36.017 167.153 35.5398 167.153 34.3864C167.153 33.4034 167.949 32.6534 169.199 32.4886V36.2614ZM179.607 43.1591C181.822 43.1591 183.447 41.5227 183.447 39.2955C183.447 37.0398 181.879 35.3864 179.743 35.3864C178.959 35.3864 178.197 35.6648 177.72 36.0455H177.652L178.061 32.6136H182.925V31.3636H176.879L176.175 37.0909L177.493 37.25C177.976 36.9034 178.8 36.6534 179.516 36.6591C180.999 36.6705 182.084 37.7955 182.084 39.3182C182.084 40.8125 181.038 41.9091 179.607 41.9091C178.413 41.9091 177.464 41.142 177.357 40.0909H175.993C176.078 41.8636 177.607 43.1591 179.607 43.1591ZM187.29 41.4091H185.835L185.767 42.0455C185.602 43.5852 185.278 45.1193 185.131 45.8409H186.153C186.426 45.0682 187.006 43.3182 187.199 42.0227L187.29 41.4091ZM189.479 40.6136H194.956V43H196.297V40.6136H197.888V39.3636H196.297V31.3636H194.592L189.479 39.4545V40.6136ZM194.956 39.3636H191.001V39.2727L194.865 33.1591H194.956V39.3636ZM200.017 43H207.358V41.75H201.949V41.6591L204.562 38.8636C206.562 36.7216 207.153 35.7216 207.153 34.4318C207.153 32.6364 205.699 31.2045 203.653 31.2045C201.614 31.2045 200.062 32.5909 200.062 34.6364H201.403C201.403 33.3125 202.261 32.4318 203.608 32.4318C204.869 32.4318 205.835 33.2045 205.835 34.4318C205.835 35.5057 205.205 36.3011 203.858 37.7727L200.017 41.9773V43ZM213.5 43.1591C216.068 43.1591 217.545 40.983 217.545 37.1818C217.545 33.4091 216.045 31.2045 213.5 31.2045C210.955 31.2045 209.455 33.4091 209.455 37.1818C209.455 40.983 210.932 43.1591 213.5 43.1591ZM213.5 41.9091C211.807 41.9091 210.818 40.2102 210.818 37.1818C210.818 34.1591 211.818 32.4318 213.5 32.4318C215.182 32.4318 216.182 34.1591 216.182 37.1818C216.182 40.2102 215.193 41.9091 213.5 41.9091Z" fill="#333B69"/>
<path d="M90.8125 43C94.358 43 96.358 40.7955 96.358 37.1591C96.358 33.5455 94.358 31.3636 90.9716 31.3636H87.2216V43H90.8125ZM88.6307 41.75V32.6136H90.8807C93.608 32.6136 94.9943 34.3409 94.9943 37.1591C94.9943 40 93.608 41.75 90.7216 41.75H88.6307ZM102.199 43.1818C103.972 43.1818 105.267 42.2955 105.676 40.9773L104.381 40.6136C104.04 41.5227 103.25 41.9773 102.199 41.9773C100.625 41.9773 99.5398 40.9602 99.4773 39.0909H105.812V38.5227C105.812 35.2727 103.881 34.1591 102.062 34.1591C99.6989 34.1591 98.1307 36.0227 98.1307 38.7045C98.1307 41.3864 99.6761 43.1818 102.199 43.1818ZM99.4773 37.9318C99.5682 36.5739 100.528 35.3636 102.062 35.3636C103.517 35.3636 104.449 36.4545 104.449 37.9318H99.4773ZM108.034 43H109.33V41.6591H109.489C109.784 42.1364 110.352 43.1818 112.034 43.1818C114.216 43.1818 115.739 41.4318 115.739 38.6591C115.739 35.9091 114.216 34.1591 112.011 34.1591C110.307 34.1591 109.784 35.2045 109.489 35.6591H109.375V31.3636H108.034V43ZM109.352 38.6364C109.352 36.6818 110.216 35.3636 111.852 35.3636C113.557 35.3636 114.398 36.7955 114.398 38.6364C114.398 40.5 113.534 41.9773 111.852 41.9773C110.239 41.9773 109.352 40.6136 109.352 38.6364ZM117.79 43H119.131V34.2727H117.79V43ZM118.472 32.8182C118.994 32.8182 119.426 32.4091 119.426 31.9091C119.426 31.4091 118.994 31 118.472 31C117.949 31 117.517 31.4091 117.517 31.9091C117.517 32.4091 117.949 32.8182 118.472 32.8182ZM125.382 34.2727H123.518V32.1818H122.178V34.2727H120.859V35.4091H122.178V40.8636C122.178 42.3864 123.405 43.1136 124.541 43.1136C125.041 43.1136 125.359 43.0227 125.541 42.9545L125.268 41.75C125.155 41.7727 124.973 41.8182 124.678 41.8182C124.087 41.8182 123.518 41.6364 123.518 40.5V35.4091H125.382V34.2727ZM130.964 43.1818C132.737 43.1818 134.033 42.2955 134.442 40.9773L133.146 40.6136C132.805 41.5227 132.016 41.9773 130.964 41.9773C129.391 41.9773 128.305 40.9602 128.243 39.0909H134.578V38.5227C134.578 35.2727 132.646 34.1591 130.828 34.1591C128.464 34.1591 126.896 36.0227 126.896 38.7045C126.896 41.3864 128.442 43.1818 130.964 43.1818ZM128.243 37.9318C128.334 36.5739 129.294 35.3636 130.828 35.3636C132.283 35.3636 133.214 36.4545 133.214 37.9318H128.243ZM139.913 43.1818C141.595 43.1818 142.163 42.1364 142.459 41.6591H142.618V43H143.913V31.3636H142.572V35.6591H142.459C142.163 35.2045 141.641 34.1591 139.936 34.1591C137.732 34.1591 136.209 35.9091 136.209 38.6591C136.209 41.4318 137.732 43.1818 139.913 43.1818ZM140.095 41.9773C138.413 41.9773 137.55 40.5 137.55 38.6364C137.55 36.7955 138.391 35.3636 140.095 35.3636C141.732 35.3636 142.595 36.6818 142.595 38.6364C142.595 40.6136 141.709 41.9773 140.095 41.9773ZM154.351 43.1591C155.419 43.1591 156.612 42.7841 157.368 42.0114L158.192 43H159.805L158.197 41.0398C158.635 40.4773 159.124 39.5341 159.124 37.9091H157.828C157.828 38.7045 157.646 39.4091 157.345 39.9943L154.817 36.9091L155.669 36.2727C156.624 35.5682 157.214 34.7955 157.214 33.6818C157.214 32.3864 156.146 31.25 154.396 31.25C152.692 31.25 151.578 32.3182 151.578 33.8864C151.578 34.9205 152.141 35.7159 152.942 36.6818C151.584 37.625 150.646 38.5 150.646 39.9091C150.646 41.7955 152.055 43.1591 154.351 43.1591ZM156.567 41.0398C155.925 41.642 155.112 41.9773 154.305 41.9773C152.919 41.9773 152.01 41 152.01 39.9091C152.01 39.5909 152.305 38.7727 153.351 38L153.783 37.6818L156.567 41.0398ZM153.993 35.9091C153.425 35.2159 152.942 34.5568 152.942 33.9091C152.942 33.1818 153.555 32.4091 154.442 32.4091C155.283 32.4091 155.851 33.0909 155.851 33.6818C155.851 34.4773 155.419 34.9091 154.76 35.3409L153.993 35.9091ZM233.773 35C233.341 32.6136 231.432 31.2045 229.091 31.2045C226.114 31.2045 223.955 33.5 223.955 37.1818C223.955 40.8636 226.114 43.1591 229.091 43.1591C231.432 43.1591 233.341 41.75 233.773 39.3636H232.364C232.023 40.9773 230.636 41.8409 229.091 41.8409C226.977 41.8409 225.318 40.2045 225.318 37.1818C225.318 34.1591 226.977 32.5227 229.091 32.5227C230.636 32.5227 232.023 33.3864 232.364 35H233.773ZM235.868 43H237.209V37.4773C237.209 36.2955 238.141 35.4318 239.413 35.4318C239.771 35.4318 240.141 35.5 240.232 35.5227V34.1591C240.078 34.1477 239.726 34.1364 239.527 34.1364C238.482 34.1364 237.572 34.7273 237.254 35.5909H237.163V34.2727H235.868V43ZM245.214 43.1818C246.987 43.1818 248.283 42.2955 248.692 40.9773L247.396 40.6136C247.055 41.5227 246.266 41.9773 245.214 41.9773C243.641 41.9773 242.555 40.9602 242.493 39.0909H248.828V38.5227C248.828 35.2727 246.896 34.1591 245.078 34.1591C242.714 34.1591 241.146 36.0227 241.146 38.7045C241.146 41.3864 242.692 43.1818 245.214 43.1818ZM242.493 37.9318C242.584 36.5739 243.544 35.3636 245.078 35.3636C246.533 35.3636 247.464 36.4545 247.464 37.9318H242.493ZM254.163 43.1818C255.845 43.1818 256.413 42.1364 256.709 41.6591H256.868V43H258.163V31.3636H256.822V35.6591H256.709C256.413 35.2045 255.891 34.1591 254.186 34.1591C251.982 34.1591 250.459 35.9091 250.459 38.6591C250.459 41.4318 251.982 43.1818 254.163 43.1818ZM254.345 41.9773C252.663 41.9773 251.8 40.5 251.8 38.6364C251.8 36.7955 252.641 35.3636 254.345 35.3636C255.982 35.3636 256.845 36.6818 256.845 38.6364C256.845 40.6136 255.959 41.9773 254.345 41.9773ZM260.805 43H262.146V34.2727H260.805V43ZM261.487 32.8182C262.01 32.8182 262.442 32.4091 262.442 31.9091C262.442 31.4091 262.01 31 261.487 31C260.964 31 260.533 31.4091 260.533 31.9091C260.533 32.4091 260.964 32.8182 261.487 32.8182ZM268.398 34.2727H266.534V32.1818H265.193V34.2727H263.875V35.4091H265.193V40.8636C265.193 42.3864 266.42 43.1136 267.557 43.1136C268.057 43.1136 268.375 43.0227 268.557 42.9545L268.284 41.75C268.17 41.7727 267.989 41.8182 267.693 41.8182C267.102 41.8182 266.534 41.6364 266.534 40.5V35.4091H268.398V34.2727ZM273.98 43.1818C275.753 43.1818 277.048 42.2955 277.457 40.9773L276.162 40.6136C275.821 41.5227 275.031 41.9773 273.98 41.9773C272.406 41.9773 271.321 40.9602 271.259 39.0909H277.594V38.5227C277.594 35.2727 275.662 34.1591 273.844 34.1591C271.48 34.1591 269.912 36.0227 269.912 38.7045C269.912 41.3864 271.457 43.1818 273.98 43.1818ZM271.259 37.9318C271.349 36.5739 272.31 35.3636 273.844 35.3636C275.298 35.3636 276.23 36.4545 276.23 37.9318H271.259ZM282.929 43.1818C284.611 43.1818 285.179 42.1364 285.474 41.6591H285.634V43H286.929V31.3636H285.588V35.6591H285.474C285.179 35.2045 284.656 34.1591 282.952 34.1591C280.747 34.1591 279.224 35.9091 279.224 38.6591C279.224 41.4318 280.747 43.1818 282.929 43.1818ZM283.111 41.9773C281.429 41.9773 280.565 40.5 280.565 38.6364C280.565 36.7955 281.406 35.3636 283.111 35.3636C284.747 35.3636 285.611 36.6818 285.611 38.6364C285.611 40.6136 284.724 41.9773 283.111 41.9773ZM294.071 43H295.412V34.2727H294.071V43ZM294.753 32.8182C295.276 32.8182 295.707 32.4091 295.707 31.9091C295.707 31.4091 295.276 31 294.753 31C294.23 31 293.798 31.4091 293.798 31.9091C293.798 32.4091 294.23 32.8182 294.753 32.8182ZM299.209 37.75C299.209 36.2273 300.152 35.3636 301.436 35.3636C302.68 35.3636 303.436 36.1761 303.436 37.5455V43H304.777V37.4545C304.777 35.2273 303.589 34.1591 301.822 34.1591C300.504 34.1591 299.686 34.75 299.277 35.6364H299.163V34.2727H297.868V43H299.209V37.75ZM315.523 34.2727H313.659V32.1818H312.318V34.2727H311V35.4091H312.318V40.8636C312.318 42.3864 313.545 43.1136 314.682 43.1136C315.182 43.1136 315.5 43.0227 315.682 42.9545L315.409 41.75C315.295 41.7727 315.114 41.8182 314.818 41.8182C314.227 41.8182 313.659 41.6364 313.659 40.5V35.4091H315.523V34.2727ZM319.068 37.75C319.068 36.2273 320.04 35.3636 321.364 35.3636C322.625 35.3636 323.386 36.1591 323.386 37.5455V43H324.727V37.4545C324.727 35.2102 323.534 34.1591 321.75 34.1591C320.375 34.1591 319.591 34.733 319.182 35.6364H319.068V31.3636H317.727V43H319.068V37.75ZM327.18 43H328.521V34.2727H327.18V43ZM327.862 32.8182C328.385 32.8182 328.817 32.4091 328.817 31.9091C328.817 31.4091 328.385 31 327.862 31C327.339 31 326.908 31.4091 326.908 31.9091C326.908 32.4091 327.339 32.8182 327.862 32.8182ZM337.159 36.2273C336.739 34.9886 335.795 34.1591 334.068 34.1591C332.227 34.1591 330.864 35.2045 330.864 36.6818C330.864 37.8864 331.58 38.6932 333.182 39.0682L334.636 39.4091C335.517 39.6136 335.932 40.0341 335.932 40.6364C335.932 41.3864 335.136 42 333.886 42C332.79 42 332.102 41.5284 331.864 40.5909L330.591 40.9091C330.903 42.392 332.125 43.1818 333.909 43.1818C335.938 43.1818 337.318 42.0739 337.318 40.5682C337.318 39.3523 336.557 38.5852 335 38.2045L333.705 37.8864C332.67 37.6307 332.205 37.2841 332.205 36.6136C332.205 35.8636 333 35.3182 334.068 35.3182C335.239 35.3182 335.722 35.9659 335.955 36.5682L337.159 36.2273ZM346.132 43H347.587L350.155 33.7273H350.246L352.814 43H354.268L357.45 31.3636H356.018L353.587 40.8409H353.473L350.996 31.3636H349.405L346.928 40.8409H346.814L344.382 31.3636H342.95L346.132 43ZM361.871 43.1818C363.643 43.1818 364.939 42.2955 365.348 40.9773L364.053 40.6136C363.712 41.5227 362.922 41.9773 361.871 41.9773C360.297 41.9773 359.212 40.9602 359.149 39.0909H365.484V38.5227C365.484 35.2727 363.553 34.1591 361.734 34.1591C359.371 34.1591 357.803 36.0227 357.803 38.7045C357.803 41.3864 359.348 43.1818 361.871 43.1818ZM359.149 37.9318C359.24 36.5739 360.2 35.3636 361.734 35.3636C363.189 35.3636 364.121 36.4545 364.121 37.9318H359.149ZM371.183 43.1818C372.956 43.1818 374.251 42.2955 374.661 40.9773L373.365 40.6136C373.024 41.5227 372.234 41.9773 371.183 41.9773C369.609 41.9773 368.524 40.9602 368.462 39.0909H374.797V38.5227C374.797 35.2727 372.865 34.1591 371.047 34.1591C368.683 34.1591 367.115 36.0227 367.115 38.7045C367.115 41.3864 368.661 43.1818 371.183 43.1818ZM368.462 37.9318C368.553 36.5739 369.513 35.3636 371.047 35.3636C372.501 35.3636 373.433 36.4545 373.433 37.9318H368.462ZM376.837 43H378.178V39.733L379.115 38.8636L382.382 43H384.087L380.126 38L383.814 34.2727H382.155L378.337 38.1591H378.178V31.3636H376.837V43Z" fill="#718EBF"/>
<rect x="30" y="173" width="30" height="135" rx="10" fill="#1A16F3"/>
<rect x="70" y="74" width="30" height="234" rx="10" fill="#FCAA0B"/>
<rect x="130" y="202" width="30" height="106" rx="10" fill="#1A16F3"/>
<rect x="170" y="122" width="30" height="186" rx="10" fill="#FCAA0B"/>
<rect x="230" y="206" width="30" height="102" rx="10" fill="#1A16F3"/>
<rect x="270" y="169" width="30" height="139" rx="10" fill="#FCAA0B"/>
<rect x="330" y="96" width="30" height="212" rx="10" fill="#1A16F3"/>
<rect x="370" y="185" width="30" height="123" rx="10" fill="#FCAA0B"/>
<rect x="430" y="158" width="30" height="150" rx="10" fill="#1A16F3"/>
<rect x="470" y="94" width="30" height="214" rx="10" fill="#FCAA0B"/>
<rect x="530" y="150" width="30" height="158" rx="10" fill="#1A16F3"/>
<rect x="570" y="203" width="30" height="105" rx="10" fill="#FCAA0B"/>
<rect x="630" y="129" width="30" height="179" rx="10" fill="#1A16F3"/>
<rect x="670" y="92" width="30" height="216" rx="10" fill="#FCAA0B"/>
<path d="M60.85 326.364H62.0431C61.9885 324.827 60.5716 323.679 58.6028 323.679C56.6539 323.679 55.1227 324.812 55.1227 326.523C55.1227 327.895 56.117 328.71 57.7079 329.168L58.9608 329.526C60.0346 329.824 60.9892 330.202 60.9892 331.216C60.9892 332.33 59.9153 333.065 58.5034 333.065C57.2903 333.065 56.2164 332.528 56.117 331.375H54.8443C54.9636 333.045 56.3159 334.179 58.5034 334.179C60.85 334.179 62.1824 332.886 62.1824 331.236C62.1824 329.327 60.3727 328.71 59.3187 328.432L58.2846 328.153C57.5289 327.955 56.3159 327.557 56.3159 326.463C56.3159 325.489 57.2108 324.773 58.563 324.773C59.796 324.773 60.7306 325.359 60.85 326.364ZM66.2976 334.179C67.63 334.179 68.326 333.463 68.5646 332.966H68.6243V334H69.7976V328.969C69.7976 326.543 67.9482 326.264 66.9737 326.264C65.8203 326.264 64.5078 326.662 63.9112 328.054L65.0249 328.452C65.2834 327.895 65.8949 327.298 67.0135 327.298C68.0923 327.298 68.6243 327.87 68.6243 328.849V328.889C68.6243 329.456 68.0476 329.406 66.6555 329.585C65.2386 329.769 63.6925 330.082 63.6925 331.832C63.6925 333.324 64.8459 334.179 66.2976 334.179ZM66.4766 333.125C65.5419 333.125 64.8658 332.707 64.8658 331.892C64.8658 330.997 65.6811 330.719 66.5959 330.599C67.093 330.54 68.4254 330.401 68.6243 330.162V331.236C68.6243 332.19 67.8686 333.125 66.4766 333.125ZM75.2601 326.364H73.6294V324.534H72.4561V326.364H71.3027V327.358H72.4561V332.131C72.4561 333.463 73.53 334.099 74.5243 334.099C74.9618 334.099 75.2402 334.02 75.3993 333.96L75.1607 332.906C75.0613 332.926 74.9022 332.966 74.6436 332.966C74.1266 332.966 73.6294 332.807 73.6294 331.812V327.358H75.2601V326.364Z" fill="#718EBF"/>
<path d="M159.175 326.364H160.368C160.314 324.827 158.897 323.679 156.928 323.679C154.979 323.679 153.448 324.812 153.448 326.523C153.448 327.895 154.442 328.71 156.033 329.168L157.286 329.526C158.36 329.824 159.314 330.202 159.314 331.216C159.314 332.33 158.241 333.065 156.829 333.065C155.616 333.065 154.542 332.528 154.442 331.375H153.169C153.289 333.045 154.641 334.179 156.829 334.179C159.175 334.179 160.508 332.886 160.508 331.236C160.508 329.327 158.698 328.71 157.644 328.432L156.61 328.153C155.854 327.955 154.641 327.557 154.641 326.463C154.641 325.489 155.536 324.773 156.888 324.773C158.121 324.773 159.056 325.359 159.175 326.364ZM167.188 330.878C167.188 332.31 166.094 332.966 165.219 332.966C164.245 332.966 163.549 332.25 163.549 331.136V326.364H162.376V331.216C162.376 333.165 163.41 334.099 164.842 334.099C165.995 334.099 166.751 333.483 167.109 332.707H167.188V334H168.361V326.364H167.188V330.878ZM171.684 329.406C171.684 328.074 172.509 327.318 173.633 327.318C174.721 327.318 175.383 328.029 175.383 329.227V334H176.556V329.148C176.556 327.199 175.517 326.264 173.971 326.264C172.817 326.264 172.101 326.781 171.743 327.557H171.644V326.364H170.51V334H171.684V329.406Z" fill="#718EBF"/>
<path d="M252.234 323.818V334H253.387V326.264H253.487L256.669 334H257.782L260.964 326.264H261.063V334H262.217V323.818H260.745L257.285 332.27H257.166L253.706 323.818H252.234ZM267.632 334.159C269.7 334.159 271.092 332.588 271.092 330.222C271.092 327.835 269.7 326.264 267.632 326.264C265.564 326.264 264.172 327.835 264.172 330.222C264.172 332.588 265.564 334.159 267.632 334.159ZM267.632 333.105C266.061 333.105 265.345 331.753 265.345 330.222C265.345 328.69 266.061 327.318 267.632 327.318C269.203 327.318 269.919 328.69 269.919 330.222C269.919 331.753 269.203 333.105 267.632 333.105ZM274.057 329.406C274.057 328.074 274.882 327.318 276.006 327.318C277.094 327.318 277.756 328.029 277.756 329.227V334H278.929V329.148C278.929 327.199 277.89 326.264 276.344 326.264C275.19 326.264 274.474 326.781 274.116 327.557H274.017V326.364H272.883V334H274.057V329.406Z" fill="#718EBF"/>
<path d="M354.063 324.912H357.265V334H358.498V324.912H361.699V323.818H354.063V324.912ZM367.216 330.878C367.216 332.31 366.123 332.966 365.248 332.966C364.273 332.966 363.577 332.25 363.577 331.136V326.364H362.404V331.216C362.404 333.165 363.438 334.099 364.87 334.099C366.023 334.099 366.779 333.483 367.137 332.707H367.216V334H368.39V326.364H367.216V330.878ZM373.74 334.159C375.292 334.159 376.425 333.384 376.783 332.23L375.65 331.912C375.351 332.707 374.66 333.105 373.74 333.105C372.363 333.105 371.414 332.215 371.359 330.58H376.902V330.082C376.902 327.239 375.212 326.264 373.621 326.264C371.553 326.264 370.181 327.895 370.181 330.241C370.181 332.588 371.533 334.159 373.74 334.159ZM371.359 329.565C371.439 328.377 372.279 327.318 373.621 327.318C374.894 327.318 375.709 328.273 375.709 329.565H371.359Z" fill="#718EBF"/>
<path d="M552.982 324.912H556.184V334H557.416V324.912H560.618V323.818H552.982V324.912ZM563.535 329.406C563.535 328.074 564.385 327.318 565.544 327.318C566.647 327.318 567.314 328.014 567.314 329.227V334H568.487V329.148C568.487 327.184 567.443 326.264 565.882 326.264C564.679 326.264 563.993 326.766 563.635 327.557H563.535V323.818H562.362V334H563.535V329.406ZM575.446 330.878C575.446 332.31 574.352 332.966 573.477 332.966C572.503 332.966 571.807 332.25 571.807 331.136V326.364H570.633V331.216C570.633 333.165 571.668 334.099 573.099 334.099C574.253 334.099 575.008 333.483 575.366 332.707H575.446V334H576.619V326.364H575.446V330.878Z" fill="#718EBF"/>
<path d="M658.4 334H659.633V329.446H664.048V328.352H659.633V324.912H664.505V323.818H658.4V334ZM666.376 334H667.549V329.168C667.549 328.134 668.364 327.378 669.478 327.378C669.791 327.378 670.114 327.438 670.194 327.457V326.264C670.06 326.254 669.751 326.244 669.577 326.244C668.663 326.244 667.867 326.761 667.589 327.517H667.509V326.364H666.376V334ZM671.585 334H672.758V326.364H671.585V334ZM672.181 325.091C672.639 325.091 673.016 324.733 673.016 324.295C673.016 323.858 672.639 323.5 672.181 323.5C671.724 323.5 671.346 323.858 671.346 324.295C671.346 324.733 671.724 325.091 672.181 325.091Z" fill="#718EBF"/>
<path d="M453.371 334H454.644L456.891 325.886H456.971L459.218 334H460.491L463.275 323.818H462.022L459.894 332.111H459.795L457.627 323.818H456.235L454.067 332.111H453.968L451.84 323.818H450.587L453.371 334ZM467.143 334.159C468.694 334.159 469.827 333.384 470.185 332.23L469.052 331.912C468.754 332.707 468.062 333.105 467.143 333.105C465.766 333.105 464.816 332.215 464.761 330.58H470.305V330.082C470.305 327.239 468.614 326.264 467.023 326.264C464.955 326.264 463.583 327.895 463.583 330.241C463.583 332.588 464.935 334.159 467.143 334.159ZM464.761 329.565C464.841 328.377 465.681 327.318 467.023 327.318C468.296 327.318 469.112 328.273 469.112 329.565H464.761ZM474.973 334.159C476.445 334.159 476.942 333.244 477.2 332.827H477.339V334H478.473V323.818H477.3V327.577H477.2C476.942 327.179 476.484 326.264 474.993 326.264C473.064 326.264 471.732 327.795 471.732 330.202C471.732 332.628 473.064 334.159 474.973 334.159ZM475.132 333.105C473.661 333.105 472.905 331.812 472.905 330.182C472.905 328.571 473.641 327.318 475.132 327.318C476.564 327.318 477.32 328.472 477.32 330.182C477.32 331.912 476.544 333.105 475.132 333.105Z" fill="#718EBF"/>
<g filter="url(#filter0_i_101_341)">
<rect x="537" y="30" width="15" height="15" rx="5" fill="#4C78FF"/>
</g>
<path d="M567 43C570.545 43 572.545 40.7955 572.545 37.1591C572.545 33.5455 570.545 31.3636 567.159 31.3636H563.409V43H567ZM564.818 41.75V32.6136H567.068C569.795 32.6136 571.182 34.3409 571.182 37.1591C571.182 40 569.795 41.75 566.909 41.75H564.818ZM578.386 43.1818C580.159 43.1818 581.455 42.2955 581.864 40.9773L580.568 40.6136C580.227 41.5227 579.438 41.9773 578.386 41.9773C576.812 41.9773 575.727 40.9602 575.665 39.0909H582V38.5227C582 35.2727 580.068 34.1591 578.25 34.1591C575.886 34.1591 574.318 36.0227 574.318 38.7045C574.318 41.3864 575.864 43.1818 578.386 43.1818ZM575.665 37.9318C575.756 36.5739 576.716 35.3636 578.25 35.3636C579.705 35.3636 580.636 36.4545 580.636 37.9318H575.665ZM584.222 43H585.517V41.6591H585.676C585.972 42.1364 586.54 43.1818 588.222 43.1818C590.403 43.1818 591.926 41.4318 591.926 38.6591C591.926 35.9091 590.403 34.1591 588.199 34.1591C586.494 34.1591 585.972 35.2045 585.676 35.6591H585.562V31.3636H584.222V43ZM585.54 38.6364C585.54 36.6818 586.403 35.3636 588.04 35.3636C589.744 35.3636 590.585 36.7955 590.585 38.6364C590.585 40.5 589.722 41.9773 588.04 41.9773C586.426 41.9773 585.54 40.6136 585.54 38.6364ZM593.977 43H595.318V34.2727H593.977V43ZM594.659 32.8182C595.182 32.8182 595.614 32.4091 595.614 31.9091C595.614 31.4091 595.182 31 594.659 31C594.136 31 593.705 31.4091 593.705 31.9091C593.705 32.4091 594.136 32.8182 594.659 32.8182ZM601.57 34.2727H599.706V32.1818H598.365V34.2727H597.047V35.4091H598.365V40.8636C598.365 42.3864 599.592 43.1136 600.729 43.1136C601.229 43.1136 601.547 43.0227 601.729 42.9545L601.456 41.75C601.342 41.7727 601.161 41.8182 600.865 41.8182C600.274 41.8182 599.706 41.6364 599.706 40.5V35.4091H601.57V34.2727Z" fill="#718EBF"/>
<g filter="url(#filter1_i_101_341)">
<rect x="628" y="30" width="15" height="15" rx="5" fill="#FF82AC"/>
</g>
<path d="M663.773 35C663.341 32.6136 661.432 31.2045 659.091 31.2045C656.114 31.2045 653.955 33.5 653.955 37.1818C653.955 40.8636 656.114 43.1591 659.091 43.1591C661.432 43.1591 663.341 41.75 663.773 39.3636H662.364C662.023 40.9773 660.636 41.8409 659.091 41.8409C656.977 41.8409 655.318 40.2045 655.318 37.1818C655.318 34.1591 656.977 32.5227 659.091 32.5227C660.636 32.5227 662.023 33.3864 662.364 35H663.773ZM665.868 43H667.209V37.4773C667.209 36.2955 668.141 35.4318 669.413 35.4318C669.771 35.4318 670.141 35.5 670.232 35.5227V34.1591C670.078 34.1477 669.726 34.1364 669.527 34.1364C668.482 34.1364 667.572 34.7273 667.254 35.5909H667.163V34.2727H665.868V43ZM675.214 43.1818C676.987 43.1818 678.283 42.2955 678.692 40.9773L677.396 40.6136C677.055 41.5227 676.266 41.9773 675.214 41.9773C673.641 41.9773 672.555 40.9602 672.493 39.0909H678.828V38.5227C678.828 35.2727 676.896 34.1591 675.078 34.1591C672.714 34.1591 671.146 36.0227 671.146 38.7045C671.146 41.3864 672.692 43.1818 675.214 43.1818ZM672.493 37.9318C672.584 36.5739 673.544 35.3636 675.078 35.3636C676.533 35.3636 677.464 36.4545 677.464 37.9318H672.493ZM684.163 43.1818C685.845 43.1818 686.413 42.1364 686.709 41.6591H686.868V43H688.163V31.3636H686.822V35.6591H686.709C686.413 35.2045 685.891 34.1591 684.186 34.1591C681.982 34.1591 680.459 35.9091 680.459 38.6591C680.459 41.4318 681.982 43.1818 684.163 43.1818ZM684.345 41.9773C682.663 41.9773 681.8 40.5 681.8 38.6364C681.8 36.7955 682.641 35.3636 684.345 35.3636C685.982 35.3636 686.845 36.6818 686.845 38.6364C686.845 40.6136 685.959 41.9773 684.345 41.9773ZM690.805 43H692.146V34.2727H690.805V43ZM691.487 32.8182C692.01 32.8182 692.442 32.4091 692.442 31.9091C692.442 31.4091 692.01 31 691.487 31C690.964 31 690.533 31.4091 690.533 31.9091C690.533 32.4091 690.964 32.8182 691.487 32.8182ZM698.398 34.2727H696.534V32.1818H695.193V34.2727H693.875V35.4091H695.193V40.8636C695.193 42.3864 696.42 43.1136 697.557 43.1136C698.057 43.1136 698.375 43.0227 698.557 42.9545L698.284 41.75C698.17 41.7727 697.989 41.8182 697.693 41.8182C697.102 41.8182 696.534 41.6364 696.534 40.5V35.4091H698.398V34.2727Z" fill="#718EBF"/>
<defs>
<filter id="filter0_i_101_341" x="537" y="30" width="15" height="15" filterUnits="userSpaceOnUse" color-interpolation-filters="sRGB">
<feFlood flood-opacity="0" result="BackgroundImageFix"/>
<feBlend mode="normal" in="SourceGraphic" in2="BackgroundImageFix" result="shape"/>
<feColorMatrix in="SourceAlpha" type="matrix" values="0 0 0 0 0 0 0 0 0 0 0 0 0 0 0 0 0 0 127 0" result="hardAlpha"/>
<feOffset/>
<feGaussianBlur stdDeviation="7.5"/>
<feComposite in2="hardAlpha" operator="arithmetic" k2="-1" k3="1"/>
<feColorMatrix type="matrix" values="0 0 0 0 0.0672743 0 0 0 0 0.203342 0 0 0 0 0.520833 0 0 0 0.5 0"/>
<feBlend mode="normal" in2="shape" result="effect1_innerShadow_101_341"/>
</filter>
<filter id="filter1_i_101_341" x="628" y="30" width="15" height="15" filterUnits="userSpaceOnUse" color-interpolation-filters="sRGB">
<feFlood flood-opacity="0" result="BackgroundImageFix"/>
<feBlend mode="normal" in="SourceGraphic" in2="BackgroundImageFix" result="shape"/>
<feColorMatrix in="SourceAlpha" type="matrix" values="0 0 0 0 0 0 0 0 0 0 0 0 0 0 0 0 0 0 127 0" result="hardAlpha"/>
<feOffset/>
<feGaussianBlur stdDeviation="7.5"/>
<feComposite in2="hardAlpha" operator="arithmetic" k2="-1" k3="1"/>
<feColorMatrix type="matrix" values="0 0 0 0 0.675 0 0 0 0 0.050625 0 0 0 0 0.42301 0 0 0 0.5 0"/>
<feBlend mode="normal" in2="shape" result="effect1_innerShadow_101_341"/>
</filter>
</defs>
</svg>
