<svg width="55" height="55" viewBox="0 0 55 55" fill="none" xmlns="http://www.w3.org/2000/svg">
<rect width="55" height="55" rx="20" fill="#E7EDFF"/>
<g clip-path="url(#clip0_105_391)">
<path d="M19.209 36.5226C19.6135 36.5226 19.9414 36.1947 19.9414 35.7902C19.9414 35.3857 19.6135 35.0577 19.209 35.0577C18.8045 35.0577 18.4766 35.3857 18.4766 35.7902C18.4766 36.1947 18.8045 36.5226 19.209 36.5226Z" fill="#396AFF"/>
<path d="M34.8337 27.0366C36.1271 26.8463 37.3007 26.2558 38.2275 25.329C39.1099 24.4467 39.6907 23.3328 39.907 22.1078C40.1183 20.9114 39.9697 19.6944 39.4773 18.5886C39.2684 18.1195 38.653 18.0057 38.2903 18.3686L35.2899 21.3689C35.166 21.4927 34.9646 21.4927 34.8407 21.3689L33.6309 20.1592C33.5073 20.0355 33.5073 19.8344 33.6309 19.7107L36.6317 16.71C36.9948 16.347 36.8804 15.7318 36.4117 15.5231C35.3058 15.0306 34.0888 14.882 32.8923 15.0933C31.6673 15.3096 30.5534 15.8904 29.671 16.7728C28.7442 17.6996 28.1536 18.8731 27.9634 20.1665C27.8063 21.2339 27.9316 22.3018 28.3255 23.2884L26.1284 25.0932L21.222 20.1869L22.0852 19.3238C22.3945 19.0145 22.3653 18.5037 22.0221 18.2318L18.7012 15.6015C18.4097 15.3707 17.9914 15.3949 17.7285 15.6578L15.6569 17.7293C15.394 17.9922 15.3698 18.4104 15.6007 18.7019L18.231 22.0226C18.5029 22.3659 19.0134 22.3954 19.3231 22.0858L20.1862 21.2226L24.9911 26.0273L15.972 33.4358C14.7713 34.3855 14.6677 36.1723 15.7499 37.2545L17.745 39.2496C18.8272 40.3316 20.6139 40.2284 21.5639 39.0275L28.9726 30.0087L29.7169 30.753L28.6464 31.8234C28.3712 32.0985 28.3593 32.5407 28.619 32.8303L34.2003 39.0527C35.298 40.2709 37.1915 40.3216 38.3522 39.1609L39.1607 38.3523C40.3239 37.1893 40.2687 35.2821 39.0394 34.1883C39.0388 34.1879 39.0384 34.1874 39.0379 34.187L32.7868 28.6558C32.4969 28.3993 32.0574 28.4126 31.7835 28.6864L30.7526 29.7172L29.9068 28.8715L31.7117 26.6745C32.6983 27.0683 33.7662 27.1936 34.8337 27.0366ZM18.8687 20.4686L17.1539 18.3037L18.303 17.1548L20.4679 18.8695L18.8687 20.4686ZM32.3321 30.2093L38.0662 35.2831C38.3566 35.5416 38.5228 35.898 38.5342 36.2867C38.5455 36.6757 38.4002 37.0414 38.125 37.3166L37.3165 38.1251C37.0425 38.3991 36.6784 38.5447 36.2914 38.5343C35.9042 38.5242 35.5481 38.3602 35.2898 38.0734L30.1727 32.3686L32.3321 30.2093ZM30.9372 25.3096L28.3518 28.4568C28.3514 28.4572 28.3511 28.4577 28.3508 28.458L20.4274 38.1034C20.424 38.1075 20.4206 38.1117 20.4173 38.1159C20.0113 38.6329 19.2468 38.6797 18.7808 38.2138L16.7857 36.2187C16.3209 35.754 16.3655 34.9893 16.8837 34.5824C16.8879 34.5791 16.8921 34.5757 16.8962 34.5723L26.542 26.6491C26.5423 26.6488 26.5425 26.6486 26.5428 26.6484L29.6904 24.0629C29.9576 23.8434 30.0348 23.4669 29.8757 23.1599C28.9526 21.3792 29.2866 19.2287 30.7068 17.8085C31.5814 16.934 32.7654 16.4692 33.9627 16.4692C34.2207 16.4692 34.4793 16.4908 34.7356 16.5345L32.5951 18.6749C31.9004 19.3697 31.9004 20.5001 32.5951 21.1949L33.8049 22.4046C34.4998 23.0995 35.6307 23.0996 36.3257 22.4046L38.4658 20.2646C38.7123 21.71 38.2547 23.2303 37.1917 24.2932C35.7715 25.7134 33.6209 26.0473 31.8402 25.1243C31.5332 24.9651 31.1567 25.0424 30.9372 25.3096Z" fill="#396AFF"/>
</g>
<defs>
<clipPath id="clip0_105_391">
<rect width="25" height="25" fill="white" transform="translate(15 15)"/>
</clipPath>
</defs>
</svg>
