<svg width="540" height="282" viewBox="0 0 540 282" fill="none" xmlns="http://www.w3.org/2000/svg">
<rect width="540" height="282" rx="25" fill="white"/>
<path d="M96.403 251H102.367V249.984H97.9726V249.911L100.096 247.639C101.721 245.899 102.201 245.086 102.201 244.038C102.201 242.58 101.019 241.416 99.3576 241.416C97.7002 241.416 96.4399 242.543 96.4399 244.205H97.5294C97.5294 243.129 98.2265 242.413 99.3206 242.413C100.345 242.413 101.13 243.041 101.13 244.038C101.13 244.911 100.618 245.557 99.5237 246.753L96.403 250.169V251ZM107.358 251.129C109.445 251.129 110.645 249.361 110.645 246.273C110.645 243.207 109.426 241.416 107.358 241.416C105.29 241.416 104.071 243.207 104.071 246.273C104.071 249.361 105.271 251.129 107.358 251.129ZM107.358 250.114C105.982 250.114 105.179 248.733 105.179 246.273C105.179 243.817 105.991 242.413 107.358 242.413C108.724 242.413 109.537 243.817 109.537 246.273C109.537 248.733 108.734 250.114 107.358 250.114ZM115.723 241.545H114.578L112.214 243.115V244.278L114.523 242.746H114.578V251H115.723V241.545ZM121.581 251.129C123.492 251.152 124.739 249.712 124.739 247.953C124.739 246.125 123.386 244.814 121.766 244.814C120.792 244.814 119.956 245.289 119.439 246.07H119.365C119.37 243.766 120.266 242.432 121.729 242.432C122.726 242.432 123.326 243.06 123.539 243.909H124.665C124.434 242.441 123.317 241.416 121.729 241.416C119.601 241.416 118.294 243.3 118.294 246.642C118.294 250.137 120.03 251.111 121.581 251.129ZM121.581 250.114C120.395 250.114 119.527 249.103 119.532 247.972C119.536 246.841 120.446 245.83 121.618 245.83C122.777 245.83 123.631 246.781 123.631 247.953C123.631 249.153 122.74 250.114 121.581 250.114Z" fill="#718EBF"/>
<path d="M171.246 251H177.21V249.984H172.815V249.911L174.939 247.639C176.564 245.899 177.044 245.086 177.044 244.038C177.044 242.58 175.862 241.416 174.2 241.416C172.543 241.416 171.283 242.543 171.283 244.205H172.372C172.372 243.129 173.069 242.413 174.163 242.413C175.188 242.413 175.973 243.041 175.973 244.038C175.973 244.911 175.461 245.557 174.367 246.753L171.246 250.169V251ZM182.201 251.129C184.287 251.129 185.488 249.361 185.488 246.273C185.488 243.207 184.269 241.416 182.201 241.416C180.133 241.416 178.914 243.207 178.914 246.273C178.914 249.361 180.114 251.129 182.201 251.129ZM182.201 250.114C180.825 250.114 180.022 248.733 180.022 246.273C180.022 243.817 180.834 242.413 182.201 242.413C183.567 242.413 184.38 243.817 184.38 246.273C184.38 248.733 183.576 250.114 182.201 250.114ZM190.566 241.545H189.421L187.057 243.115V244.278L189.365 242.746H189.421V251H190.566V241.545ZM193.58 251H194.781L198.991 242.616V241.545H192.934V242.561H197.809V242.635L193.58 251Z" fill="#718EBF"/>
<path d="M245.454 251H251.418V249.984H247.023V249.911L249.147 247.639C250.772 245.899 251.252 245.086 251.252 244.038C251.252 242.58 250.07 241.416 248.408 241.416C246.751 241.416 245.491 242.543 245.491 244.205H246.58C246.58 243.129 247.277 242.413 248.371 242.413C249.396 242.413 250.181 243.041 250.181 244.038C250.181 244.911 249.669 245.557 248.575 246.753L245.454 250.169V251ZM256.409 251.129C258.495 251.129 259.696 249.361 259.696 246.273C259.696 243.207 258.477 241.416 256.409 241.416C254.341 241.416 253.122 243.207 253.122 246.273C253.122 249.361 254.322 251.129 256.409 251.129ZM256.409 250.114C255.033 250.114 254.23 248.733 254.23 246.273C254.23 243.817 255.042 242.413 256.409 242.413C257.775 242.413 258.588 243.817 258.588 246.273C258.588 248.733 257.784 250.114 256.409 250.114ZM264.774 241.545H263.629L261.265 243.115V244.278L263.573 242.746H263.629V251H264.774V241.545ZM270.521 251.129C272.409 251.129 273.725 250.026 273.734 248.489C273.725 247.293 272.926 246.277 271.906 246.088V246.033C272.793 245.802 273.374 244.934 273.383 243.928C273.374 242.487 272.165 241.416 270.521 241.416C268.859 241.416 267.65 242.487 267.659 243.928C267.65 244.934 268.231 245.802 269.136 246.033V246.088C268.098 246.277 267.299 247.293 267.308 248.489C267.299 250.026 268.615 251.129 270.521 251.129ZM270.521 250.114C269.224 250.114 268.425 249.449 268.435 248.433C268.425 247.367 269.307 246.605 270.521 246.605C271.717 246.605 272.599 247.367 272.608 248.433C272.599 249.449 271.8 250.114 270.521 250.114ZM270.521 245.626C269.487 245.626 268.758 244.98 268.767 244.001C268.758 243.041 269.459 242.413 270.521 242.413C271.565 242.413 272.266 243.041 272.276 244.001C272.266 244.98 271.537 245.626 270.521 245.626Z" fill="#718EBF"/>
<path d="M320.403 251H326.367V249.984H321.973V249.911L324.096 247.639C325.721 245.899 326.201 245.086 326.201 244.038C326.201 242.58 325.019 241.416 323.358 241.416C321.7 241.416 320.44 242.543 320.44 244.205H321.529C321.529 243.129 322.227 242.413 323.321 242.413C324.345 242.413 325.13 243.041 325.13 244.038C325.13 244.911 324.618 245.557 323.524 246.753L320.403 250.169V251ZM331.358 251.129C333.445 251.129 334.645 249.361 334.645 246.273C334.645 243.207 333.426 241.416 331.358 241.416C329.29 241.416 328.071 243.207 328.071 246.273C328.071 249.361 329.271 251.129 331.358 251.129ZM331.358 250.114C329.982 250.114 329.179 248.733 329.179 246.273C329.179 243.817 329.991 242.413 331.358 242.413C332.724 242.413 333.537 243.817 333.537 246.273C333.537 248.733 332.734 250.114 331.358 250.114ZM339.723 241.545H338.578L336.214 243.115V244.278L338.523 242.746H338.578V251H339.723V241.545ZM345.452 241.416C343.532 241.393 342.294 242.838 342.294 244.574C342.294 246.402 343.642 247.713 345.267 247.713C346.246 247.713 347.077 247.233 347.594 246.457H347.668C347.668 248.784 346.763 250.114 345.304 250.114C344.307 250.114 343.698 249.486 343.495 248.618H342.368C342.59 250.114 343.716 251.129 345.304 251.129C347.428 251.129 348.739 249.246 348.739 245.885C348.739 242.413 347.003 241.435 345.452 241.416ZM345.452 242.432C346.634 242.432 347.502 243.447 347.502 244.555C347.502 245.682 346.578 246.697 345.415 246.697C344.252 246.697 343.402 245.756 343.402 244.574C343.402 243.392 344.289 242.432 345.452 242.432Z" fill="#718EBF"/>
<path d="M394.983 251H400.947V249.984H396.552V249.911L398.676 247.639C400.301 245.899 400.781 245.086 400.781 244.038C400.781 242.58 399.599 241.416 397.937 241.416C396.28 241.416 395.02 242.543 395.02 244.205H396.109C396.109 243.129 396.806 242.413 397.9 242.413C398.925 242.413 399.71 243.041 399.71 244.038C399.71 244.911 399.197 245.557 398.103 246.753L394.983 250.169V251ZM405.938 251.129C408.024 251.129 409.224 249.361 409.224 246.273C409.224 243.207 408.006 241.416 405.938 241.416C403.869 241.416 402.651 243.207 402.651 246.273C402.651 249.361 403.851 251.129 405.938 251.129ZM405.938 250.114C404.562 250.114 403.759 248.733 403.759 246.273C403.759 243.817 404.571 242.413 405.938 242.413C407.304 242.413 408.116 243.817 408.116 246.273C408.116 248.733 407.313 250.114 405.938 250.114ZM410.979 251H416.943V249.984H412.548V249.911L414.672 247.639C416.297 245.899 416.777 245.086 416.777 244.038C416.777 242.58 415.595 241.416 413.933 241.416C412.276 241.416 411.016 242.543 411.016 244.205H412.105C412.105 243.129 412.802 242.413 413.896 242.413C414.921 242.413 415.706 243.041 415.706 244.038C415.706 244.911 415.194 245.557 414.099 246.753L410.979 250.169V251ZM421.934 251.129C424.02 251.129 425.221 249.361 425.221 246.273C425.221 243.207 424.002 241.416 421.934 241.416C419.865 241.416 418.647 243.207 418.647 246.273C418.647 249.361 419.847 251.129 421.934 251.129ZM421.934 250.114C420.558 250.114 419.755 248.733 419.755 246.273C419.755 243.817 420.567 242.413 421.934 242.413C423.3 242.413 424.113 243.817 424.113 246.273C424.113 248.733 423.309 250.114 421.934 250.114Z" fill="#718EBF"/>
<path d="M472.024 251H477.988V249.984H473.593V249.911L475.717 247.639C477.342 245.899 477.822 245.086 477.822 244.038C477.822 242.58 476.64 241.416 474.978 241.416C473.321 241.416 472.061 242.543 472.061 244.205H473.15C473.15 243.129 473.847 242.413 474.941 242.413C475.966 242.413 476.751 243.041 476.751 244.038C476.751 244.911 476.238 245.557 475.144 246.753L472.024 250.169V251ZM482.979 251.129C485.065 251.129 486.265 249.361 486.265 246.273C486.265 243.207 485.047 241.416 482.979 241.416C480.91 241.416 479.692 243.207 479.692 246.273C479.692 249.361 480.892 251.129 482.979 251.129ZM482.979 250.114C481.603 250.114 480.8 248.733 480.8 246.273C480.8 243.817 481.612 242.413 482.979 242.413C484.345 242.413 485.157 243.817 485.157 246.273C485.157 248.733 484.354 250.114 482.979 250.114ZM488.02 251H493.984V249.984H489.589V249.911L491.713 247.639C493.338 245.899 493.818 245.086 493.818 244.038C493.818 242.58 492.636 241.416 490.974 241.416C489.317 241.416 488.057 242.543 488.057 244.205H489.146C489.146 243.129 489.843 242.413 490.937 242.413C491.962 242.413 492.747 243.041 492.747 244.038C492.747 244.911 492.235 245.557 491.14 246.753L488.02 250.169V251ZM499.215 241.545H498.07L495.706 243.115V244.278L498.014 242.746H498.07V251H499.215V241.545Z" fill="#718EBF"/>
<path d="M35.9506 184.182H36.7077V183.152C38.6467 183.018 39.7362 181.874 39.7362 180.433C39.7362 178.661 38.0558 178.088 37.0771 177.83L36.7077 177.728V174.446C37.6864 174.543 38.3974 175.069 38.4989 175.909H39.6069C39.5607 174.561 38.3789 173.536 36.7077 173.425V172.364H35.9506V173.439C34.3672 173.601 33.1808 174.607 33.1808 176.057C33.1808 177.331 34.104 178.088 35.5813 178.513L35.9506 178.619V182.114C34.9812 182.012 34.1871 181.513 34.104 180.562H32.9222C33.0284 182.017 34.1364 183.032 35.9506 183.152V184.182ZM36.7077 182.114V178.836L36.7447 178.845C37.7418 179.122 38.6282 179.473 38.6282 180.415C38.6282 181.343 37.8249 181.989 36.7077 182.114ZM35.9506 177.525C35.2489 177.326 34.2887 176.939 34.2887 176.001C34.2887 175.203 34.935 174.593 35.9506 174.46V177.525ZM44.7762 173.545H43.6313L41.2677 175.115V176.278L43.5759 174.746H43.6313V183H44.7762V173.545ZM50.5791 183.129C52.6657 183.129 53.866 181.361 53.866 178.273C53.866 175.207 52.6473 173.416 50.5791 173.416C48.5109 173.416 47.2922 175.207 47.2922 178.273C47.2922 181.361 48.4925 183.129 50.5791 183.129ZM50.5791 182.114C49.2034 182.114 48.4001 180.733 48.4001 178.273C48.4001 175.817 49.2126 174.413 50.5791 174.413C51.9456 174.413 52.7581 175.817 52.7581 178.273C52.7581 180.733 51.9548 182.114 50.5791 182.114ZM56.9337 181.707H55.7519L55.6965 182.224C55.5626 183.475 55.2994 184.722 55.1794 185.308H56.0104C56.232 184.68 56.7029 183.259 56.8598 182.206L56.9337 181.707ZM61.6875 183.129C63.7741 183.129 64.9744 181.361 64.9744 178.273C64.9744 175.207 63.7557 173.416 61.6875 173.416C59.6193 173.416 58.4006 175.207 58.4006 178.273C58.4006 181.361 59.6009 183.129 61.6875 183.129ZM61.6875 182.114C60.3118 182.114 59.5085 180.733 59.5085 178.273C59.5085 175.817 60.321 174.413 61.6875 174.413C63.054 174.413 63.8665 175.817 63.8665 178.273C63.8665 180.733 63.0632 182.114 61.6875 182.114ZM69.8125 183.129C71.8991 183.129 73.0994 181.361 73.0994 178.273C73.0994 175.207 71.8807 173.416 69.8125 173.416C67.7443 173.416 66.5256 175.207 66.5256 178.273C66.5256 181.361 67.7259 183.129 69.8125 183.129ZM69.8125 182.114C68.4368 182.114 67.6335 180.733 67.6335 178.273C67.6335 175.817 68.446 174.413 69.8125 174.413C71.179 174.413 71.9915 175.817 71.9915 178.273C71.9915 180.733 71.1882 182.114 69.8125 182.114ZM77.9375 183.129C80.0241 183.129 81.2244 181.361 81.2244 178.273C81.2244 175.207 80.0057 173.416 77.9375 173.416C75.8693 173.416 74.6506 175.207 74.6506 178.273C74.6506 181.361 75.8509 183.129 77.9375 183.129ZM77.9375 182.114C76.5618 182.114 75.7585 180.733 75.7585 178.273C75.7585 175.817 76.571 174.413 77.9375 174.413C79.304 174.413 80.1165 175.817 80.1165 178.273C80.1165 180.733 79.3132 182.114 77.9375 182.114Z" fill="#718EBF"/>
<path d="M34.1225 136.182H34.8796V135.152C36.8185 135.018 37.908 133.874 37.908 132.433C37.908 130.661 36.2276 130.088 35.2489 129.83L34.8796 129.728V126.446C35.8583 126.543 36.5692 127.069 36.6708 127.909H37.7788C37.7326 126.561 36.5508 125.536 34.8796 125.425V124.364H34.1225V125.439C32.5391 125.601 31.3526 126.607 31.3526 128.057C31.3526 129.331 32.2759 130.088 33.7532 130.513L34.1225 130.619V134.114C33.1531 134.012 32.359 133.513 32.2759 132.562H31.0941C31.2003 134.017 32.3082 135.032 34.1225 135.152V136.182ZM34.8796 134.114V130.836L34.9165 130.845C35.9137 131.122 36.8001 131.473 36.8001 132.415C36.8001 133.343 35.9968 133.989 34.8796 134.114ZM34.1225 129.525C33.4208 129.326 32.4606 128.939 32.4606 128.001C32.4606 127.203 33.1069 126.593 34.1225 126.46V129.525ZM39.6242 135H45.5887V133.984H41.1938V133.911L43.3174 131.639C44.9424 129.899 45.4225 129.086 45.4225 128.038C45.4225 126.58 44.2407 125.416 42.5787 125.416C40.9214 125.416 39.6611 126.543 39.6611 128.205H40.7506C40.7506 127.129 41.4477 126.413 42.5418 126.413C43.5667 126.413 44.3515 127.041 44.3515 128.038C44.3515 128.911 43.839 129.557 42.7449 130.753L39.6242 134.169V135ZM50.5791 135.129C52.6657 135.129 53.866 133.361 53.866 130.273C53.866 127.207 52.6473 125.416 50.5791 125.416C48.5109 125.416 47.2922 127.207 47.2922 130.273C47.2922 133.361 48.4925 135.129 50.5791 135.129ZM50.5791 134.114C49.2034 134.114 48.4001 132.733 48.4001 130.273C48.4001 127.817 49.2126 126.413 50.5791 126.413C51.9456 126.413 52.7581 127.817 52.7581 130.273C52.7581 132.733 51.9548 134.114 50.5791 134.114ZM56.9337 133.707H55.7519L55.6965 134.224C55.5626 135.475 55.2994 136.722 55.1794 137.308H56.0104C56.232 136.68 56.7029 135.259 56.8598 134.206L56.9337 133.707ZM61.6875 135.129C63.7741 135.129 64.9744 133.361 64.9744 130.273C64.9744 127.207 63.7557 125.416 61.6875 125.416C59.6193 125.416 58.4006 127.207 58.4006 130.273C58.4006 133.361 59.6009 135.129 61.6875 135.129ZM61.6875 134.114C60.3118 134.114 59.5085 132.733 59.5085 130.273C59.5085 127.817 60.321 126.413 61.6875 126.413C63.054 126.413 63.8665 127.817 63.8665 130.273C63.8665 132.733 63.0632 134.114 61.6875 134.114ZM69.8125 135.129C71.8991 135.129 73.0994 133.361 73.0994 130.273C73.0994 127.207 71.8807 125.416 69.8125 125.416C67.7443 125.416 66.5256 127.207 66.5256 130.273C66.5256 133.361 67.7259 135.129 69.8125 135.129ZM69.8125 134.114C68.4368 134.114 67.6335 132.733 67.6335 130.273C67.6335 127.817 68.446 126.413 69.8125 126.413C71.179 126.413 71.9915 127.817 71.9915 130.273C71.9915 132.733 71.1882 134.114 69.8125 134.114ZM77.9375 135.129C80.0241 135.129 81.2244 133.361 81.2244 130.273C81.2244 127.207 80.0057 125.416 77.9375 125.416C75.8693 125.416 74.6506 127.207 74.6506 130.273C74.6506 133.361 75.8509 135.129 77.9375 135.129ZM77.9375 134.114C76.5618 134.114 75.7585 132.733 75.7585 130.273C75.7585 127.817 76.571 126.413 77.9375 126.413C79.304 126.413 80.1165 127.817 80.1165 130.273C80.1165 132.733 79.3132 134.114 77.9375 134.114Z" fill="#718EBF"/>
<path d="M33.7163 88.1818H34.4734V87.1523C36.4123 87.0185 37.5018 85.8736 37.5018 84.4332C37.5018 82.6605 35.8214 82.0881 34.8427 81.8295L34.4734 81.728V78.4457C35.4521 78.5426 36.163 79.0689 36.2646 79.9091H37.3725C37.3263 78.5611 36.1445 77.5362 34.4734 77.4254V76.3636H33.7163V77.4393C32.1328 77.6009 30.9464 78.6072 30.9464 80.0568C30.9464 81.331 31.8697 82.0881 33.3469 82.5128L33.7163 82.619V86.1136C32.7468 86.0121 31.9528 85.5135 31.8697 84.5625H30.6879C30.794 86.0167 31.902 87.0323 33.7163 87.1523V88.1818ZM34.4734 86.1136V82.8359L34.5103 82.8452C35.5075 83.1222 36.3938 83.473 36.3938 84.4148C36.3938 85.3427 35.5906 85.989 34.4734 86.1136ZM33.7163 81.5249C33.0146 81.3263 32.0543 80.9386 32.0543 80.0014C32.0543 79.2028 32.7006 78.5934 33.7163 78.4595V81.5249ZM42.4126 87.1293C44.2453 87.1293 45.6072 85.9798 45.6072 84.4332C45.6072 83.233 44.8962 82.3604 43.7052 82.1619V82.0881C44.6608 81.7972 45.2563 81.0124 45.2563 79.946C45.2563 78.6072 44.1991 77.4162 42.4495 77.4162C40.8153 77.4162 39.458 78.4226 39.4026 79.9091H40.5106C40.5521 78.9673 41.4477 78.4134 42.431 78.4134C43.4743 78.4134 44.1483 79.0458 44.1483 80.0014C44.1483 80.9986 43.3682 81.6449 42.2464 81.6449H41.4893V82.6605H42.2464C43.6821 82.6605 44.4807 83.3899 44.4807 84.4332C44.4807 85.435 43.6082 86.1136 42.3941 86.1136C41.3 86.1136 40.4321 85.5504 40.3628 84.6364H39.1995C39.2687 86.1229 40.5798 87.1293 42.4126 87.1293ZM50.5791 87.1293C52.6657 87.1293 53.866 85.3612 53.866 82.2727C53.866 79.2074 52.6473 77.4162 50.5791 77.4162C48.5109 77.4162 47.2922 79.2074 47.2922 82.2727C47.2922 85.3612 48.4925 87.1293 50.5791 87.1293ZM50.5791 86.1136C49.2034 86.1136 48.4001 84.7333 48.4001 82.2727C48.4001 79.8168 49.2126 78.4134 50.5791 78.4134C51.9456 78.4134 52.7581 79.8168 52.7581 82.2727C52.7581 84.7333 51.9548 86.1136 50.5791 86.1136ZM56.9337 85.7074H55.7519L55.6965 86.2244C55.5626 87.4755 55.2994 88.7219 55.1794 89.3082H56.0104C56.232 88.6804 56.7029 87.2585 56.8598 86.206L56.9337 85.7074ZM61.6875 87.1293C63.7741 87.1293 64.9744 85.3612 64.9744 82.2727C64.9744 79.2074 63.7557 77.4162 61.6875 77.4162C59.6193 77.4162 58.4006 79.2074 58.4006 82.2727C58.4006 85.3612 59.6009 87.1293 61.6875 87.1293ZM61.6875 86.1136C60.3118 86.1136 59.5085 84.7333 59.5085 82.2727C59.5085 79.8168 60.321 78.4134 61.6875 78.4134C63.054 78.4134 63.8665 79.8168 63.8665 82.2727C63.8665 84.7333 63.0632 86.1136 61.6875 86.1136ZM69.8125 87.1293C71.8991 87.1293 73.0994 85.3612 73.0994 82.2727C73.0994 79.2074 71.8807 77.4162 69.8125 77.4162C67.7443 77.4162 66.5256 79.2074 66.5256 82.2727C66.5256 85.3612 67.7259 87.1293 69.8125 87.1293ZM69.8125 86.1136C68.4368 86.1136 67.6335 84.7333 67.6335 82.2727C67.6335 79.8168 68.446 78.4134 69.8125 78.4134C71.179 78.4134 71.9915 79.8168 71.9915 82.2727C71.9915 84.7333 71.1882 86.1136 69.8125 86.1136ZM77.9375 87.1293C80.0241 87.1293 81.2244 85.3612 81.2244 82.2727C81.2244 79.2074 80.0057 77.4162 77.9375 77.4162C75.8693 77.4162 74.6506 79.2074 74.6506 82.2727C74.6506 85.3612 75.8509 87.1293 77.9375 87.1293ZM77.9375 86.1136C76.5618 86.1136 75.7585 84.7333 75.7585 82.2727C75.7585 79.8168 76.571 78.4134 77.9375 78.4134C79.304 78.4134 80.1165 79.8168 80.1165 82.2727C80.1165 84.7333 79.3132 86.1136 77.9375 86.1136Z" fill="#718EBF"/>
<path d="M33.6528 40.1818H34.4099V39.1523C36.3488 39.0185 37.4383 37.8736 37.4383 36.4332C37.4383 34.6605 35.7579 34.0881 34.7792 33.8295L34.4099 33.728V30.4457C35.3886 30.5426 36.0995 31.0689 36.2011 31.9091H37.309C37.2629 30.5611 36.0811 29.5362 34.4099 29.4254V28.3636H33.6528V29.4393C32.0693 29.6009 30.8829 30.6072 30.8829 32.0568C30.8829 33.331 31.8062 34.0881 33.2835 34.5128L33.6528 34.619V38.1136C32.6833 38.0121 31.8893 37.5135 31.8062 36.5625H30.6244C30.7306 38.0167 31.8385 39.0323 33.6528 39.1523V40.1818ZM34.4099 38.1136V34.8359L34.4468 34.8452C35.444 35.1222 36.3303 35.473 36.3303 36.4148C36.3303 37.3427 35.5271 37.989 34.4099 38.1136ZM33.6528 33.5249C32.9511 33.3263 31.9909 32.9386 31.9909 32.0014C31.9909 31.2028 32.6372 30.5934 33.6528 30.4595V33.5249ZM38.9329 37.0611H43.3832V39H44.4727V37.0611H45.7653V36.0455H44.4727V29.5455H43.0877L38.9329 36.1193V37.0611ZM43.3832 36.0455H40.1701V35.9716L43.3093 31.0043H43.3832V36.0455ZM50.5791 39.1293C52.6657 39.1293 53.866 37.3612 53.866 34.2727C53.866 31.2074 52.6473 29.4162 50.5791 29.4162C48.5109 29.4162 47.2922 31.2074 47.2922 34.2727C47.2922 37.3612 48.4925 39.1293 50.5791 39.1293ZM50.5791 38.1136C49.2034 38.1136 48.4001 36.7333 48.4001 34.2727C48.4001 31.8168 49.2126 30.4134 50.5791 30.4134C51.9456 30.4134 52.7581 31.8168 52.7581 34.2727C52.7581 36.7333 51.9548 38.1136 50.5791 38.1136ZM56.9337 37.7074H55.7519L55.6965 38.2244C55.5626 39.4755 55.2994 40.7219 55.1794 41.3082H56.0104C56.232 40.6804 56.7029 39.2585 56.8598 38.206L56.9337 37.7074ZM61.6875 39.1293C63.7741 39.1293 64.9744 37.3612 64.9744 34.2727C64.9744 31.2074 63.7557 29.4162 61.6875 29.4162C59.6193 29.4162 58.4006 31.2074 58.4006 34.2727C58.4006 37.3612 59.6009 39.1293 61.6875 39.1293ZM61.6875 38.1136C60.3118 38.1136 59.5085 36.7333 59.5085 34.2727C59.5085 31.8168 60.321 30.4134 61.6875 30.4134C63.054 30.4134 63.8665 31.8168 63.8665 34.2727C63.8665 36.7333 63.0632 38.1136 61.6875 38.1136ZM69.8125 39.1293C71.8991 39.1293 73.0994 37.3612 73.0994 34.2727C73.0994 31.2074 71.8807 29.4162 69.8125 29.4162C67.7443 29.4162 66.5256 31.2074 66.5256 34.2727C66.5256 37.3612 67.7259 39.1293 69.8125 39.1293ZM69.8125 38.1136C68.4368 38.1136 67.6335 36.7333 67.6335 34.2727C67.6335 31.8168 68.446 30.4134 69.8125 30.4134C71.179 30.4134 71.9915 31.8168 71.9915 34.2727C71.9915 36.7333 71.1882 38.1136 69.8125 38.1136ZM77.9375 39.1293C80.0241 39.1293 81.2244 37.3612 81.2244 34.2727C81.2244 31.2074 80.0057 29.4162 77.9375 29.4162C75.8693 29.4162 74.6506 31.2074 74.6506 34.2727C74.6506 37.3612 75.8509 39.1293 77.9375 39.1293ZM77.9375 38.1136C76.5618 38.1136 75.7585 36.7333 75.7585 34.2727C75.7585 31.8168 76.571 30.4134 77.9375 30.4134C79.304 30.4134 80.1165 31.8168 80.1165 34.2727C80.1165 36.7333 79.3132 38.1136 77.9375 38.1136Z" fill="#718EBF"/>
<path d="M69.352 232.182H70.1091V231.152C72.048 231.018 73.1375 229.874 73.1375 228.433C73.1375 226.661 71.4571 226.088 70.4784 225.83L70.1091 225.728V222.446C71.0878 222.543 71.7987 223.069 71.9003 223.909H73.0083C72.9621 222.561 71.7803 221.536 70.1091 221.425V220.364H69.352V221.439C67.7686 221.601 66.5821 222.607 66.5821 224.057C66.5821 225.331 67.5054 226.088 68.9827 226.513L69.352 226.619V230.114C68.3825 230.012 67.5885 229.513 67.5054 228.562H66.3236C66.4298 230.017 67.5377 231.032 69.352 231.152V232.182ZM70.1091 230.114V226.836L70.146 226.845C71.1432 227.122 72.0296 227.473 72.0296 228.415C72.0296 229.343 71.2263 229.989 70.1091 230.114ZM69.352 225.525C68.6503 225.326 67.6901 224.939 67.6901 224.001C67.6901 223.203 68.3364 222.593 69.352 222.46V225.525ZM77.9375 231.129C80.0241 231.129 81.2244 229.361 81.2244 226.273C81.2244 223.207 80.0057 221.416 77.9375 221.416C75.8693 221.416 74.6506 223.207 74.6506 226.273C74.6506 229.361 75.8509 231.129 77.9375 231.129ZM77.9375 230.114C76.5618 230.114 75.7585 228.733 75.7585 226.273C75.7585 223.817 76.571 222.413 77.9375 222.413C79.304 222.413 80.1165 223.817 80.1165 226.273C80.1165 228.733 79.3132 230.114 77.9375 230.114Z" fill="#718EBF"/>
<rect x="91.25" y="230.25" width="418.5" height="0.5" stroke="#DFE5EE" stroke-width="0.5" stroke-dasharray="4 4"/>
<rect x="91.25" y="184.25" width="418.5" height="0.5" stroke="#DFE5EE" stroke-width="0.5" stroke-dasharray="4 4"/>
<rect x="91.25" y="136.25" width="418.5" height="0.5" stroke="#DFE5EE" stroke-width="0.5" stroke-dasharray="4 4"/>
<rect x="91.25" y="88.25" width="418.5" height="0.5" stroke="#DFE5EE" stroke-width="0.5" stroke-dasharray="4 4"/>
<rect x="91.25" y="40.25" width="418.5" height="0.5" stroke="#DFE5EE" stroke-width="0.5" stroke-dasharray="4 4"/>
<path d="M93 177C99.5631 170.5 104.107 165 118.243 165C132.379 165 136.922 134.501 157.117 132.001C177.311 129.501 184.379 174.5 204.573 173.5C224.767 172.5 221.738 109.501 242.437 103.001C263.136 96.5015 271.214 75.5018 291.408 74.5019C311.602 73.5019 316.146 132.001 335.835 132.001C355.524 132.001 361.078 94.0015 378.748 94.0015C396.417 94.0015 406.01 115.501 427.214 116.001C448.417 116.001 448.922 158 468.107 158C487.291 158 495.369 65.502 509 66.002" stroke="#16DBCC" stroke-width="3" stroke-linecap="round" stroke-linejoin="round"/>
</svg>
