<svg width="540" height="282" viewBox="0 0 540 282" fill="none" xmlns="http://www.w3.org/2000/svg">
<rect width="540" height="282" rx="25" fill="white"/>
<path d="M95.5643 251H101.529V249.984H97.1339V249.911L99.2575 247.639C100.883 245.899 101.363 245.086 101.363 244.038C101.363 242.58 100.181 241.416 98.5189 241.416C96.8616 241.416 95.6013 242.543 95.6013 244.205H96.6908C96.6908 243.129 97.3879 242.413 98.482 242.413C99.5068 242.413 100.292 243.041 100.292 244.038C100.292 244.911 99.7792 245.557 98.6851 246.753L95.5643 250.169V251ZM106.519 251.129C108.606 251.129 109.806 249.361 109.806 246.273C109.806 243.207 108.587 241.416 106.519 241.416C104.451 241.416 103.232 243.207 103.232 246.273C103.232 249.361 104.433 251.129 106.519 251.129ZM106.519 250.114C105.144 250.114 104.34 248.733 104.34 246.273C104.34 243.817 105.153 242.413 106.519 242.413C107.886 242.413 108.698 243.817 108.698 246.273C108.698 248.733 107.895 250.114 106.519 250.114ZM114.884 241.545H113.739L111.376 243.115V244.278L113.684 242.746H113.739V251H114.884V241.545ZM120.743 251.129C122.654 251.152 123.9 249.712 123.9 247.953C123.9 246.125 122.548 244.814 120.927 244.814C119.953 244.814 119.118 245.289 118.601 246.07H118.527C118.531 243.766 119.427 242.432 120.89 242.432C121.887 242.432 122.488 243.06 122.7 243.909H123.826C123.596 242.441 122.478 241.416 120.89 241.416C118.762 241.416 117.456 243.3 117.456 246.642C117.456 250.137 119.191 251.111 120.743 251.129ZM120.743 250.114C119.556 250.114 118.688 249.103 118.693 247.972C118.698 246.841 119.607 245.83 120.78 245.83C121.938 245.83 122.792 246.781 122.792 247.953C122.792 249.153 121.901 250.114 120.743 250.114Z" fill="#718EBF"/>
<path d="M169.641 251H175.605V249.984H171.21V249.911L173.334 247.639C174.959 245.899 175.439 245.086 175.439 244.038C175.439 242.58 174.257 241.416 172.595 241.416C170.938 241.416 169.678 242.543 169.678 244.205H170.767C170.767 243.129 171.464 242.413 172.558 242.413C173.583 242.413 174.368 243.041 174.368 244.038C174.368 244.911 173.856 245.557 172.762 246.753L169.641 250.169V251ZM180.596 251.129C182.682 251.129 183.883 249.361 183.883 246.273C183.883 243.207 182.664 241.416 180.596 241.416C178.527 241.416 177.309 243.207 177.309 246.273C177.309 249.361 178.509 251.129 180.596 251.129ZM180.596 250.114C179.22 250.114 178.417 248.733 178.417 246.273C178.417 243.817 179.229 242.413 180.596 242.413C181.962 242.413 182.775 243.817 182.775 246.273C182.775 248.733 181.971 250.114 180.596 250.114ZM188.961 241.545H187.816L185.452 243.115V244.278L187.76 242.746H187.816V251H188.961V241.545ZM191.975 251H193.176L197.386 242.616V241.545H191.329V242.561H196.204V242.635L191.975 251Z" fill="#718EBF"/>
<path d="M243.082 251H249.047V249.984H244.652V249.911L246.776 247.639C248.401 245.899 248.881 245.086 248.881 244.038C248.881 242.58 247.699 241.416 246.037 241.416C244.38 241.416 243.119 242.543 243.119 244.205H244.209C244.209 243.129 244.906 242.413 246 242.413C247.025 242.413 247.81 243.041 247.81 244.038C247.81 244.911 247.297 245.557 246.203 246.753L243.082 250.169V251ZM254.037 251.129C256.124 251.129 257.324 249.361 257.324 246.273C257.324 243.207 256.105 241.416 254.037 241.416C251.969 241.416 250.75 243.207 250.75 246.273C250.75 249.361 251.951 251.129 254.037 251.129ZM254.037 250.114C252.662 250.114 251.858 248.733 251.858 246.273C251.858 243.817 252.671 242.413 254.037 242.413C255.404 242.413 256.216 243.817 256.216 246.273C256.216 248.733 255.413 250.114 254.037 250.114ZM262.402 241.545H261.257L258.894 243.115V244.278L261.202 242.746H261.257V251H262.402V241.545ZM268.15 251.129C270.038 251.129 271.354 250.026 271.363 248.489C271.354 247.293 270.555 246.277 269.535 246.088V246.033C270.421 245.802 271.003 244.934 271.012 243.928C271.003 242.487 269.793 241.416 268.15 241.416C266.488 241.416 265.278 242.487 265.288 243.928C265.278 244.934 265.86 245.802 266.765 246.033V246.088C265.726 246.277 264.928 247.293 264.937 248.489C264.928 250.026 266.243 251.129 268.15 251.129ZM268.15 250.114C266.853 250.114 266.054 249.449 266.063 248.433C266.054 247.367 266.936 246.605 268.15 246.605C269.346 246.605 270.227 247.367 270.237 248.433C270.227 249.449 269.429 250.114 268.15 250.114ZM268.15 245.626C267.116 245.626 266.386 244.98 266.396 244.001C266.386 243.041 267.088 242.413 268.15 242.413C269.193 242.413 269.895 243.041 269.904 244.001C269.895 244.98 269.166 245.626 268.15 245.626Z" fill="#718EBF"/>
<path d="M317.26 251H323.225V249.984H318.83V249.911L320.953 247.639C322.578 245.899 323.058 245.086 323.058 244.038C323.058 242.58 321.877 241.416 320.215 241.416C318.557 241.416 317.297 242.543 317.297 244.205H318.387C318.387 243.129 319.084 242.413 320.178 242.413C321.203 242.413 321.987 243.041 321.987 244.038C321.987 244.911 321.475 245.557 320.381 246.753L317.26 250.169V251ZM328.215 251.129C330.302 251.129 331.502 249.361 331.502 246.273C331.502 243.207 330.283 241.416 328.215 241.416C326.147 241.416 324.928 243.207 324.928 246.273C324.928 249.361 326.128 251.129 328.215 251.129ZM328.215 250.114C326.839 250.114 326.036 248.733 326.036 246.273C326.036 243.817 326.849 242.413 328.215 242.413C329.582 242.413 330.394 243.817 330.394 246.273C330.394 248.733 329.591 250.114 328.215 250.114ZM336.58 241.545H335.435L333.072 243.115V244.278L335.38 242.746H335.435V251H336.58V241.545ZM342.309 241.416C340.389 241.393 339.151 242.838 339.151 244.574C339.151 246.402 340.499 247.713 342.124 247.713C343.103 247.713 343.934 247.233 344.451 246.457H344.525C344.525 248.784 343.62 250.114 342.161 250.114C341.164 250.114 340.555 249.486 340.352 248.618H339.225C339.447 250.114 340.573 251.129 342.161 251.129C344.285 251.129 345.596 249.246 345.596 245.885C345.596 242.413 343.86 241.435 342.309 241.416ZM342.309 242.432C343.491 242.432 344.359 243.447 344.359 244.555C344.359 245.682 343.436 246.697 342.272 246.697C341.109 246.697 340.259 245.756 340.259 244.574C340.259 243.392 341.146 242.432 342.309 242.432Z" fill="#718EBF"/>
<path d="M390.227 251H396.192V249.984H391.797V249.911L393.92 247.639C395.545 245.899 396.026 245.086 396.026 244.038C396.026 242.58 394.844 241.416 393.182 241.416C391.524 241.416 390.264 242.543 390.264 244.205H391.354C391.354 243.129 392.051 242.413 393.145 242.413C394.17 242.413 394.955 243.041 394.955 244.038C394.955 244.911 394.442 245.557 393.348 246.753L390.227 250.169V251ZM401.182 251.129C403.269 251.129 404.469 249.361 404.469 246.273C404.469 243.207 403.25 241.416 401.182 241.416C399.114 241.416 397.895 243.207 397.895 246.273C397.895 249.361 399.095 251.129 401.182 251.129ZM401.182 250.114C399.806 250.114 399.003 248.733 399.003 246.273C399.003 243.817 399.816 242.413 401.182 242.413C402.549 242.413 403.361 243.817 403.361 246.273C403.361 248.733 402.558 250.114 401.182 250.114ZM406.223 251H412.188V249.984H407.793V249.911L409.917 247.639C411.542 245.899 412.022 245.086 412.022 244.038C412.022 242.58 410.84 241.416 409.178 241.416C407.521 241.416 406.26 242.543 406.26 244.205H407.35C407.35 243.129 408.047 242.413 409.141 242.413C410.166 242.413 410.951 243.041 410.951 244.038C410.951 244.911 410.438 245.557 409.344 246.753L406.223 250.169V251ZM417.178 251.129C419.265 251.129 420.465 249.361 420.465 246.273C420.465 243.207 419.246 241.416 417.178 241.416C415.11 241.416 413.891 243.207 413.891 246.273C413.891 249.361 415.092 251.129 417.178 251.129ZM417.178 250.114C415.803 250.114 414.999 248.733 414.999 246.273C414.999 243.817 415.812 242.413 417.178 242.413C418.545 242.413 419.357 243.817 419.357 246.273C419.357 248.733 418.554 250.114 417.178 250.114Z" fill="#718EBF"/>
<path d="M466.476 251H472.441V249.984H468.046V249.911L470.169 247.639C471.794 245.899 472.275 245.086 472.275 244.038C472.275 242.58 471.093 241.416 469.431 241.416C467.773 241.416 466.513 242.543 466.513 244.205H467.603C467.603 243.129 468.3 242.413 469.394 242.413C470.419 242.413 471.204 243.041 471.204 244.038C471.204 244.911 470.691 245.557 469.597 246.753L466.476 250.169V251ZM477.431 251.129C479.518 251.129 480.718 249.361 480.718 246.273C480.718 243.207 479.499 241.416 477.431 241.416C475.363 241.416 474.144 243.207 474.144 246.273C474.144 249.361 475.345 251.129 477.431 251.129ZM477.431 250.114C476.055 250.114 475.252 248.733 475.252 246.273C475.252 243.817 476.065 242.413 477.431 242.413C478.798 242.413 479.61 243.817 479.61 246.273C479.61 248.733 478.807 250.114 477.431 250.114ZM482.472 251H488.437V249.984H484.042V249.911L486.166 247.639C487.791 245.899 488.271 245.086 488.271 244.038C488.271 242.58 487.089 241.416 485.427 241.416C483.77 241.416 482.509 242.543 482.509 244.205H483.599C483.599 243.129 484.296 242.413 485.39 242.413C486.415 242.413 487.2 243.041 487.2 244.038C487.2 244.911 486.687 245.557 485.593 246.753L482.472 250.169V251ZM493.667 241.545H492.522L490.159 243.115V244.278L492.467 242.746H492.522V251H493.667V241.545Z" fill="#718EBF"/>
<path d="M34.9199 184.182H35.677V183.152C37.6159 183.018 38.7054 181.874 38.7054 180.433C38.7054 178.661 37.025 178.088 36.0463 177.83L35.677 177.728V174.446C36.6557 174.543 37.3666 175.069 37.4682 175.909H38.5761C38.53 174.561 37.3481 173.536 35.677 173.425V172.364H34.9199V173.439C33.3364 173.601 32.15 174.607 32.15 176.057C32.15 177.331 33.0733 178.088 34.5506 178.513L34.9199 178.619V182.114C33.9504 182.012 33.1564 181.513 33.0733 180.562H31.8915C31.9976 182.017 33.1056 183.032 34.9199 183.152V184.182ZM35.677 182.114V178.836L35.7139 178.845C36.7111 179.122 37.5974 179.473 37.5974 180.415C37.5974 181.343 36.7942 181.989 35.677 182.114ZM34.9199 177.525C34.2182 177.326 33.2579 176.939 33.2579 176.001C33.2579 175.203 33.9043 174.593 34.9199 174.46V177.525ZM43.7454 173.545H42.6005L40.2369 175.115V176.278L42.5451 174.746H42.6005V183H43.7454V173.545ZM49.5483 183.129C51.635 183.129 52.8353 181.361 52.8353 178.273C52.8353 175.207 51.6165 173.416 49.5483 173.416C47.4802 173.416 46.2614 175.207 46.2614 178.273C46.2614 181.361 47.4617 183.129 49.5483 183.129ZM49.5483 182.114C48.1726 182.114 47.3694 180.733 47.3694 178.273C47.3694 175.817 48.1819 174.413 49.5483 174.413C50.9148 174.413 51.7273 175.817 51.7273 178.273C51.7273 180.733 50.9241 182.114 49.5483 182.114ZM55.9029 181.707H54.7211L54.6657 182.224C54.5318 183.475 54.2687 184.722 54.1487 185.308H54.9796C55.2012 184.68 55.6721 183.259 55.8291 182.206L55.9029 181.707ZM60.6567 183.129C62.7434 183.129 63.9437 181.361 63.9437 178.273C63.9437 175.207 62.7249 173.416 60.6567 173.416C58.5886 173.416 57.3698 175.207 57.3698 178.273C57.3698 181.361 58.5701 183.129 60.6567 183.129ZM60.6567 182.114C59.281 182.114 58.4778 180.733 58.4778 178.273C58.4778 175.817 59.2903 174.413 60.6567 174.413C62.0232 174.413 62.8357 175.817 62.8357 178.273C62.8357 180.733 62.0324 182.114 60.6567 182.114ZM68.7817 183.129C70.8684 183.129 72.0687 181.361 72.0687 178.273C72.0687 175.207 70.8499 173.416 68.7817 173.416C66.7136 173.416 65.4948 175.207 65.4948 178.273C65.4948 181.361 66.6951 183.129 68.7817 183.129ZM68.7817 182.114C67.406 182.114 66.6028 180.733 66.6028 178.273C66.6028 175.817 67.4153 174.413 68.7817 174.413C70.1482 174.413 70.9607 175.817 70.9607 178.273C70.9607 180.733 70.1574 182.114 68.7817 182.114ZM76.9067 183.129C78.9934 183.129 80.1937 181.361 80.1937 178.273C80.1937 175.207 78.9749 173.416 76.9067 173.416C74.8386 173.416 73.6198 175.207 73.6198 178.273C73.6198 181.361 74.8201 183.129 76.9067 183.129ZM76.9067 182.114C75.531 182.114 74.7278 180.733 74.7278 178.273C74.7278 175.817 75.5403 174.413 76.9067 174.413C78.2732 174.413 79.0857 175.817 79.0857 178.273C79.0857 180.733 78.2824 182.114 76.9067 182.114Z" fill="#718EBF"/>
<path d="M33.1123 136.182H33.8694V135.152C35.8083 135.018 36.8978 133.874 36.8978 132.433C36.8978 130.661 35.2174 130.088 34.2387 129.83L33.8694 129.728V126.446C34.8481 126.543 35.559 127.069 35.6606 127.909H36.7685C36.7223 126.561 35.5405 125.536 33.8694 125.425V124.364H33.1123V125.439C31.5288 125.601 30.3424 126.607 30.3424 128.057C30.3424 129.331 31.2657 130.088 32.7429 130.513L33.1123 130.619V134.114C32.1428 134.012 31.3488 133.513 31.2657 132.562H30.0839C30.19 134.017 31.298 135.032 33.1123 135.152V136.182ZM33.8694 134.114V130.836L33.9063 130.845C34.9035 131.122 35.7898 131.473 35.7898 132.415C35.7898 133.343 34.9866 133.989 33.8694 134.114ZM33.1123 129.525C32.4106 129.326 31.4503 128.939 31.4503 128.001C31.4503 127.203 32.0966 126.593 33.1123 126.46V129.525ZM38.6139 135H44.5784V133.984H40.1835V133.911L42.3071 131.639C43.9321 129.899 44.4122 129.086 44.4122 128.038C44.4122 126.58 43.2304 125.416 41.5685 125.416C39.9112 125.416 38.6509 126.543 38.6509 128.205H39.7404C39.7404 127.129 40.4375 126.413 41.5316 126.413C42.5564 126.413 43.3412 127.041 43.3412 128.038C43.3412 128.911 42.8288 129.557 41.7347 130.753L38.6139 134.169V135ZM49.5688 135.129C51.6555 135.129 52.8558 133.361 52.8558 130.273C52.8558 127.207 51.637 125.416 49.5688 125.416C47.5007 125.416 46.2819 127.207 46.2819 130.273C46.2819 133.361 47.4822 135.129 49.5688 135.129ZM49.5688 134.114C48.1931 134.114 47.3899 132.733 47.3899 130.273C47.3899 127.817 48.2024 126.413 49.5688 126.413C50.9353 126.413 51.7478 127.817 51.7478 130.273C51.7478 132.733 50.9446 134.114 49.5688 134.114ZM55.9234 133.707H54.7416L54.6862 134.224C54.5523 135.475 54.2892 136.722 54.1692 137.308H55.0001C55.2217 136.68 55.6926 135.259 55.8496 134.206L55.9234 133.707ZM60.6772 135.129C62.7639 135.129 63.9642 133.361 63.9642 130.273C63.9642 127.207 62.7454 125.416 60.6772 125.416C58.6091 125.416 57.3903 127.207 57.3903 130.273C57.3903 133.361 58.5906 135.129 60.6772 135.129ZM60.6772 134.114C59.3015 134.114 58.4983 132.733 58.4983 130.273C58.4983 127.817 59.3108 126.413 60.6772 126.413C62.0437 126.413 62.8562 127.817 62.8562 130.273C62.8562 132.733 62.053 134.114 60.6772 134.114ZM68.8022 135.129C70.8889 135.129 72.0892 133.361 72.0892 130.273C72.0892 127.207 70.8704 125.416 68.8022 125.416C66.7341 125.416 65.5153 127.207 65.5153 130.273C65.5153 133.361 66.7156 135.129 68.8022 135.129ZM68.8022 134.114C67.4265 134.114 66.6233 132.733 66.6233 130.273C66.6233 127.817 67.4358 126.413 68.8022 126.413C70.1687 126.413 70.9812 127.817 70.9812 130.273C70.9812 132.733 70.178 134.114 68.8022 134.114ZM76.9272 135.129C79.0139 135.129 80.2142 133.361 80.2142 130.273C80.2142 127.207 78.9954 125.416 76.9272 125.416C74.8591 125.416 73.6403 127.207 73.6403 130.273C73.6403 133.361 74.8406 135.129 76.9272 135.129ZM76.9272 134.114C75.5515 134.114 74.7483 132.733 74.7483 130.273C74.7483 127.817 75.5608 126.413 76.9272 126.413C78.2937 126.413 79.1062 127.817 79.1062 130.273C79.1062 132.733 78.303 134.114 76.9272 134.114Z" fill="#718EBF"/>
<path d="M33.171 88.1818H33.9281V87.1523C35.867 87.0185 36.9565 85.8736 36.9565 84.4332C36.9565 82.6605 35.2761 82.0881 34.2974 81.8295L33.9281 81.728V78.4457C34.9068 78.5426 35.6177 79.0689 35.7193 79.9091H36.8272C36.7811 78.5611 35.5993 77.5362 33.9281 77.4254V76.3636H33.171V77.4393C31.5875 77.6009 30.4011 78.6072 30.4011 80.0568C30.4011 81.331 31.3244 82.0881 32.8017 82.5128L33.171 82.619V86.1136C32.2015 86.0121 31.4075 85.5135 31.3244 84.5625H30.1426C30.2488 86.0167 31.3567 87.0323 33.171 87.1523V88.1818ZM33.9281 86.1136V82.8359L33.965 82.8452C34.9622 83.1222 35.8486 83.473 35.8486 84.4148C35.8486 85.3427 35.0453 85.989 33.9281 86.1136ZM33.171 81.5249C32.4693 81.3263 31.5091 80.9386 31.5091 80.0014C31.5091 79.2028 32.1554 78.5934 33.171 78.4595V81.5249ZM41.8673 87.1293C43.7 87.1293 45.0619 85.9798 45.0619 84.4332C45.0619 83.233 44.3509 82.3604 43.1599 82.1619V82.0881C44.1155 81.7972 44.711 81.0124 44.711 79.946C44.711 78.6072 43.6539 77.4162 41.9042 77.4162C40.27 77.4162 38.9127 78.4226 38.8573 79.9091H39.9653C40.0068 78.9673 40.9024 78.4134 41.8858 78.4134C42.9291 78.4134 43.6031 79.0458 43.6031 80.0014C43.6031 80.9986 42.8229 81.6449 41.7011 81.6449H40.944V82.6605H41.7011C43.1368 82.6605 43.9355 83.3899 43.9355 84.4332C43.9355 85.435 43.063 86.1136 41.8488 86.1136C40.7547 86.1136 39.8868 85.5504 39.8176 84.6364H38.6542C38.7235 86.1229 40.0345 87.1293 41.8673 87.1293ZM50.0338 87.1293C52.1205 87.1293 53.3208 85.3612 53.3208 82.2727C53.3208 79.2074 52.102 77.4162 50.0338 77.4162C47.9657 77.4162 46.7469 79.2074 46.7469 82.2727C46.7469 85.3612 47.9472 87.1293 50.0338 87.1293ZM50.0338 86.1136C48.6581 86.1136 47.8549 84.7333 47.8549 82.2727C47.8549 79.8168 48.6674 78.4134 50.0338 78.4134C51.4003 78.4134 52.2128 79.8168 52.2128 82.2727C52.2128 84.7333 51.4095 86.1136 50.0338 86.1136ZM56.3884 85.7074H55.2066L55.1512 86.2244C55.0173 87.4755 54.7542 88.7219 54.6342 89.3082H55.4651C55.6867 88.6804 56.1576 87.2585 56.3145 86.206L56.3884 85.7074ZM61.1422 87.1293C63.2289 87.1293 64.4292 85.3612 64.4292 82.2727C64.4292 79.2074 63.2104 77.4162 61.1422 77.4162C59.074 77.4162 57.8553 79.2074 57.8553 82.2727C57.8553 85.3612 59.0556 87.1293 61.1422 87.1293ZM61.1422 86.1136C59.7665 86.1136 58.9633 84.7333 58.9633 82.2727C58.9633 79.8168 59.7758 78.4134 61.1422 78.4134C62.5087 78.4134 63.3212 79.8168 63.3212 82.2727C63.3212 84.7333 62.5179 86.1136 61.1422 86.1136ZM69.2672 87.1293C71.3539 87.1293 72.5542 85.3612 72.5542 82.2727C72.5542 79.2074 71.3354 77.4162 69.2672 77.4162C67.199 77.4162 65.9803 79.2074 65.9803 82.2727C65.9803 85.3612 67.1806 87.1293 69.2672 87.1293ZM69.2672 86.1136C67.8915 86.1136 67.0883 84.7333 67.0883 82.2727C67.0883 79.8168 67.9008 78.4134 69.2672 78.4134C70.6337 78.4134 71.4462 79.8168 71.4462 82.2727C71.4462 84.7333 70.6429 86.1136 69.2672 86.1136ZM77.3922 87.1293C79.4789 87.1293 80.6792 85.3612 80.6792 82.2727C80.6792 79.2074 79.4604 77.4162 77.3922 77.4162C75.324 77.4162 74.1053 79.2074 74.1053 82.2727C74.1053 85.3612 75.3056 87.1293 77.3922 87.1293ZM77.3922 86.1136C76.0165 86.1136 75.2133 84.7333 75.2133 82.2727C75.2133 79.8168 76.0258 78.4134 77.3922 78.4134C78.7587 78.4134 79.5712 79.8168 79.5712 82.2727C79.5712 84.7333 78.7679 86.1136 77.3922 86.1136Z" fill="#718EBF"/>
<path d="M33.1075 40.1818H33.8646V39.1523C35.8035 39.0185 36.893 37.8736 36.893 36.4332C36.893 34.6605 35.2126 34.0881 34.2339 33.8295L33.8646 33.728V30.4457C34.8433 30.5426 35.5543 31.0689 35.6558 31.9091H36.7638C36.7176 30.5611 35.5358 29.5362 33.8646 29.4254V28.3636H33.1075V29.4393C31.5241 29.6009 30.3376 30.6072 30.3376 32.0568C30.3376 33.331 31.2609 34.0881 32.7382 34.5128L33.1075 34.619V38.1136C32.1381 38.0121 31.344 37.5135 31.2609 36.5625H30.0791C30.1853 38.0167 31.2932 39.0323 33.1075 39.1523V40.1818ZM33.8646 38.1136V34.8359L33.9016 34.8452C34.8987 35.1222 35.7851 35.473 35.7851 36.4148C35.7851 37.3427 34.9818 37.989 33.8646 38.1136ZM33.1075 33.5249C32.4058 33.3263 31.4456 32.9386 31.4456 32.0014C31.4456 31.2028 32.0919 30.5934 33.1075 30.4595V33.5249ZM38.3876 37.0611H42.8379V39H43.9274V37.0611H45.22V36.0455H43.9274V29.5455H42.5424L38.3876 36.1193V37.0611ZM42.8379 36.0455H39.6248V35.9716L42.764 31.0043H42.8379V36.0455ZM50.0338 39.1293C52.1205 39.1293 53.3208 37.3612 53.3208 34.2727C53.3208 31.2074 52.102 29.4162 50.0338 29.4162C47.9657 29.4162 46.7469 31.2074 46.7469 34.2727C46.7469 37.3612 47.9472 39.1293 50.0338 39.1293ZM50.0338 38.1136C48.6581 38.1136 47.8549 36.7333 47.8549 34.2727C47.8549 31.8168 48.6674 30.4134 50.0338 30.4134C51.4003 30.4134 52.2128 31.8168 52.2128 34.2727C52.2128 36.7333 51.4095 38.1136 50.0338 38.1136ZM56.3884 37.7074H55.2066L55.1512 38.2244C55.0173 39.4755 54.7542 40.7219 54.6342 41.3082H55.4651C55.6867 40.6804 56.1576 39.2585 56.3145 38.206L56.3884 37.7074ZM61.1422 39.1293C63.2289 39.1293 64.4292 37.3612 64.4292 34.2727C64.4292 31.2074 63.2104 29.4162 61.1422 29.4162C59.074 29.4162 57.8553 31.2074 57.8553 34.2727C57.8553 37.3612 59.0556 39.1293 61.1422 39.1293ZM61.1422 38.1136C59.7665 38.1136 58.9633 36.7333 58.9633 34.2727C58.9633 31.8168 59.7758 30.4134 61.1422 30.4134C62.5087 30.4134 63.3212 31.8168 63.3212 34.2727C63.3212 36.7333 62.5179 38.1136 61.1422 38.1136ZM69.2672 39.1293C71.3539 39.1293 72.5542 37.3612 72.5542 34.2727C72.5542 31.2074 71.3354 29.4162 69.2672 29.4162C67.199 29.4162 65.9803 31.2074 65.9803 34.2727C65.9803 37.3612 67.1806 39.1293 69.2672 39.1293ZM69.2672 38.1136C67.8915 38.1136 67.0883 36.7333 67.0883 34.2727C67.0883 31.8168 67.9008 30.4134 69.2672 30.4134C70.6337 30.4134 71.4462 31.8168 71.4462 34.2727C71.4462 36.7333 70.6429 38.1136 69.2672 38.1136ZM77.3922 39.1293C79.4789 39.1293 80.6792 37.3612 80.6792 34.2727C80.6792 31.2074 79.4604 29.4162 77.3922 29.4162C75.324 29.4162 74.1053 31.2074 74.1053 34.2727C74.1053 37.3612 75.3056 39.1293 77.3922 39.1293ZM77.3922 38.1136C76.0165 38.1136 75.2133 36.7333 75.2133 34.2727C75.2133 31.8168 76.0258 30.4134 77.3922 30.4134C78.7587 30.4134 79.5712 31.8168 79.5712 34.2727C79.5712 36.7333 78.7679 38.1136 77.3922 38.1136Z" fill="#718EBF"/>
<path d="M68.807 232.182H69.5641V231.152C71.503 231.018 72.5925 229.874 72.5925 228.433C72.5925 226.661 70.9121 226.088 69.9334 225.83L69.5641 225.728V222.446C70.5428 222.543 71.2537 223.069 71.3553 223.909H72.4632C72.4171 222.561 71.2353 221.536 69.5641 221.425V220.364H68.807V221.439C67.2235 221.601 66.0371 222.607 66.0371 224.057C66.0371 225.331 66.9604 226.088 68.4377 226.513L68.807 226.619V230.114C67.8375 230.012 67.0435 229.513 66.9604 228.562H65.7786C65.8848 230.017 66.9927 231.032 68.807 231.152V232.182ZM69.5641 230.114V226.836L69.601 226.845C70.5982 227.122 71.4846 227.473 71.4846 228.415C71.4846 229.343 70.6813 229.989 69.5641 230.114ZM68.807 225.525C68.1053 225.326 67.1451 224.939 67.1451 224.001C67.1451 223.203 67.7914 222.593 68.807 222.46V225.525ZM77.3925 231.129C79.4791 231.129 80.6794 229.361 80.6794 226.273C80.6794 223.207 79.4607 221.416 77.3925 221.416C75.3243 221.416 74.1056 223.207 74.1056 226.273C74.1056 229.361 75.3058 231.129 77.3925 231.129ZM77.3925 230.114C76.0168 230.114 75.2135 228.733 75.2135 226.273C75.2135 223.817 76.026 222.413 77.3925 222.413C78.759 222.413 79.5715 223.817 79.5715 226.273C79.5715 228.733 78.7682 230.114 77.3925 230.114Z" fill="#718EBF"/>
<rect x="90.6123" y="230.25" width="419.138" height="0.5" stroke="#DFE5EE" stroke-width="0.5" stroke-dasharray="4 4"/>
<rect x="90.6123" y="184.25" width="419.138" height="0.5" stroke="#DFE5EE" stroke-width="0.5" stroke-dasharray="4 4"/>
<rect x="90.6123" y="136.25" width="419.138" height="0.5" stroke="#DFE5EE" stroke-width="0.5" stroke-dasharray="4 4"/>
<rect x="90.6123" y="88.25" width="419.138" height="0.5" stroke="#DFE5EE" stroke-width="0.5" stroke-dasharray="4 4"/>
<rect x="90.6123" y="40.25" width="419.138" height="0.5" stroke="#DFE5EE" stroke-width="0.5" stroke-dasharray="4 4"/>
<path d="M109.662 201L184.88 116L257.129 154L331.852 53L406.08 130L482.783 91" stroke="#FCAA0B" stroke-width="3" stroke-linecap="round" stroke-linejoin="round"/>
<path d="M109.167 197.5C111.604 197.5 113.605 199.5 113.605 202C113.605 204.5 111.604 206.5 109.167 206.5C106.73 206.5 104.729 204.5 104.729 202C104.729 199.5 106.73 197.5 109.167 197.5Z" fill="white" stroke="#EDA10D" stroke-width="3"/>
<path d="M185.375 112.5C187.811 112.5 189.813 114.5 189.813 117C189.813 119.5 187.811 121.5 185.375 121.5C182.938 121.5 180.936 119.5 180.936 117C180.936 114.5 182.938 112.5 185.375 112.5Z" fill="white" stroke="#EDA10D" stroke-width="3"/>
<path d="M256.634 148.5C259.07 148.5 261.072 150.5 261.072 153C261.072 155.5 259.07 157.5 256.634 157.5C254.197 157.5 252.195 155.5 252.195 153C252.195 150.5 254.197 148.5 256.634 148.5Z" fill="white" stroke="#EDA10D" stroke-width="3"/>
<path d="M332.842 48.5C335.278 48.5001 337.28 50.5001 337.28 53C337.28 55.4999 335.278 57.4999 332.842 57.5C330.405 57.5 328.403 55.4999 328.403 53C328.403 50.5001 330.405 48.5 332.842 48.5Z" fill="white" stroke="#EDA10D" stroke-width="3"/>
<path d="M407.07 124.5C409.507 124.5 411.509 126.5 411.509 129C411.509 131.5 409.507 133.5 407.07 133.5C404.634 133.5 402.632 131.5 402.632 129C402.632 126.5 404.634 124.5 407.07 124.5Z" fill="white" stroke="#EDA10D" stroke-width="3"/>
<path d="M483.278 85.5C485.714 85.5001 487.716 87.5001 487.716 90C487.716 92.4999 485.714 94.4999 483.278 94.5C480.841 94.5 478.839 92.4999 478.839 90C478.839 87.5001 480.841 85.5 483.278 85.5Z" fill="white" stroke="#EDA10D" stroke-width="3"/>
</svg>
