<svg width="325" height="300" viewBox="0 0 325 300" fill="none" xmlns="http://www.w3.org/2000/svg">
<rect width="325" height="300" rx="15" fill="white"/>
<path opacity="0.83" d="M218.63 80.2508C204.107 65.4466 183.941 56.1954 161.571 55.9818C139.202 55.7682 118.856 64.6485 104.063 79.1605C89.2702 93.6724 80.0077 113.85 79.7942 136.219C79.5806 158.588 88.4609 178.934 102.973 193.727C117.485 208.52 137.662 217.783 160.031 217.996C182.401 218.21 202.747 209.33 217.54 194.818C232.344 180.294 241.595 160.128 241.809 137.759C242.022 115.39 233.142 95.055 218.63 80.2508Z" fill="url(#paint0_radial_196_449)" fill-opacity="0.5"/>
<path d="M70.4199 126.045C70.1951 149.449 79.48 170.739 94.6777 186.229C109.875 201.719 130.974 211.409 154.378 211.633L155.187 126.866L70.4199 126.045Z" fill="#FFBB38"/>
<path d="M103.76 126.361C103.625 140.569 109.257 153.485 118.486 162.882C127.703 172.28 140.506 178.159 154.715 178.294L155.209 126.855L103.76 126.361Z" fill="#FFB11F"/>
<path d="M89.9223 60.3318C72.8924 77.0357 62.2473 100.237 62 125.967L155.198 126.855L156.086 33.6572C130.344 33.4099 106.952 43.6279 89.9223 60.3318Z" fill="#4C78FF"/>
<path d="M119.172 90.1317C109.774 99.3492 103.895 112.153 103.76 126.361L155.199 126.856L155.693 75.4174C141.485 75.2825 128.569 80.9142 119.172 90.1317Z" fill="#3464F3"/>
<path d="M231.479 52.014C212.325 32.4886 185.729 20.281 156.21 20L155.187 126.856L262.043 127.879C262.335 98.36 250.634 71.5281 231.479 52.014Z" fill="#16DBCC"/>
<path d="M191.911 90.8287C182.694 81.4313 169.89 75.5524 155.682 75.4175L155.187 126.856L206.626 127.35C206.772 113.142 201.14 100.226 191.911 90.8287Z" fill="#1EC6B8"/>
<path d="M155.198 126.856L154.467 203.069C175.51 203.271 194.642 194.919 208.57 181.262C222.497 167.604 231.209 148.63 231.4 127.587L155.198 126.856Z" fill="#FF82AC"/>
<path opacity="0.08" d="M155.119 135.139L155.198 126.855L70.4307 126.045C70.4082 128.844 70.5206 131.61 70.7567 134.33L155.119 135.139Z" fill="url(#paint1_linear_196_449)"/>
<path d="M155.198 126.856L154.704 178.294C168.912 178.429 181.828 172.797 191.225 163.58C200.623 154.362 206.502 141.559 206.637 127.351L155.198 126.856Z" fill="#FF6195"/>
<path opacity="0.83" d="M189.303 108.983C182.694 102.249 173.521 98.0342 163.337 97.933C153.153 97.8318 143.901 101.879 137.168 108.477C130.435 115.087 126.219 124.259 126.118 134.443C126.017 144.628 130.064 153.879 136.662 160.612C143.272 167.345 152.444 171.561 162.629 171.662C172.813 171.763 182.064 167.716 188.797 161.118C195.531 154.508 199.746 145.336 199.847 135.151C199.948 124.967 195.913 115.716 189.303 108.983Z" fill="url(#paint2_radial_196_449)" fill-opacity="0.5"/>
<path d="M181.513 101.035C174.904 94.3017 165.731 90.0864 155.547 89.9853C145.363 89.8841 136.111 93.9308 129.378 100.529C122.645 107.139 118.429 116.311 118.328 126.496C118.227 136.68 122.274 145.931 128.872 152.664C135.482 159.398 144.654 163.613 154.839 163.714C165.023 163.815 174.274 159.769 181.007 153.17C187.741 146.561 191.956 137.388 192.057 127.204C192.158 117.02 188.123 107.768 181.513 101.035Z" fill="white"/>
<circle cx="79" cy="247" r="6" fill="#4C78FF"/>
<path d="M98.7841 251C101.443 251 102.982 249.351 102.982 246.624C102.982 243.909 101.443 242.273 98.8736 242.273H95.9588V251H98.7841ZM97.2756 249.849V243.423H98.7926C100.702 243.423 101.686 244.565 101.686 246.624C101.686 248.69 100.702 249.849 98.7116 249.849H97.2756ZM104.619 251H107.964C109.993 251 110.909 249.99 110.909 248.652C110.909 247.301 109.963 246.538 109.098 246.491V246.406C109.899 246.202 110.568 245.656 110.568 244.565C110.568 243.274 109.673 242.273 107.815 242.273H104.619V251ZM105.936 249.871V247.075H107.883C108.94 247.075 109.6 247.757 109.6 248.588C109.6 249.321 109.102 249.871 107.836 249.871H105.936ZM105.936 246.048V243.393H107.734C108.778 243.393 109.277 243.943 109.277 244.668C109.277 245.511 108.586 246.048 107.7 246.048H105.936ZM112.471 251H117.742V249.866H113.787V242.273H112.471V251ZM122.42 251H125.765C127.793 251 128.71 249.99 128.71 248.652C128.71 247.301 127.763 246.538 126.898 246.491V246.406C127.7 246.202 128.369 245.656 128.369 244.565C128.369 243.274 127.474 242.273 125.616 242.273H122.42V251ZM123.737 249.871V247.075H125.684C126.741 247.075 127.401 247.757 127.401 248.588C127.401 249.321 126.903 249.871 125.637 249.871H123.737ZM123.737 246.048V243.393H125.535C126.579 243.393 127.077 243.943 127.077 244.668C127.077 245.511 126.387 246.048 125.501 246.048H123.737ZM132.074 251.145C133.156 251.145 133.766 250.595 134.009 250.105H134.06V251H135.304V246.653C135.304 244.749 133.804 244.369 132.764 244.369C131.58 244.369 130.489 244.847 130.062 246.04L131.26 246.312C131.447 245.848 131.925 245.401 132.781 245.401C133.604 245.401 134.026 245.831 134.026 246.572V246.602C134.026 247.067 133.548 247.058 132.372 247.195C131.132 247.339 129.862 247.663 129.862 249.151C129.862 250.438 130.83 251.145 132.074 251.145ZM132.351 250.122C131.631 250.122 131.111 249.798 131.111 249.168C131.111 248.486 131.716 248.243 132.453 248.145C132.866 248.089 133.847 247.979 134.03 247.795V248.639C134.03 249.415 133.412 250.122 132.351 250.122ZM138.275 247.114C138.275 246.07 138.914 245.473 139.801 245.473C140.666 245.473 141.19 246.04 141.19 246.99V251H142.464V246.837C142.464 245.217 141.574 244.369 140.235 244.369C139.251 244.369 138.608 244.825 138.305 245.52H138.224V244.455H137.001V251H138.275V247.114ZM144.173 251H145.447V248.678L146.082 248.043L148.306 251H149.87L147.041 247.263L149.691 244.455H148.166L145.558 247.224H145.447V242.273H144.173V251Z" fill="#718EBF"/>
<circle cx="79" cy="274" r="6" fill="#16DBCC"/>
<path d="M96.696 278L97.4972 275.69H100.906L101.703 278H103.101L99.9602 269.273H98.4389L95.2983 278H96.696ZM97.8807 274.582L99.1676 270.858H99.2358L100.523 274.582H97.8807ZM104.361 278H107.706C109.735 278 110.651 276.99 110.651 275.652C110.651 274.301 109.705 273.538 108.84 273.491V273.406C109.641 273.202 110.31 272.656 110.31 271.565C110.31 270.274 109.415 269.273 107.557 269.273H104.361V278ZM105.678 276.871V274.075H107.625C108.682 274.075 109.343 274.757 109.343 275.588C109.343 276.321 108.844 276.871 107.578 276.871H105.678ZM105.678 273.048V270.393H107.476C108.52 270.393 109.019 270.943 109.019 271.668C109.019 272.511 108.328 273.048 107.442 273.048H105.678ZM112.213 269.273V278H113.466V271.68H113.547L116.12 277.987H117.16L119.734 271.685H119.815V278H121.068V269.273H119.47L116.691 276.057H116.589L113.811 269.273H112.213ZM126.158 278H129.503C131.532 278 132.448 276.99 132.448 275.652C132.448 274.301 131.502 273.538 130.637 273.491V273.406C131.438 273.202 132.107 272.656 132.107 271.565C132.107 270.274 131.212 269.273 129.354 269.273H126.158V278ZM127.475 276.871V274.075H129.422C130.479 274.075 131.14 274.757 131.14 275.588C131.14 276.321 130.641 276.871 129.375 276.871H127.475ZM127.475 273.048V270.393H129.273C130.317 270.393 130.816 270.943 130.816 271.668C130.816 272.511 130.125 273.048 129.239 273.048H127.475ZM135.812 278.145C136.895 278.145 137.504 277.595 137.747 277.105H137.798V278H139.042V273.653C139.042 271.749 137.542 271.369 136.502 271.369C135.318 271.369 134.227 271.847 133.801 273.04L134.998 273.312C135.186 272.848 135.663 272.401 136.52 272.401C137.342 272.401 137.764 272.831 137.764 273.572V273.602C137.764 274.067 137.287 274.058 136.11 274.195C134.87 274.339 133.6 274.663 133.6 276.151C133.6 277.438 134.568 278.145 135.812 278.145ZM136.089 277.122C135.369 277.122 134.849 276.798 134.849 276.168C134.849 275.486 135.454 275.243 136.191 275.145C136.605 275.089 137.585 274.979 137.768 274.795V275.639C137.768 276.415 137.15 277.122 136.089 277.122ZM142.013 274.114C142.013 273.07 142.653 272.473 143.539 272.473C144.404 272.473 144.928 273.04 144.928 273.99V278H146.202V273.837C146.202 272.217 145.312 271.369 143.974 271.369C142.989 271.369 142.346 271.825 142.043 272.52H141.962V271.455H140.739V278H142.013V274.114ZM147.911 278H149.185V275.678L149.82 275.043L152.045 278H153.609L150.779 274.263L153.43 271.455H151.904L149.296 274.224H149.185V269.273H147.911V278Z" fill="#718EBF"/>
<circle cx="177" cy="247" r="6" fill="#FF82AC"/>
<path d="M193.959 251H197.304C199.332 251 200.249 249.99 200.249 248.652C200.249 247.301 199.303 246.538 198.438 246.491V246.406C199.239 246.202 199.908 245.656 199.908 244.565C199.908 243.274 199.013 242.273 197.155 242.273H193.959V251ZM195.276 249.871V247.075H197.223C198.28 247.075 198.94 247.757 198.94 248.588C198.94 249.321 198.442 249.871 197.176 249.871H195.276ZM195.276 246.048V243.393H197.074C198.118 243.393 198.616 243.943 198.616 244.668C198.616 245.511 197.926 246.048 197.04 246.048H195.276ZM201.81 251H203.127V247.697H204.917C204.947 247.697 204.972 247.697 205.002 247.697L206.775 251H208.275L206.34 247.467C207.41 247.071 207.942 246.18 207.942 245.009C207.942 243.402 206.945 242.273 204.921 242.273H201.81V251ZM203.127 246.564V243.402H204.781C206.08 243.402 206.617 244.02 206.617 245.009C206.617 245.993 206.08 246.564 204.798 246.564H203.127ZM216.793 245.111C216.495 243.244 215.033 242.153 213.188 242.153C210.93 242.153 209.263 243.845 209.263 246.636C209.263 249.428 210.921 251.119 213.188 251.119C215.106 251.119 216.508 249.918 216.793 248.192L215.464 248.188C215.238 249.304 214.3 249.918 213.197 249.918C211.701 249.918 210.572 248.771 210.572 246.636C210.572 244.518 211.697 243.355 213.201 243.355C214.313 243.355 215.246 243.982 215.464 245.111H216.793ZM221.545 251H224.89C226.918 251 227.835 249.99 227.835 248.652C227.835 247.301 226.888 246.538 226.023 246.491V246.406C226.825 246.202 227.494 245.656 227.494 244.565C227.494 243.274 226.599 242.273 224.741 242.273H221.545V251ZM222.862 249.871V247.075H224.809C225.866 247.075 226.526 247.757 226.526 248.588C226.526 249.321 226.028 249.871 224.762 249.871H222.862ZM222.862 246.048V243.393H224.66C225.704 243.393 226.202 243.943 226.202 244.668C226.202 245.511 225.512 246.048 224.626 246.048H222.862ZM231.199 251.145C232.281 251.145 232.891 250.595 233.134 250.105H233.185V251H234.429V246.653C234.429 244.749 232.929 244.369 231.889 244.369C230.705 244.369 229.614 244.847 229.188 246.04L230.385 246.312C230.572 245.848 231.05 245.401 231.906 245.401C232.729 245.401 233.151 245.831 233.151 246.572V246.602C233.151 247.067 232.673 247.058 231.497 247.195C230.257 247.339 228.987 247.663 228.987 249.151C228.987 250.438 229.955 251.145 231.199 251.145ZM231.476 250.122C230.756 250.122 230.236 249.798 230.236 249.168C230.236 248.486 230.841 248.243 231.578 248.145C231.991 248.089 232.972 247.979 233.155 247.795V248.639C233.155 249.415 232.537 250.122 231.476 250.122ZM237.4 247.114C237.4 246.07 238.039 245.473 238.926 245.473C239.791 245.473 240.315 246.04 240.315 246.99V251H241.589V246.837C241.589 245.217 240.699 244.369 239.36 244.369C238.376 244.369 237.733 244.825 237.43 245.52H237.349V244.455H236.126V251H237.4V247.114ZM243.298 251H244.572V248.678L245.207 248.043L247.431 251H248.995L246.166 247.263L248.816 244.455H247.291L244.683 247.224H244.572V242.273H243.298V251Z" fill="#718EBF"/>
<circle cx="177" cy="274" r="6" fill="#FFBB38"/>
<path d="M193.959 269.273V278H195.212V271.68H195.293L197.866 277.987H198.906L201.48 271.685H201.561V278H202.814V269.273H201.216L198.438 276.057H198.335L195.557 269.273H193.959ZM211.977 272.111C211.679 270.244 210.217 269.153 208.372 269.153C206.113 269.153 204.447 270.845 204.447 273.636C204.447 276.428 206.105 278.119 208.372 278.119C210.289 278.119 211.691 276.918 211.977 275.192L210.647 275.188C210.422 276.304 209.484 276.918 208.38 276.918C206.885 276.918 205.755 275.771 205.755 273.636C205.755 271.518 206.88 270.355 208.385 270.355C209.497 270.355 210.43 270.982 210.647 272.111H211.977ZM213.553 278H214.869V274.932H216.659C218.683 274.932 219.685 273.709 219.685 272.098C219.685 270.491 218.692 269.273 216.663 269.273H213.553V278ZM214.869 273.815V270.402H216.523C217.827 270.402 218.359 271.109 218.359 272.098C218.359 273.087 217.827 273.815 216.54 273.815H214.869ZM224.404 278H227.749C229.778 278 230.694 276.99 230.694 275.652C230.694 274.301 229.748 273.538 228.883 273.491V273.406C229.684 273.202 230.353 272.656 230.353 271.565C230.353 270.274 229.458 269.273 227.6 269.273H224.404V278ZM225.721 276.871V274.075H227.668C228.725 274.075 229.386 274.757 229.386 275.588C229.386 276.321 228.887 276.871 227.621 276.871H225.721ZM225.721 273.048V270.393H227.519C228.563 270.393 229.062 270.943 229.062 271.668C229.062 272.511 228.371 273.048 227.485 273.048H225.721ZM234.058 278.145C235.141 278.145 235.75 277.595 235.993 277.105H236.044V278H237.288V273.653C237.288 271.749 235.788 271.369 234.749 271.369C233.564 271.369 232.473 271.847 232.047 273.04L233.244 273.312C233.432 272.848 233.909 272.401 234.766 272.401C235.588 272.401 236.01 272.831 236.01 273.572V273.602C236.01 274.067 235.533 274.058 234.357 274.195C233.116 274.339 231.847 274.663 231.847 276.151C231.847 277.438 232.814 278.145 234.058 278.145ZM234.335 277.122C233.615 277.122 233.095 276.798 233.095 276.168C233.095 275.486 233.7 275.243 234.438 275.145C234.851 275.089 235.831 274.979 236.014 274.795V275.639C236.014 276.415 235.396 277.122 234.335 277.122ZM240.26 274.114C240.26 273.07 240.899 272.473 241.785 272.473C242.65 272.473 243.174 273.04 243.174 273.99V278H244.449V273.837C244.449 272.217 243.558 271.369 242.22 271.369C241.235 271.369 240.592 271.825 240.289 272.52H240.208V271.455H238.985V278H240.26V274.114ZM246.157 278H247.431V275.678L248.066 275.043L250.291 278H251.855L249.025 274.263L251.676 271.455H250.15L247.542 274.224H247.431V269.273H246.157V278Z" fill="#718EBF"/>
<defs>
<radialGradient id="paint0_radial_196_449" cx="0" cy="0" r="1" gradientUnits="userSpaceOnUse" gradientTransform="translate(160.797 136.99) rotate(0.544294) scale(81.0159)">
<stop/>
<stop offset="1" stop-opacity="0"/>
</radialGradient>
<linearGradient id="paint1_linear_196_449" x1="112.716" y1="136.39" x2="112.809" y2="126.642" gradientUnits="userSpaceOnUse">
<stop stop-color="white"/>
<stop offset="1"/>
</linearGradient>
<radialGradient id="paint2_radial_196_449" cx="0" cy="0" r="1" gradientUnits="userSpaceOnUse" gradientTransform="translate(162.991 134.797) rotate(0.544293) scale(36.8646 36.8646)">
<stop/>
<stop offset="1" stop-opacity="0"/>
</radialGradient>
</defs>
</svg>
