<svg width="45" height="45" viewBox="0 0 45 45" fill="none" xmlns="http://www.w3.org/2000/svg">
<rect width="45" height="45" rx="12" fill="#DCFAF8"/>
<path d="M30.6382 26.7617C30.0131 26.3864 28.7129 25.6051 28.7129 23.5728C28.7129 21.8575 29.8608 20.9919 30.4773 20.5268L30.4902 20.5171C30.7378 20.3304 30.7967 19.9829 30.6249 19.7248C29.2474 17.6566 26.8816 17.5969 26.4217 17.6054H26.4189C26.1034 17.6058 25.8024 17.6421 25.517 17.6995C25.6224 17.6152 25.7247 17.5254 25.8231 17.4301C26.8086 16.4766 27.3502 15.0698 27.3084 13.5693C27.2994 13.2526 27.0402 13 26.7231 13C25.6572 13 24.4452 13.6368 23.56 14.6622C22.6682 15.6953 22.2516 16.9331 22.4175 18.0576C22.4312 18.1509 22.4671 18.236 22.5187 18.309C22.3625 18.2567 22.1973 18.1958 22.0341 18.1357C21.4141 17.9073 20.7108 17.6484 20.0525 17.6484C20.0393 17.6484 18.7008 17.6582 17.3642 18.4883C16.1952 19.2149 14.8013 20.7271 14.8013 23.8075C14.8013 25.4095 15.4272 27.6523 16.3959 29.5218C17.0651 30.8134 18.454 32.9813 20.2376 32.9914H20.2567C21.5574 32.9914 22.635 32.2234 23.3679 32.2234C24.6197 32.2234 25.0652 33 26.4189 33C27.6325 33 28.8085 32.0781 29.9147 30.2606C30.3208 29.5929 30.6367 28.9326 30.8299 28.4961C31.1989 27.6644 31.1989 27.5535 31.1989 27.4723C31.1989 27.0986 30.9139 26.9272 30.6382 26.7617ZM24.4467 15.4275C24.9274 14.8707 25.533 14.4576 26.1066 14.2752C25.9969 15.1846 25.6126 16.0042 25.0086 16.5883C24.5853 16.9979 24.0774 17.2642 23.5616 17.3559C23.6162 16.7125 23.9239 16.0331 24.4467 15.4275ZM28.8573 29.7436C28.0214 31.0883 27.1553 31.8286 26.4189 31.8286C25.4057 31.8286 24.9321 31.052 23.3679 31.052C22.3125 31.052 21.3055 31.8255 20.2442 31.82C19.4165 31.8154 18.3404 30.7283 17.4361 28.983C16.547 27.2677 15.9726 25.2361 15.9726 23.8075C15.9726 21.7849 16.6376 20.3375 17.948 19.505C18.9682 18.8572 20.0119 18.8209 20.056 18.8198C20.9705 18.8221 22.2399 19.6315 23.1649 19.6315C23.9977 19.6315 25.1129 18.7768 26.4232 18.7768H26.4447C26.7625 18.7706 28.2631 18.8061 29.3173 19.9501C28.5723 20.5776 27.5415 21.706 27.5415 23.5728C27.5415 26.1084 29.1451 27.2216 29.9026 27.6859C29.714 28.1427 29.3544 28.9443 28.8573 29.7436Z" fill="#16DBCC"/>
</svg>
