<svg width="350" height="322" viewBox="0 0 350 322" fill="none" xmlns="http://www.w3.org/2000/svg">
<rect width="350" height="322" rx="25" fill="white"/>
<path d="M310.129 161.76C308.574 122.203 292.743 86.3344 267.621 59.1389L165 161.76H310.129Z" fill="#FC7900"/>
<path d="M153.891 160.218L246.783 67.3271C222.378 44.7772 189.76 31 153.891 31C118.043 31 85.4241 44.7971 61 67.3271L153.891 160.218Z" fill="#343C6A"/>
<path d="M158 171V290.668C222.938 288.116 275.116 235.938 277.668 171H158Z" fill="#1814F3"/>
<path d="M149.503 168.516L70.9868 90C52.3846 110.137 41 137.054 41 166.642C41 227.533 89.1703 277.158 149.483 279.531V168.516H149.503Z" fill="#FA00FF"/>
<path d="M141.675 79.1591C144.289 79.1591 146.158 77.7216 146.153 75.733C146.158 74.2841 145.238 73.25 143.528 73.0341V72.9432C144.829 72.7102 145.726 71.7898 145.721 70.483C145.726 68.6477 144.118 67.2045 141.709 67.2045C139.323 67.2045 137.528 68.6023 137.493 70.6136H139.851C139.88 69.7273 140.692 69.1534 141.698 69.1534C142.692 69.1534 143.357 69.7557 143.351 70.6307C143.357 71.5455 142.579 72.1648 141.459 72.1648H140.374V73.9716H141.459C142.778 73.9716 143.601 74.6307 143.596 75.5682C143.601 76.4943 142.806 77.1307 141.681 77.1307C140.596 77.1307 139.783 76.5625 139.738 75.7102H137.26C137.3 77.7443 139.118 79.1591 141.675 79.1591ZM152.483 79.2557C155.41 79.2557 157.177 77.0284 157.182 73.1932C157.188 69.3864 155.398 67.2045 152.483 67.2045C149.563 67.2045 147.79 69.3807 147.785 73.1932C147.773 77.017 149.552 79.25 152.483 79.2557ZM152.483 77.2159C151.148 77.2159 150.285 75.875 150.29 73.1932C150.296 70.5511 151.154 69.2216 152.483 69.2216C153.807 69.2216 154.671 70.5511 154.671 73.1932C154.677 75.875 153.813 77.2159 152.483 77.2159ZM165.306 76.8182C165.312 78.2159 166.204 79.4034 167.868 79.4034C169.516 79.4034 170.437 78.2159 170.431 76.8182V76.2045C170.437 74.7955 169.539 73.6193 167.868 73.6193C166.226 73.6193 165.312 74.8068 165.306 76.2045V76.8182ZM159.334 70.1591C159.34 71.5568 160.232 72.733 161.891 72.733C163.545 72.733 164.465 71.5682 164.459 70.1591V69.5455C164.465 68.1364 163.567 66.9602 161.891 66.9602C160.266 66.9602 159.34 68.1364 159.334 69.5455V70.1591ZM159.891 79H161.374L169.374 67.3636H167.891L159.891 79ZM166.959 76.2045C166.965 75.6477 167.187 75.0739 167.868 75.0739C168.584 75.0739 168.772 75.6477 168.766 76.2045V76.8182C168.772 77.375 168.562 77.9375 167.868 77.9375C167.175 77.9375 166.965 77.358 166.959 76.8182V76.2045ZM160.999 69.5455C161.005 69.0057 161.215 68.4148 161.891 68.4148C162.607 68.4148 162.8 68.9886 162.795 69.5455V70.1591C162.8 70.7159 162.584 71.2784 161.891 71.2784C161.221 71.2784 161.005 70.7159 160.999 70.1591V69.5455ZM109.18 97H115.57V95.3519H111.179V93.0945H115.223V91.4464H111.179V89.1935H115.551V87.5455H109.18V97ZM119.07 92.9006C119.075 91.9865 119.619 91.451 120.413 91.451C121.203 91.451 121.678 91.968 121.674 92.8359V97H123.64V92.4851C123.64 90.8324 122.671 89.8168 121.194 89.8168C120.141 89.8168 119.379 90.3338 119.061 91.1602H118.978V89.9091H117.103V97H119.07V92.9006ZM128.962 89.9091H127.628V88.2102H125.661V89.9091H124.692V91.3864H125.661V95.0795C125.652 96.4691 126.598 97.157 128.025 97.0969C128.533 97.0785 128.893 96.9769 129.091 96.9123L128.782 95.4489C128.685 95.4673 128.477 95.5135 128.293 95.5135C127.9 95.5135 127.628 95.3658 127.628 94.821V91.3864H128.962V89.9091ZM133.398 97.1385C135.153 97.1385 136.335 96.2844 136.612 94.9688L134.793 94.8487C134.594 95.3888 134.086 95.6705 133.431 95.6705C132.447 95.6705 131.824 95.0195 131.824 93.9624V93.9577H136.653V93.4176C136.653 91.0078 135.194 89.8168 133.32 89.8168C131.233 89.8168 129.881 91.2987 129.881 93.4869C129.881 95.7351 131.215 97.1385 133.398 97.1385ZM131.824 92.739C131.866 91.9311 132.48 91.2848 133.352 91.2848C134.206 91.2848 134.797 91.8942 134.802 92.739H131.824ZM137.936 97H139.903V92.9883C139.903 92.1158 140.54 91.5156 141.408 91.5156C141.68 91.5156 142.054 91.5618 142.239 91.6218V89.8768C142.064 89.8352 141.819 89.8075 141.62 89.8075C140.826 89.8075 140.175 90.2692 139.917 91.1463H139.843V89.9091H137.936V97ZM147.383 89.9091H146.049V88.2102H144.082V89.9091H143.113V91.3864H144.082V95.0795C144.073 96.4691 145.019 97.157 146.446 97.0969C146.954 97.0785 147.314 96.9769 147.512 96.9123L147.203 95.4489C147.106 95.4673 146.898 95.5135 146.714 95.5135C146.321 95.5135 146.049 95.3658 146.049 94.821V91.3864H147.383V89.9091ZM150.686 97.1339C151.734 97.1339 152.413 96.6768 152.759 96.0167H152.814V97H154.679V92.2173C154.679 90.5277 153.248 89.8168 151.669 89.8168C149.97 89.8168 148.853 90.6293 148.581 91.9219L150.4 92.0696C150.534 91.5987 150.954 91.2525 151.66 91.2525C152.329 91.2525 152.713 91.5895 152.713 92.1712V92.1989C152.713 92.6559 152.228 92.7159 150.995 92.8359C149.592 92.9652 148.332 93.4361 148.332 95.0195C148.332 96.4229 149.333 97.1339 150.686 97.1339ZM151.249 95.7766C150.644 95.7766 150.21 95.495 150.21 94.9549C150.21 94.4009 150.668 94.1286 151.36 94.0316C151.789 93.9716 152.491 93.87 152.726 93.7131V94.4656C152.726 95.2088 152.112 95.7766 151.249 95.7766ZM156.205 97H158.172V89.9091H156.205V97ZM157.193 88.995C157.779 88.995 158.259 88.5472 158.259 87.9979C158.259 87.4531 157.779 87.0053 157.193 87.0053C156.611 87.0053 156.131 87.4531 156.131 87.9979C156.131 88.5472 156.611 88.995 157.193 88.995ZM161.714 92.9006C161.718 91.9865 162.263 91.451 163.057 91.451C163.846 91.451 164.322 91.968 164.317 92.8359V97H166.284V92.4851C166.284 90.8324 165.314 89.8168 163.837 89.8168C162.785 89.8168 162.023 90.3338 161.704 91.1602H161.621V89.9091H159.747V97H161.714V92.9006ZM167.834 97H169.801V92.7436C169.801 91.9588 170.299 91.4371 170.955 91.4371C171.601 91.4371 172.035 91.8803 172.035 92.5774V97H173.941V92.6697C173.941 91.9357 174.362 91.4371 175.077 91.4371C175.705 91.4371 176.176 91.8295 176.176 92.619V97H178.138V92.2312C178.138 90.6939 177.224 89.8168 175.903 89.8168C174.865 89.8168 174.057 90.3477 173.766 91.1602H173.692C173.466 90.3384 172.741 89.8168 171.767 89.8168C170.812 89.8168 170.087 90.3246 169.791 91.1602H169.708V89.9091H167.834V97ZM182.923 97.1385C184.677 97.1385 185.859 96.2844 186.136 94.9688L184.317 94.8487C184.119 95.3888 183.611 95.6705 182.955 95.6705C181.972 95.6705 181.349 95.0195 181.349 93.9624V93.9577H186.177V93.4176C186.177 91.0078 184.719 89.8168 182.844 89.8168C180.758 89.8168 179.405 91.2987 179.405 93.4869C179.405 95.7351 180.739 97.1385 182.923 97.1385ZM181.349 92.739C181.39 91.9311 182.004 91.2848 182.877 91.2848C183.731 91.2848 184.322 91.8942 184.326 92.739H181.349ZM189.427 92.9006C189.432 91.9865 189.977 91.451 190.771 91.451C191.56 91.451 192.036 91.968 192.031 92.8359V97H193.998V92.4851C193.998 90.8324 193.028 89.8168 191.551 89.8168C190.498 89.8168 189.737 90.3338 189.418 91.1602H189.335V89.9091H187.461V97H189.427V92.9006ZM199.319 89.9091H197.985V88.2102H196.019V89.9091H195.049V91.3864H196.019V95.0795C196.009 96.4691 196.956 97.157 198.382 97.0969C198.89 97.0785 199.25 96.9769 199.449 96.9123L199.139 95.4489C199.042 95.4673 198.835 95.5135 198.65 95.5135C198.258 95.5135 197.985 95.3658 197.985 94.821V91.3864H199.319V89.9091Z" fill="white"/>
<path d="M78.9157 179H87.2112V176.989H82.3248V176.909L84.0237 175.244C86.4157 173.062 87.0578 171.972 87.0578 170.648C87.0578 168.631 85.41 167.205 82.9157 167.205C80.4725 167.205 78.7964 168.665 78.8021 170.949H81.1373C81.1316 169.835 81.8362 169.153 82.8987 169.153C83.9214 169.153 84.6828 169.79 84.6828 170.812C84.6828 171.739 84.1146 172.375 83.0578 173.392L78.9157 177.227V179ZM93.5563 179.256C96.4825 179.256 98.2495 177.028 98.2552 173.193C98.2609 169.386 96.4711 167.205 93.5563 167.205C90.6359 167.205 88.8632 169.381 88.8575 173.193C88.8461 177.017 90.6245 179.25 93.5563 179.256ZM93.5563 177.216C92.2211 177.216 91.3575 175.875 91.3632 173.193C91.3688 170.551 92.2268 169.222 93.5563 169.222C94.8802 169.222 95.7438 170.551 95.7438 173.193C95.7495 175.875 94.8859 177.216 93.5563 177.216ZM106.379 176.818C106.384 178.216 107.277 179.403 108.941 179.403C110.589 179.403 111.509 178.216 111.504 176.818V176.205C111.509 174.795 110.612 173.619 108.941 173.619C107.299 173.619 106.384 174.807 106.379 176.205V176.818ZM100.407 170.159C100.413 171.557 101.305 172.733 102.964 172.733C104.617 172.733 105.538 171.568 105.532 170.159V169.545C105.538 168.136 104.64 166.96 102.964 166.96C101.339 166.96 100.413 168.136 100.407 169.545V170.159ZM100.964 179H102.447L110.447 167.364H108.964L100.964 179ZM108.032 176.205C108.038 175.648 108.259 175.074 108.941 175.074C109.657 175.074 109.845 175.648 109.839 176.205V176.818C109.845 177.375 109.634 177.938 108.941 177.938C108.248 177.938 108.038 177.358 108.032 176.818V176.205ZM102.072 169.545C102.078 169.006 102.288 168.415 102.964 168.415C103.68 168.415 103.873 168.989 103.867 169.545V170.159C103.873 170.716 103.657 171.278 102.964 171.278C102.294 171.278 102.078 170.716 102.072 170.159V169.545ZM62.3445 187.545H60.3455V197H62.3445V187.545ZM65.9188 192.901C65.9234 191.987 66.4681 191.451 67.2622 191.451C68.0516 191.451 68.5271 191.968 68.5225 192.836V197H70.4891V192.485C70.4891 190.832 69.5196 189.817 68.0424 189.817C66.9898 189.817 66.2281 190.334 65.9095 191.16H65.8264V189.909H63.9522V197H65.9188V192.901ZM78.396 189.909H76.3139L74.8459 194.983H74.772L73.2994 189.909H71.222L73.701 197H75.9169L78.396 189.909ZM82.3927 197.138C84.1469 197.138 85.3288 196.284 85.6057 194.969L83.7869 194.849C83.5883 195.389 83.0805 195.67 82.425 195.67C81.4417 195.67 80.8185 195.02 80.8185 193.962V193.958H85.6473V193.418C85.6473 191.008 84.1885 189.817 82.3142 189.817C80.2276 189.817 78.8749 191.299 78.8749 193.487C78.8749 195.735 80.2091 197.138 82.3927 197.138ZM80.8185 192.739C80.86 191.931 81.474 191.285 82.3465 191.285C83.2006 191.285 83.7915 191.894 83.7961 192.739H80.8185ZM92.8305 191.931C92.6551 190.625 91.6026 189.817 89.8114 189.817C87.9971 189.817 86.8014 190.657 86.806 192.023C86.8014 193.085 87.4708 193.773 88.8557 194.05L90.0837 194.295C90.7023 194.419 90.9839 194.646 90.9932 195.001C90.9839 195.421 90.5269 195.721 89.8391 195.721C89.1374 195.721 88.6711 195.421 88.5511 194.844L86.6168 194.946C86.8014 196.303 87.9555 197.138 89.8344 197.138C91.6718 197.138 92.9875 196.201 92.9921 194.803C92.9875 193.778 92.3181 193.164 90.9424 192.882L89.659 192.624C88.9989 192.48 88.7542 192.254 88.7588 191.913C88.7542 191.488 89.2343 191.211 89.8437 191.211C90.5269 191.211 90.9332 191.585 91.0301 192.042L92.8305 191.931ZM98.0021 189.909H96.668V188.21H94.7014V189.909H93.7319V191.386H94.7014V195.08C94.6921 196.469 95.6385 197.157 97.065 197.097C97.5728 197.078 97.9329 196.977 98.1314 196.912L97.8221 195.449C97.7252 195.467 97.5174 195.513 97.3328 195.513C96.9404 195.513 96.668 195.366 96.668 194.821V191.386H98.0021V189.909ZM99.2832 197H101.25V192.744C101.25 191.959 101.748 191.437 102.404 191.437C103.05 191.437 103.484 191.88 103.484 192.577V197H105.391V192.67C105.391 191.936 105.811 191.437 106.526 191.437C107.154 191.437 107.625 191.83 107.625 192.619V197H109.587V192.231C109.587 190.694 108.673 189.817 107.353 189.817C106.314 189.817 105.506 190.348 105.215 191.16H105.142C104.915 190.338 104.191 189.817 103.216 189.817C102.261 189.817 101.536 190.325 101.241 191.16H101.158V189.909H99.2832V197ZM114.372 197.138C116.126 197.138 117.308 196.284 117.585 194.969L115.766 194.849C115.568 195.389 115.06 195.67 114.404 195.67C113.421 195.67 112.798 195.02 112.798 193.962V193.958H117.627V193.418C117.627 191.008 116.168 189.817 114.294 189.817C112.207 189.817 110.854 191.299 110.854 193.487C110.854 195.735 112.189 197.138 114.372 197.138ZM112.798 192.739C112.839 191.931 113.453 191.285 114.326 191.285C115.18 191.285 115.771 191.894 115.776 192.739H112.798ZM120.877 192.901C120.881 191.987 121.426 191.451 122.22 191.451C123.01 191.451 123.485 191.968 123.48 192.836V197H125.447V192.485C125.447 190.832 124.478 189.817 123 189.817C121.948 189.817 121.186 190.334 120.868 191.16H120.784V189.909H118.91V197H120.877V192.901ZM130.769 189.909H129.435V188.21H127.468V189.909H126.499V191.386H127.468V195.08C127.459 196.469 128.405 197.157 129.832 197.097C130.339 197.078 130.699 196.977 130.898 196.912L130.589 195.449C130.492 195.467 130.284 195.513 130.099 195.513C129.707 195.513 129.435 195.366 129.435 194.821V191.386H130.769V189.909Z" fill="white"/>
<path d="M231.269 117.655H228.956L226.075 119.479V121.66L228.74 119.99H228.808V129.291H231.269V117.655ZM238.284 129.45C240.875 129.45 242.637 127.763 242.631 125.41C242.637 123.183 241.08 121.581 238.983 121.581C237.96 121.581 237.08 122.007 236.671 122.581H236.602L236.904 119.666H241.989V117.655H234.875L234.324 123.791L236.512 124.183C236.87 123.7 237.563 123.399 238.25 123.399C239.421 123.405 240.262 124.251 240.262 125.473C240.262 126.683 239.438 127.518 238.284 127.518C237.307 127.518 236.517 126.905 236.46 126.001H234.074C234.12 128.013 235.875 129.45 238.284 129.45ZM250.716 127.109C250.722 128.507 251.614 129.694 253.279 129.694C254.926 129.694 255.847 128.507 255.841 127.109V126.496C255.847 125.086 254.949 123.91 253.279 123.91C251.637 123.91 250.722 125.098 250.716 126.496V127.109ZM244.745 120.45C244.75 121.848 245.642 123.024 247.301 123.024C248.955 123.024 249.875 121.859 249.87 120.45V119.836C249.875 118.427 248.977 117.251 247.301 117.251C245.676 117.251 244.75 118.427 244.745 119.836V120.45ZM245.301 129.291H246.784L254.784 117.655H253.301L245.301 129.291ZM252.37 126.496C252.375 125.939 252.597 125.365 253.279 125.365C253.995 125.365 254.182 125.939 254.176 126.496V127.109C254.182 127.666 253.972 128.229 253.279 128.229C252.585 128.229 252.375 127.649 252.37 127.109V126.496ZM246.409 119.836C246.415 119.297 246.625 118.706 247.301 118.706C248.017 118.706 248.21 119.28 248.205 119.836V120.45C248.21 121.007 247.995 121.569 247.301 121.569C246.631 121.569 246.415 121.007 246.409 120.45V119.836ZM203.627 147.291H207.666C209.79 147.291 210.921 146.183 210.921 144.678C210.921 143.279 209.919 142.434 208.843 142.384V142.291C209.827 142.07 210.551 141.373 210.551 140.26C210.551 138.843 209.499 137.836 207.412 137.836H203.627V147.291ZM205.626 145.657V143.145H207.301C208.262 143.145 208.857 143.699 208.857 144.48C208.857 145.191 208.372 145.657 207.255 145.657H205.626ZM205.626 141.793V139.452H207.144C208.031 139.452 208.534 139.909 208.534 140.593C208.534 141.34 207.925 141.793 207.108 141.793H205.626ZM212.185 147.291H214.151V140.2H212.185V147.291ZM213.172 139.286C213.759 139.286 214.239 138.838 214.239 138.289C214.239 137.744 213.759 137.296 213.172 137.296C212.591 137.296 212.111 137.744 212.111 138.289C212.111 138.838 212.591 139.286 213.172 139.286ZM217.693 137.836H215.726V147.291H217.693V137.836ZM221.235 137.836H219.268V147.291H221.235V137.836ZM225.856 147.291H232.245V145.643H227.855V143.385H231.899V141.737H227.855V139.485H232.227V137.836H225.856V147.291ZM235.423 140.2H233.391L235.423 143.746L233.318 147.291H235.349L236.725 144.84L238.123 147.291H240.132L238.022 143.746L240.076 140.2H238.059L236.725 142.679L235.423 140.2ZM241.244 149.95H243.211V146.155H243.271C243.543 146.746 244.139 147.406 245.283 147.406C246.899 147.406 248.16 146.128 248.16 143.755C248.16 141.317 246.844 140.108 245.288 140.108C244.102 140.108 243.534 140.814 243.271 141.391H243.183V140.2H241.244V149.95ZM243.169 143.746C243.169 142.481 243.705 141.673 244.66 141.673C245.634 141.673 246.151 142.518 246.151 143.746C246.151 144.983 245.625 145.841 244.66 145.841C243.714 145.841 243.169 145.01 243.169 143.746ZM252.702 147.43C254.456 147.43 255.638 146.575 255.915 145.26L254.096 145.14C253.898 145.68 253.39 145.961 252.734 145.961C251.751 145.961 251.128 145.311 251.128 144.253V144.249H255.957V143.709C255.957 141.299 254.498 140.108 252.624 140.108C250.537 140.108 249.184 141.59 249.184 143.778C249.184 146.026 250.519 147.43 252.702 147.43ZM251.128 143.03C251.169 142.222 251.783 141.576 252.656 141.576C253.51 141.576 254.101 142.185 254.106 143.03H251.128ZM259.207 143.192C259.211 142.278 259.756 141.742 260.55 141.742C261.34 141.742 261.815 142.259 261.81 143.127V147.291H263.777V142.776C263.777 141.123 262.808 140.108 261.33 140.108C260.278 140.108 259.516 140.625 259.198 141.451H259.114V140.2H257.24V147.291H259.207V143.192ZM271.227 142.222C271.052 140.916 269.999 140.108 268.208 140.108C266.393 140.108 265.198 140.948 265.202 142.314C265.198 143.376 265.867 144.064 267.252 144.341L268.48 144.586C269.099 144.71 269.38 144.937 269.39 145.292C269.38 145.712 268.923 146.012 268.235 146.012C267.534 146.012 267.067 145.712 266.947 145.135L265.013 145.237C265.198 146.594 266.352 147.43 268.231 147.43C270.068 147.43 271.384 146.492 271.389 145.094C271.384 144.069 270.715 143.455 269.339 143.173L268.055 142.915C267.395 142.771 267.151 142.545 267.155 142.204C267.151 141.779 267.631 141.502 268.24 141.502C268.923 141.502 269.33 141.876 269.427 142.333L271.227 142.222ZM275.858 147.43C277.613 147.43 278.795 146.575 279.071 145.26L277.253 145.14C277.054 145.68 276.546 145.961 275.891 145.961C274.907 145.961 274.284 145.311 274.284 144.253V144.249H279.113V143.709C279.113 141.299 277.654 140.108 275.78 140.108C273.693 140.108 272.341 141.59 272.341 143.778C272.341 146.026 273.675 147.43 275.858 147.43ZM274.284 143.03C274.326 142.222 274.94 141.576 275.812 141.576C276.666 141.576 277.257 142.185 277.262 143.03H274.284Z" fill="white"/>
<path d="M206.139 209.159C208.753 209.159 210.622 207.722 210.616 205.733C210.622 204.284 209.702 203.25 207.991 203.034V202.943C209.292 202.71 210.19 201.79 210.185 200.483C210.19 198.648 208.582 197.205 206.173 197.205C203.787 197.205 201.991 198.602 201.957 200.614H204.315C204.344 199.727 205.156 199.153 206.162 199.153C207.156 199.153 207.821 199.756 207.815 200.631C207.821 201.545 207.042 202.165 205.923 202.165H204.838V203.972H205.923C207.241 203.972 208.065 204.631 208.06 205.568C208.065 206.494 207.27 207.131 206.145 207.131C205.06 207.131 204.247 206.562 204.202 205.71H201.724C201.764 207.744 203.582 209.159 206.139 209.159ZM216.635 209.159C219.226 209.159 220.987 207.472 220.981 205.119C220.987 202.892 219.43 201.29 217.334 201.29C216.311 201.29 215.43 201.716 215.021 202.29H214.953L215.254 199.375H220.339V197.364H213.226L212.675 203.5L214.862 203.892C215.22 203.409 215.913 203.108 216.601 203.108C217.771 203.114 218.612 203.96 218.612 205.182C218.612 206.392 217.788 207.227 216.635 207.227C215.658 207.227 214.868 206.614 214.811 205.71H212.425C212.47 207.722 214.226 209.159 216.635 209.159ZM229.067 206.818C229.072 208.216 229.964 209.403 231.629 209.403C233.277 209.403 234.197 208.216 234.192 206.818V206.205C234.197 204.795 233.3 203.619 231.629 203.619C229.987 203.619 229.072 204.807 229.067 206.205V206.818ZM223.095 200.159C223.101 201.557 223.993 202.733 225.652 202.733C227.305 202.733 228.226 201.568 228.22 200.159V199.545C228.226 198.136 227.328 196.96 225.652 196.96C224.027 196.96 223.101 198.136 223.095 199.545V200.159ZM223.652 209H225.135L233.135 197.364H231.652L223.652 209ZM230.72 206.205C230.726 205.648 230.947 205.074 231.629 205.074C232.345 205.074 232.533 205.648 232.527 206.205V206.818C232.533 207.375 232.322 207.938 231.629 207.938C230.936 207.938 230.726 207.358 230.72 206.818V206.205ZM224.76 199.545C224.765 199.006 224.976 198.415 225.652 198.415C226.368 198.415 226.561 198.989 226.555 199.545V200.159C226.561 200.716 226.345 201.278 225.652 201.278C224.981 201.278 224.765 200.716 224.76 200.159V199.545ZM205.772 222.273C205.772 219.18 203.851 217.416 201.345 217.416C198.824 217.416 196.917 219.18 196.917 222.273C196.917 225.352 198.824 227.129 201.345 227.129C203.851 227.129 205.772 225.366 205.772 222.273ZM203.745 222.273C203.745 224.276 202.794 225.361 201.345 225.361C199.89 225.361 198.944 224.276 198.944 222.273C198.944 220.269 199.89 219.184 201.345 219.184C202.794 219.184 203.745 220.269 203.745 222.273ZM210.987 219.909H209.653V218.21H207.687V219.909H206.717V221.386H207.687V225.08C207.677 226.469 208.624 227.157 210.05 227.097C210.558 227.078 210.918 226.977 211.117 226.912L210.807 225.449C210.71 225.467 210.503 225.513 210.318 225.513C209.926 225.513 209.653 225.366 209.653 224.821V221.386H210.987V219.909ZM214.387 222.901C214.392 221.987 214.951 221.451 215.754 221.451C216.552 221.451 217.023 221.963 217.019 222.836V227H218.985V222.485C218.99 220.823 218.011 219.817 216.534 219.817C215.458 219.817 214.738 220.325 214.415 221.16H214.332V217.545H212.421V227H214.387V222.901ZM223.765 227.138C225.519 227.138 226.701 226.284 226.978 224.969L225.159 224.849C224.96 225.389 224.452 225.67 223.797 225.67C222.814 225.67 222.19 225.02 222.19 223.962V223.958H227.019V223.418C227.019 221.008 225.56 219.817 223.686 219.817C221.599 219.817 220.247 221.299 220.247 223.487C220.247 225.735 221.581 227.138 223.765 227.138ZM222.19 222.739C222.232 221.931 222.846 221.285 223.718 221.285C224.572 221.285 225.163 221.894 225.168 222.739H222.19ZM228.303 227H230.269V222.988C230.269 222.116 230.906 221.516 231.774 221.516C232.047 221.516 232.42 221.562 232.605 221.622V219.877C232.43 219.835 232.185 219.808 231.987 219.808C231.193 219.808 230.542 220.269 230.283 221.146H230.209V219.909H228.303V227ZM239.522 221.931C239.346 220.625 238.294 219.817 236.503 219.817C234.688 219.817 233.493 220.657 233.497 222.023C233.493 223.085 234.162 223.773 235.547 224.05L236.775 224.295C237.394 224.419 237.675 224.646 237.684 225.001C237.675 225.421 237.218 225.721 236.53 225.721C235.829 225.721 235.362 225.421 235.242 224.844L233.308 224.946C233.493 226.303 234.647 227.138 236.526 227.138C238.363 227.138 239.679 226.201 239.683 224.803C239.679 223.778 239.009 223.164 237.634 222.882L236.35 222.624C235.69 222.48 235.445 222.254 235.45 221.913C235.445 221.488 235.926 221.211 236.535 221.211C237.218 221.211 237.624 221.585 237.721 222.042L239.522 221.931Z" fill="white"/>
</svg>
